G75*
%MOIN*%
%OFA0B0*%
%FSLAX25Y25*%
%IPPOS*%
%LPD*%
%AMOC8*
5,1,8,0,0,1.08239X$1,22.5*
%
%ADD10C,0.00000*%
D10*
X0001000Y0001000D02*
X0291000Y0001000D01*
X0291000Y0291000D01*
X0001000Y0291000D01*
X0001000Y0001000D01*
X0139701Y0016000D02*
X0139703Y0016158D01*
X0139709Y0016316D01*
X0139719Y0016474D01*
X0139733Y0016632D01*
X0139751Y0016789D01*
X0139772Y0016946D01*
X0139798Y0017102D01*
X0139828Y0017258D01*
X0139861Y0017413D01*
X0139899Y0017566D01*
X0139940Y0017719D01*
X0139985Y0017871D01*
X0140034Y0018022D01*
X0140087Y0018171D01*
X0140143Y0018319D01*
X0140203Y0018465D01*
X0140267Y0018610D01*
X0140335Y0018753D01*
X0140406Y0018895D01*
X0140480Y0019035D01*
X0140558Y0019172D01*
X0140640Y0019308D01*
X0140724Y0019442D01*
X0140813Y0019573D01*
X0140904Y0019702D01*
X0140999Y0019829D01*
X0141096Y0019954D01*
X0141197Y0020076D01*
X0141301Y0020195D01*
X0141408Y0020312D01*
X0141518Y0020426D01*
X0141631Y0020537D01*
X0141746Y0020646D01*
X0141864Y0020751D01*
X0141985Y0020853D01*
X0142108Y0020953D01*
X0142234Y0021049D01*
X0142362Y0021142D01*
X0142492Y0021232D01*
X0142625Y0021318D01*
X0142760Y0021402D01*
X0142896Y0021481D01*
X0143035Y0021558D01*
X0143176Y0021630D01*
X0143318Y0021700D01*
X0143462Y0021765D01*
X0143608Y0021827D01*
X0143755Y0021885D01*
X0143904Y0021940D01*
X0144054Y0021991D01*
X0144205Y0022038D01*
X0144357Y0022081D01*
X0144510Y0022120D01*
X0144665Y0022156D01*
X0144820Y0022187D01*
X0144976Y0022215D01*
X0145132Y0022239D01*
X0145289Y0022259D01*
X0145447Y0022275D01*
X0145604Y0022287D01*
X0145763Y0022295D01*
X0145921Y0022299D01*
X0146079Y0022299D01*
X0146237Y0022295D01*
X0146396Y0022287D01*
X0146553Y0022275D01*
X0146711Y0022259D01*
X0146868Y0022239D01*
X0147024Y0022215D01*
X0147180Y0022187D01*
X0147335Y0022156D01*
X0147490Y0022120D01*
X0147643Y0022081D01*
X0147795Y0022038D01*
X0147946Y0021991D01*
X0148096Y0021940D01*
X0148245Y0021885D01*
X0148392Y0021827D01*
X0148538Y0021765D01*
X0148682Y0021700D01*
X0148824Y0021630D01*
X0148965Y0021558D01*
X0149104Y0021481D01*
X0149240Y0021402D01*
X0149375Y0021318D01*
X0149508Y0021232D01*
X0149638Y0021142D01*
X0149766Y0021049D01*
X0149892Y0020953D01*
X0150015Y0020853D01*
X0150136Y0020751D01*
X0150254Y0020646D01*
X0150369Y0020537D01*
X0150482Y0020426D01*
X0150592Y0020312D01*
X0150699Y0020195D01*
X0150803Y0020076D01*
X0150904Y0019954D01*
X0151001Y0019829D01*
X0151096Y0019702D01*
X0151187Y0019573D01*
X0151276Y0019442D01*
X0151360Y0019308D01*
X0151442Y0019172D01*
X0151520Y0019035D01*
X0151594Y0018895D01*
X0151665Y0018753D01*
X0151733Y0018610D01*
X0151797Y0018465D01*
X0151857Y0018319D01*
X0151913Y0018171D01*
X0151966Y0018022D01*
X0152015Y0017871D01*
X0152060Y0017719D01*
X0152101Y0017566D01*
X0152139Y0017413D01*
X0152172Y0017258D01*
X0152202Y0017102D01*
X0152228Y0016946D01*
X0152249Y0016789D01*
X0152267Y0016632D01*
X0152281Y0016474D01*
X0152291Y0016316D01*
X0152297Y0016158D01*
X0152299Y0016000D01*
X0152297Y0015842D01*
X0152291Y0015684D01*
X0152281Y0015526D01*
X0152267Y0015368D01*
X0152249Y0015211D01*
X0152228Y0015054D01*
X0152202Y0014898D01*
X0152172Y0014742D01*
X0152139Y0014587D01*
X0152101Y0014434D01*
X0152060Y0014281D01*
X0152015Y0014129D01*
X0151966Y0013978D01*
X0151913Y0013829D01*
X0151857Y0013681D01*
X0151797Y0013535D01*
X0151733Y0013390D01*
X0151665Y0013247D01*
X0151594Y0013105D01*
X0151520Y0012965D01*
X0151442Y0012828D01*
X0151360Y0012692D01*
X0151276Y0012558D01*
X0151187Y0012427D01*
X0151096Y0012298D01*
X0151001Y0012171D01*
X0150904Y0012046D01*
X0150803Y0011924D01*
X0150699Y0011805D01*
X0150592Y0011688D01*
X0150482Y0011574D01*
X0150369Y0011463D01*
X0150254Y0011354D01*
X0150136Y0011249D01*
X0150015Y0011147D01*
X0149892Y0011047D01*
X0149766Y0010951D01*
X0149638Y0010858D01*
X0149508Y0010768D01*
X0149375Y0010682D01*
X0149240Y0010598D01*
X0149104Y0010519D01*
X0148965Y0010442D01*
X0148824Y0010370D01*
X0148682Y0010300D01*
X0148538Y0010235D01*
X0148392Y0010173D01*
X0148245Y0010115D01*
X0148096Y0010060D01*
X0147946Y0010009D01*
X0147795Y0009962D01*
X0147643Y0009919D01*
X0147490Y0009880D01*
X0147335Y0009844D01*
X0147180Y0009813D01*
X0147024Y0009785D01*
X0146868Y0009761D01*
X0146711Y0009741D01*
X0146553Y0009725D01*
X0146396Y0009713D01*
X0146237Y0009705D01*
X0146079Y0009701D01*
X0145921Y0009701D01*
X0145763Y0009705D01*
X0145604Y0009713D01*
X0145447Y0009725D01*
X0145289Y0009741D01*
X0145132Y0009761D01*
X0144976Y0009785D01*
X0144820Y0009813D01*
X0144665Y0009844D01*
X0144510Y0009880D01*
X0144357Y0009919D01*
X0144205Y0009962D01*
X0144054Y0010009D01*
X0143904Y0010060D01*
X0143755Y0010115D01*
X0143608Y0010173D01*
X0143462Y0010235D01*
X0143318Y0010300D01*
X0143176Y0010370D01*
X0143035Y0010442D01*
X0142896Y0010519D01*
X0142760Y0010598D01*
X0142625Y0010682D01*
X0142492Y0010768D01*
X0142362Y0010858D01*
X0142234Y0010951D01*
X0142108Y0011047D01*
X0141985Y0011147D01*
X0141864Y0011249D01*
X0141746Y0011354D01*
X0141631Y0011463D01*
X0141518Y0011574D01*
X0141408Y0011688D01*
X0141301Y0011805D01*
X0141197Y0011924D01*
X0141096Y0012046D01*
X0140999Y0012171D01*
X0140904Y0012298D01*
X0140813Y0012427D01*
X0140724Y0012558D01*
X0140640Y0012692D01*
X0140558Y0012828D01*
X0140480Y0012965D01*
X0140406Y0013105D01*
X0140335Y0013247D01*
X0140267Y0013390D01*
X0140203Y0013535D01*
X0140143Y0013681D01*
X0140087Y0013829D01*
X0140034Y0013978D01*
X0139985Y0014129D01*
X0139940Y0014281D01*
X0139899Y0014434D01*
X0139861Y0014587D01*
X0139828Y0014742D01*
X0139798Y0014898D01*
X0139772Y0015054D01*
X0139751Y0015211D01*
X0139733Y0015368D01*
X0139719Y0015526D01*
X0139709Y0015684D01*
X0139703Y0015842D01*
X0139701Y0016000D01*
X0139701Y0276000D02*
X0139703Y0276158D01*
X0139709Y0276316D01*
X0139719Y0276474D01*
X0139733Y0276632D01*
X0139751Y0276789D01*
X0139772Y0276946D01*
X0139798Y0277102D01*
X0139828Y0277258D01*
X0139861Y0277413D01*
X0139899Y0277566D01*
X0139940Y0277719D01*
X0139985Y0277871D01*
X0140034Y0278022D01*
X0140087Y0278171D01*
X0140143Y0278319D01*
X0140203Y0278465D01*
X0140267Y0278610D01*
X0140335Y0278753D01*
X0140406Y0278895D01*
X0140480Y0279035D01*
X0140558Y0279172D01*
X0140640Y0279308D01*
X0140724Y0279442D01*
X0140813Y0279573D01*
X0140904Y0279702D01*
X0140999Y0279829D01*
X0141096Y0279954D01*
X0141197Y0280076D01*
X0141301Y0280195D01*
X0141408Y0280312D01*
X0141518Y0280426D01*
X0141631Y0280537D01*
X0141746Y0280646D01*
X0141864Y0280751D01*
X0141985Y0280853D01*
X0142108Y0280953D01*
X0142234Y0281049D01*
X0142362Y0281142D01*
X0142492Y0281232D01*
X0142625Y0281318D01*
X0142760Y0281402D01*
X0142896Y0281481D01*
X0143035Y0281558D01*
X0143176Y0281630D01*
X0143318Y0281700D01*
X0143462Y0281765D01*
X0143608Y0281827D01*
X0143755Y0281885D01*
X0143904Y0281940D01*
X0144054Y0281991D01*
X0144205Y0282038D01*
X0144357Y0282081D01*
X0144510Y0282120D01*
X0144665Y0282156D01*
X0144820Y0282187D01*
X0144976Y0282215D01*
X0145132Y0282239D01*
X0145289Y0282259D01*
X0145447Y0282275D01*
X0145604Y0282287D01*
X0145763Y0282295D01*
X0145921Y0282299D01*
X0146079Y0282299D01*
X0146237Y0282295D01*
X0146396Y0282287D01*
X0146553Y0282275D01*
X0146711Y0282259D01*
X0146868Y0282239D01*
X0147024Y0282215D01*
X0147180Y0282187D01*
X0147335Y0282156D01*
X0147490Y0282120D01*
X0147643Y0282081D01*
X0147795Y0282038D01*
X0147946Y0281991D01*
X0148096Y0281940D01*
X0148245Y0281885D01*
X0148392Y0281827D01*
X0148538Y0281765D01*
X0148682Y0281700D01*
X0148824Y0281630D01*
X0148965Y0281558D01*
X0149104Y0281481D01*
X0149240Y0281402D01*
X0149375Y0281318D01*
X0149508Y0281232D01*
X0149638Y0281142D01*
X0149766Y0281049D01*
X0149892Y0280953D01*
X0150015Y0280853D01*
X0150136Y0280751D01*
X0150254Y0280646D01*
X0150369Y0280537D01*
X0150482Y0280426D01*
X0150592Y0280312D01*
X0150699Y0280195D01*
X0150803Y0280076D01*
X0150904Y0279954D01*
X0151001Y0279829D01*
X0151096Y0279702D01*
X0151187Y0279573D01*
X0151276Y0279442D01*
X0151360Y0279308D01*
X0151442Y0279172D01*
X0151520Y0279035D01*
X0151594Y0278895D01*
X0151665Y0278753D01*
X0151733Y0278610D01*
X0151797Y0278465D01*
X0151857Y0278319D01*
X0151913Y0278171D01*
X0151966Y0278022D01*
X0152015Y0277871D01*
X0152060Y0277719D01*
X0152101Y0277566D01*
X0152139Y0277413D01*
X0152172Y0277258D01*
X0152202Y0277102D01*
X0152228Y0276946D01*
X0152249Y0276789D01*
X0152267Y0276632D01*
X0152281Y0276474D01*
X0152291Y0276316D01*
X0152297Y0276158D01*
X0152299Y0276000D01*
X0152297Y0275842D01*
X0152291Y0275684D01*
X0152281Y0275526D01*
X0152267Y0275368D01*
X0152249Y0275211D01*
X0152228Y0275054D01*
X0152202Y0274898D01*
X0152172Y0274742D01*
X0152139Y0274587D01*
X0152101Y0274434D01*
X0152060Y0274281D01*
X0152015Y0274129D01*
X0151966Y0273978D01*
X0151913Y0273829D01*
X0151857Y0273681D01*
X0151797Y0273535D01*
X0151733Y0273390D01*
X0151665Y0273247D01*
X0151594Y0273105D01*
X0151520Y0272965D01*
X0151442Y0272828D01*
X0151360Y0272692D01*
X0151276Y0272558D01*
X0151187Y0272427D01*
X0151096Y0272298D01*
X0151001Y0272171D01*
X0150904Y0272046D01*
X0150803Y0271924D01*
X0150699Y0271805D01*
X0150592Y0271688D01*
X0150482Y0271574D01*
X0150369Y0271463D01*
X0150254Y0271354D01*
X0150136Y0271249D01*
X0150015Y0271147D01*
X0149892Y0271047D01*
X0149766Y0270951D01*
X0149638Y0270858D01*
X0149508Y0270768D01*
X0149375Y0270682D01*
X0149240Y0270598D01*
X0149104Y0270519D01*
X0148965Y0270442D01*
X0148824Y0270370D01*
X0148682Y0270300D01*
X0148538Y0270235D01*
X0148392Y0270173D01*
X0148245Y0270115D01*
X0148096Y0270060D01*
X0147946Y0270009D01*
X0147795Y0269962D01*
X0147643Y0269919D01*
X0147490Y0269880D01*
X0147335Y0269844D01*
X0147180Y0269813D01*
X0147024Y0269785D01*
X0146868Y0269761D01*
X0146711Y0269741D01*
X0146553Y0269725D01*
X0146396Y0269713D01*
X0146237Y0269705D01*
X0146079Y0269701D01*
X0145921Y0269701D01*
X0145763Y0269705D01*
X0145604Y0269713D01*
X0145447Y0269725D01*
X0145289Y0269741D01*
X0145132Y0269761D01*
X0144976Y0269785D01*
X0144820Y0269813D01*
X0144665Y0269844D01*
X0144510Y0269880D01*
X0144357Y0269919D01*
X0144205Y0269962D01*
X0144054Y0270009D01*
X0143904Y0270060D01*
X0143755Y0270115D01*
X0143608Y0270173D01*
X0143462Y0270235D01*
X0143318Y0270300D01*
X0143176Y0270370D01*
X0143035Y0270442D01*
X0142896Y0270519D01*
X0142760Y0270598D01*
X0142625Y0270682D01*
X0142492Y0270768D01*
X0142362Y0270858D01*
X0142234Y0270951D01*
X0142108Y0271047D01*
X0141985Y0271147D01*
X0141864Y0271249D01*
X0141746Y0271354D01*
X0141631Y0271463D01*
X0141518Y0271574D01*
X0141408Y0271688D01*
X0141301Y0271805D01*
X0141197Y0271924D01*
X0141096Y0272046D01*
X0140999Y0272171D01*
X0140904Y0272298D01*
X0140813Y0272427D01*
X0140724Y0272558D01*
X0140640Y0272692D01*
X0140558Y0272828D01*
X0140480Y0272965D01*
X0140406Y0273105D01*
X0140335Y0273247D01*
X0140267Y0273390D01*
X0140203Y0273535D01*
X0140143Y0273681D01*
X0140087Y0273829D01*
X0140034Y0273978D01*
X0139985Y0274129D01*
X0139940Y0274281D01*
X0139899Y0274434D01*
X0139861Y0274587D01*
X0139828Y0274742D01*
X0139798Y0274898D01*
X0139772Y0275054D01*
X0139751Y0275211D01*
X0139733Y0275368D01*
X0139719Y0275526D01*
X0139709Y0275684D01*
X0139703Y0275842D01*
X0139701Y0276000D01*
X0009701Y0276000D02*
X0009703Y0276158D01*
X0009709Y0276316D01*
X0009719Y0276474D01*
X0009733Y0276632D01*
X0009751Y0276789D01*
X0009772Y0276946D01*
X0009798Y0277102D01*
X0009828Y0277258D01*
X0009861Y0277413D01*
X0009899Y0277566D01*
X0009940Y0277719D01*
X0009985Y0277871D01*
X0010034Y0278022D01*
X0010087Y0278171D01*
X0010143Y0278319D01*
X0010203Y0278465D01*
X0010267Y0278610D01*
X0010335Y0278753D01*
X0010406Y0278895D01*
X0010480Y0279035D01*
X0010558Y0279172D01*
X0010640Y0279308D01*
X0010724Y0279442D01*
X0010813Y0279573D01*
X0010904Y0279702D01*
X0010999Y0279829D01*
X0011096Y0279954D01*
X0011197Y0280076D01*
X0011301Y0280195D01*
X0011408Y0280312D01*
X0011518Y0280426D01*
X0011631Y0280537D01*
X0011746Y0280646D01*
X0011864Y0280751D01*
X0011985Y0280853D01*
X0012108Y0280953D01*
X0012234Y0281049D01*
X0012362Y0281142D01*
X0012492Y0281232D01*
X0012625Y0281318D01*
X0012760Y0281402D01*
X0012896Y0281481D01*
X0013035Y0281558D01*
X0013176Y0281630D01*
X0013318Y0281700D01*
X0013462Y0281765D01*
X0013608Y0281827D01*
X0013755Y0281885D01*
X0013904Y0281940D01*
X0014054Y0281991D01*
X0014205Y0282038D01*
X0014357Y0282081D01*
X0014510Y0282120D01*
X0014665Y0282156D01*
X0014820Y0282187D01*
X0014976Y0282215D01*
X0015132Y0282239D01*
X0015289Y0282259D01*
X0015447Y0282275D01*
X0015604Y0282287D01*
X0015763Y0282295D01*
X0015921Y0282299D01*
X0016079Y0282299D01*
X0016237Y0282295D01*
X0016396Y0282287D01*
X0016553Y0282275D01*
X0016711Y0282259D01*
X0016868Y0282239D01*
X0017024Y0282215D01*
X0017180Y0282187D01*
X0017335Y0282156D01*
X0017490Y0282120D01*
X0017643Y0282081D01*
X0017795Y0282038D01*
X0017946Y0281991D01*
X0018096Y0281940D01*
X0018245Y0281885D01*
X0018392Y0281827D01*
X0018538Y0281765D01*
X0018682Y0281700D01*
X0018824Y0281630D01*
X0018965Y0281558D01*
X0019104Y0281481D01*
X0019240Y0281402D01*
X0019375Y0281318D01*
X0019508Y0281232D01*
X0019638Y0281142D01*
X0019766Y0281049D01*
X0019892Y0280953D01*
X0020015Y0280853D01*
X0020136Y0280751D01*
X0020254Y0280646D01*
X0020369Y0280537D01*
X0020482Y0280426D01*
X0020592Y0280312D01*
X0020699Y0280195D01*
X0020803Y0280076D01*
X0020904Y0279954D01*
X0021001Y0279829D01*
X0021096Y0279702D01*
X0021187Y0279573D01*
X0021276Y0279442D01*
X0021360Y0279308D01*
X0021442Y0279172D01*
X0021520Y0279035D01*
X0021594Y0278895D01*
X0021665Y0278753D01*
X0021733Y0278610D01*
X0021797Y0278465D01*
X0021857Y0278319D01*
X0021913Y0278171D01*
X0021966Y0278022D01*
X0022015Y0277871D01*
X0022060Y0277719D01*
X0022101Y0277566D01*
X0022139Y0277413D01*
X0022172Y0277258D01*
X0022202Y0277102D01*
X0022228Y0276946D01*
X0022249Y0276789D01*
X0022267Y0276632D01*
X0022281Y0276474D01*
X0022291Y0276316D01*
X0022297Y0276158D01*
X0022299Y0276000D01*
X0022297Y0275842D01*
X0022291Y0275684D01*
X0022281Y0275526D01*
X0022267Y0275368D01*
X0022249Y0275211D01*
X0022228Y0275054D01*
X0022202Y0274898D01*
X0022172Y0274742D01*
X0022139Y0274587D01*
X0022101Y0274434D01*
X0022060Y0274281D01*
X0022015Y0274129D01*
X0021966Y0273978D01*
X0021913Y0273829D01*
X0021857Y0273681D01*
X0021797Y0273535D01*
X0021733Y0273390D01*
X0021665Y0273247D01*
X0021594Y0273105D01*
X0021520Y0272965D01*
X0021442Y0272828D01*
X0021360Y0272692D01*
X0021276Y0272558D01*
X0021187Y0272427D01*
X0021096Y0272298D01*
X0021001Y0272171D01*
X0020904Y0272046D01*
X0020803Y0271924D01*
X0020699Y0271805D01*
X0020592Y0271688D01*
X0020482Y0271574D01*
X0020369Y0271463D01*
X0020254Y0271354D01*
X0020136Y0271249D01*
X0020015Y0271147D01*
X0019892Y0271047D01*
X0019766Y0270951D01*
X0019638Y0270858D01*
X0019508Y0270768D01*
X0019375Y0270682D01*
X0019240Y0270598D01*
X0019104Y0270519D01*
X0018965Y0270442D01*
X0018824Y0270370D01*
X0018682Y0270300D01*
X0018538Y0270235D01*
X0018392Y0270173D01*
X0018245Y0270115D01*
X0018096Y0270060D01*
X0017946Y0270009D01*
X0017795Y0269962D01*
X0017643Y0269919D01*
X0017490Y0269880D01*
X0017335Y0269844D01*
X0017180Y0269813D01*
X0017024Y0269785D01*
X0016868Y0269761D01*
X0016711Y0269741D01*
X0016553Y0269725D01*
X0016396Y0269713D01*
X0016237Y0269705D01*
X0016079Y0269701D01*
X0015921Y0269701D01*
X0015763Y0269705D01*
X0015604Y0269713D01*
X0015447Y0269725D01*
X0015289Y0269741D01*
X0015132Y0269761D01*
X0014976Y0269785D01*
X0014820Y0269813D01*
X0014665Y0269844D01*
X0014510Y0269880D01*
X0014357Y0269919D01*
X0014205Y0269962D01*
X0014054Y0270009D01*
X0013904Y0270060D01*
X0013755Y0270115D01*
X0013608Y0270173D01*
X0013462Y0270235D01*
X0013318Y0270300D01*
X0013176Y0270370D01*
X0013035Y0270442D01*
X0012896Y0270519D01*
X0012760Y0270598D01*
X0012625Y0270682D01*
X0012492Y0270768D01*
X0012362Y0270858D01*
X0012234Y0270951D01*
X0012108Y0271047D01*
X0011985Y0271147D01*
X0011864Y0271249D01*
X0011746Y0271354D01*
X0011631Y0271463D01*
X0011518Y0271574D01*
X0011408Y0271688D01*
X0011301Y0271805D01*
X0011197Y0271924D01*
X0011096Y0272046D01*
X0010999Y0272171D01*
X0010904Y0272298D01*
X0010813Y0272427D01*
X0010724Y0272558D01*
X0010640Y0272692D01*
X0010558Y0272828D01*
X0010480Y0272965D01*
X0010406Y0273105D01*
X0010335Y0273247D01*
X0010267Y0273390D01*
X0010203Y0273535D01*
X0010143Y0273681D01*
X0010087Y0273829D01*
X0010034Y0273978D01*
X0009985Y0274129D01*
X0009940Y0274281D01*
X0009899Y0274434D01*
X0009861Y0274587D01*
X0009828Y0274742D01*
X0009798Y0274898D01*
X0009772Y0275054D01*
X0009751Y0275211D01*
X0009733Y0275368D01*
X0009719Y0275526D01*
X0009709Y0275684D01*
X0009703Y0275842D01*
X0009701Y0276000D01*
X0269701Y0276000D02*
X0269703Y0276158D01*
X0269709Y0276316D01*
X0269719Y0276474D01*
X0269733Y0276632D01*
X0269751Y0276789D01*
X0269772Y0276946D01*
X0269798Y0277102D01*
X0269828Y0277258D01*
X0269861Y0277413D01*
X0269899Y0277566D01*
X0269940Y0277719D01*
X0269985Y0277871D01*
X0270034Y0278022D01*
X0270087Y0278171D01*
X0270143Y0278319D01*
X0270203Y0278465D01*
X0270267Y0278610D01*
X0270335Y0278753D01*
X0270406Y0278895D01*
X0270480Y0279035D01*
X0270558Y0279172D01*
X0270640Y0279308D01*
X0270724Y0279442D01*
X0270813Y0279573D01*
X0270904Y0279702D01*
X0270999Y0279829D01*
X0271096Y0279954D01*
X0271197Y0280076D01*
X0271301Y0280195D01*
X0271408Y0280312D01*
X0271518Y0280426D01*
X0271631Y0280537D01*
X0271746Y0280646D01*
X0271864Y0280751D01*
X0271985Y0280853D01*
X0272108Y0280953D01*
X0272234Y0281049D01*
X0272362Y0281142D01*
X0272492Y0281232D01*
X0272625Y0281318D01*
X0272760Y0281402D01*
X0272896Y0281481D01*
X0273035Y0281558D01*
X0273176Y0281630D01*
X0273318Y0281700D01*
X0273462Y0281765D01*
X0273608Y0281827D01*
X0273755Y0281885D01*
X0273904Y0281940D01*
X0274054Y0281991D01*
X0274205Y0282038D01*
X0274357Y0282081D01*
X0274510Y0282120D01*
X0274665Y0282156D01*
X0274820Y0282187D01*
X0274976Y0282215D01*
X0275132Y0282239D01*
X0275289Y0282259D01*
X0275447Y0282275D01*
X0275604Y0282287D01*
X0275763Y0282295D01*
X0275921Y0282299D01*
X0276079Y0282299D01*
X0276237Y0282295D01*
X0276396Y0282287D01*
X0276553Y0282275D01*
X0276711Y0282259D01*
X0276868Y0282239D01*
X0277024Y0282215D01*
X0277180Y0282187D01*
X0277335Y0282156D01*
X0277490Y0282120D01*
X0277643Y0282081D01*
X0277795Y0282038D01*
X0277946Y0281991D01*
X0278096Y0281940D01*
X0278245Y0281885D01*
X0278392Y0281827D01*
X0278538Y0281765D01*
X0278682Y0281700D01*
X0278824Y0281630D01*
X0278965Y0281558D01*
X0279104Y0281481D01*
X0279240Y0281402D01*
X0279375Y0281318D01*
X0279508Y0281232D01*
X0279638Y0281142D01*
X0279766Y0281049D01*
X0279892Y0280953D01*
X0280015Y0280853D01*
X0280136Y0280751D01*
X0280254Y0280646D01*
X0280369Y0280537D01*
X0280482Y0280426D01*
X0280592Y0280312D01*
X0280699Y0280195D01*
X0280803Y0280076D01*
X0280904Y0279954D01*
X0281001Y0279829D01*
X0281096Y0279702D01*
X0281187Y0279573D01*
X0281276Y0279442D01*
X0281360Y0279308D01*
X0281442Y0279172D01*
X0281520Y0279035D01*
X0281594Y0278895D01*
X0281665Y0278753D01*
X0281733Y0278610D01*
X0281797Y0278465D01*
X0281857Y0278319D01*
X0281913Y0278171D01*
X0281966Y0278022D01*
X0282015Y0277871D01*
X0282060Y0277719D01*
X0282101Y0277566D01*
X0282139Y0277413D01*
X0282172Y0277258D01*
X0282202Y0277102D01*
X0282228Y0276946D01*
X0282249Y0276789D01*
X0282267Y0276632D01*
X0282281Y0276474D01*
X0282291Y0276316D01*
X0282297Y0276158D01*
X0282299Y0276000D01*
X0282297Y0275842D01*
X0282291Y0275684D01*
X0282281Y0275526D01*
X0282267Y0275368D01*
X0282249Y0275211D01*
X0282228Y0275054D01*
X0282202Y0274898D01*
X0282172Y0274742D01*
X0282139Y0274587D01*
X0282101Y0274434D01*
X0282060Y0274281D01*
X0282015Y0274129D01*
X0281966Y0273978D01*
X0281913Y0273829D01*
X0281857Y0273681D01*
X0281797Y0273535D01*
X0281733Y0273390D01*
X0281665Y0273247D01*
X0281594Y0273105D01*
X0281520Y0272965D01*
X0281442Y0272828D01*
X0281360Y0272692D01*
X0281276Y0272558D01*
X0281187Y0272427D01*
X0281096Y0272298D01*
X0281001Y0272171D01*
X0280904Y0272046D01*
X0280803Y0271924D01*
X0280699Y0271805D01*
X0280592Y0271688D01*
X0280482Y0271574D01*
X0280369Y0271463D01*
X0280254Y0271354D01*
X0280136Y0271249D01*
X0280015Y0271147D01*
X0279892Y0271047D01*
X0279766Y0270951D01*
X0279638Y0270858D01*
X0279508Y0270768D01*
X0279375Y0270682D01*
X0279240Y0270598D01*
X0279104Y0270519D01*
X0278965Y0270442D01*
X0278824Y0270370D01*
X0278682Y0270300D01*
X0278538Y0270235D01*
X0278392Y0270173D01*
X0278245Y0270115D01*
X0278096Y0270060D01*
X0277946Y0270009D01*
X0277795Y0269962D01*
X0277643Y0269919D01*
X0277490Y0269880D01*
X0277335Y0269844D01*
X0277180Y0269813D01*
X0277024Y0269785D01*
X0276868Y0269761D01*
X0276711Y0269741D01*
X0276553Y0269725D01*
X0276396Y0269713D01*
X0276237Y0269705D01*
X0276079Y0269701D01*
X0275921Y0269701D01*
X0275763Y0269705D01*
X0275604Y0269713D01*
X0275447Y0269725D01*
X0275289Y0269741D01*
X0275132Y0269761D01*
X0274976Y0269785D01*
X0274820Y0269813D01*
X0274665Y0269844D01*
X0274510Y0269880D01*
X0274357Y0269919D01*
X0274205Y0269962D01*
X0274054Y0270009D01*
X0273904Y0270060D01*
X0273755Y0270115D01*
X0273608Y0270173D01*
X0273462Y0270235D01*
X0273318Y0270300D01*
X0273176Y0270370D01*
X0273035Y0270442D01*
X0272896Y0270519D01*
X0272760Y0270598D01*
X0272625Y0270682D01*
X0272492Y0270768D01*
X0272362Y0270858D01*
X0272234Y0270951D01*
X0272108Y0271047D01*
X0271985Y0271147D01*
X0271864Y0271249D01*
X0271746Y0271354D01*
X0271631Y0271463D01*
X0271518Y0271574D01*
X0271408Y0271688D01*
X0271301Y0271805D01*
X0271197Y0271924D01*
X0271096Y0272046D01*
X0270999Y0272171D01*
X0270904Y0272298D01*
X0270813Y0272427D01*
X0270724Y0272558D01*
X0270640Y0272692D01*
X0270558Y0272828D01*
X0270480Y0272965D01*
X0270406Y0273105D01*
X0270335Y0273247D01*
X0270267Y0273390D01*
X0270203Y0273535D01*
X0270143Y0273681D01*
X0270087Y0273829D01*
X0270034Y0273978D01*
X0269985Y0274129D01*
X0269940Y0274281D01*
X0269899Y0274434D01*
X0269861Y0274587D01*
X0269828Y0274742D01*
X0269798Y0274898D01*
X0269772Y0275054D01*
X0269751Y0275211D01*
X0269733Y0275368D01*
X0269719Y0275526D01*
X0269709Y0275684D01*
X0269703Y0275842D01*
X0269701Y0276000D01*
M02*
