%
M48
M72
T01C0.02400
T02C0.03200
T03C0.04000
T04C0.08661
T05C0.12598
%
T01
X123500Y61000
X131000Y61000
X136000Y61000
X166000Y58500
X173500Y58500
X171000Y98500
X171000Y106000
X183500Y126000
X148500Y118500
X148500Y111000
X141000Y111000
X141000Y118500
X141000Y126000
X141000Y146000
X118500Y143500
X118500Y136000
X118500Y128500
X141000Y103500
X121000Y171000
X121000Y181000
X121000Y201000
X121000Y211000
X121000Y231000
X121000Y241000
X118500Y263500
X126000Y263500
X126000Y273500
X151000Y263500
X158500Y263500
X166000Y263500
X176000Y263500
X166000Y241000
X148500Y238500
X146000Y208500
X141000Y178500
X203500Y186000
X211000Y193500
X223500Y178500
X228500Y171000
X221000Y153500
X231000Y128500
X243500Y126000
X263500Y118500
X278500Y133500
X251000Y151000
X281000Y168500
X236000Y216000
X228500Y226000
X218500Y213500
X221000Y263500
X213500Y263500
X261000Y263500
X268500Y263500
X268500Y256000
X268500Y248500
X276000Y248500
X276000Y256000
X276000Y241000
X276000Y233500
X276000Y226000
X241000Y71000
T02
X251000Y246000
X251000Y256000
T03
X21000Y111000
X21000Y131000
X21000Y161000
X21000Y191000
X21000Y221000
X21000Y251000
X51000Y251000
X51000Y221000
X51000Y191000
X51000Y161000
X91000Y161000
X101000Y161000
X101000Y191000
X91000Y191000
X91000Y221000
X101000Y221000
X101000Y251000
X91000Y251000
X188200Y254900
X188200Y237100
X213800Y237100
X213800Y254900
X126000Y111000
X126000Y71000
X266000Y61000
X276000Y61000
X276000Y71000
X276000Y81000
X266000Y81000
X266000Y71000
X266000Y91000
X266000Y101000
X276000Y101000
X276000Y91000
T04
X271000Y16000
X246000Y16000
X216000Y16000
X186000Y16000
X101000Y16000
X81000Y16000
X61000Y16000
X41000Y16000
X21000Y16000
X21000Y46000
T05
X146000Y16000
X146000Y276000
X16000Y276000
X276000Y276000
M30
