G75*
%MOIN*%
%OFA0B0*%
%FSLAX25Y25*%
%IPPOS*%
%LPD*%
%AMOC8*
5,1,8,0,0,1.08239X$1,22.5*
%
%ADD10C,0.00000*%
%ADD11C,0.00400*%
%ADD12C,0.00300*%
%ADD13C,0.00800*%
%ADD14R,0.03000X0.03400*%
%ADD15C,0.00600*%
%ADD16C,0.00500*%
%ADD17C,0.01000*%
%ADD18R,0.11811X0.11811*%
D10*
X0001000Y0001000D02*
X0291000Y0001000D01*
X0291000Y0291000D01*
X0001000Y0291000D01*
X0001000Y0001000D01*
X0139701Y0016000D02*
X0139703Y0016158D01*
X0139709Y0016316D01*
X0139719Y0016474D01*
X0139733Y0016632D01*
X0139751Y0016789D01*
X0139772Y0016946D01*
X0139798Y0017102D01*
X0139828Y0017258D01*
X0139861Y0017413D01*
X0139899Y0017566D01*
X0139940Y0017719D01*
X0139985Y0017871D01*
X0140034Y0018022D01*
X0140087Y0018171D01*
X0140143Y0018319D01*
X0140203Y0018465D01*
X0140267Y0018610D01*
X0140335Y0018753D01*
X0140406Y0018895D01*
X0140480Y0019035D01*
X0140558Y0019172D01*
X0140640Y0019308D01*
X0140724Y0019442D01*
X0140813Y0019573D01*
X0140904Y0019702D01*
X0140999Y0019829D01*
X0141096Y0019954D01*
X0141197Y0020076D01*
X0141301Y0020195D01*
X0141408Y0020312D01*
X0141518Y0020426D01*
X0141631Y0020537D01*
X0141746Y0020646D01*
X0141864Y0020751D01*
X0141985Y0020853D01*
X0142108Y0020953D01*
X0142234Y0021049D01*
X0142362Y0021142D01*
X0142492Y0021232D01*
X0142625Y0021318D01*
X0142760Y0021402D01*
X0142896Y0021481D01*
X0143035Y0021558D01*
X0143176Y0021630D01*
X0143318Y0021700D01*
X0143462Y0021765D01*
X0143608Y0021827D01*
X0143755Y0021885D01*
X0143904Y0021940D01*
X0144054Y0021991D01*
X0144205Y0022038D01*
X0144357Y0022081D01*
X0144510Y0022120D01*
X0144665Y0022156D01*
X0144820Y0022187D01*
X0144976Y0022215D01*
X0145132Y0022239D01*
X0145289Y0022259D01*
X0145447Y0022275D01*
X0145604Y0022287D01*
X0145763Y0022295D01*
X0145921Y0022299D01*
X0146079Y0022299D01*
X0146237Y0022295D01*
X0146396Y0022287D01*
X0146553Y0022275D01*
X0146711Y0022259D01*
X0146868Y0022239D01*
X0147024Y0022215D01*
X0147180Y0022187D01*
X0147335Y0022156D01*
X0147490Y0022120D01*
X0147643Y0022081D01*
X0147795Y0022038D01*
X0147946Y0021991D01*
X0148096Y0021940D01*
X0148245Y0021885D01*
X0148392Y0021827D01*
X0148538Y0021765D01*
X0148682Y0021700D01*
X0148824Y0021630D01*
X0148965Y0021558D01*
X0149104Y0021481D01*
X0149240Y0021402D01*
X0149375Y0021318D01*
X0149508Y0021232D01*
X0149638Y0021142D01*
X0149766Y0021049D01*
X0149892Y0020953D01*
X0150015Y0020853D01*
X0150136Y0020751D01*
X0150254Y0020646D01*
X0150369Y0020537D01*
X0150482Y0020426D01*
X0150592Y0020312D01*
X0150699Y0020195D01*
X0150803Y0020076D01*
X0150904Y0019954D01*
X0151001Y0019829D01*
X0151096Y0019702D01*
X0151187Y0019573D01*
X0151276Y0019442D01*
X0151360Y0019308D01*
X0151442Y0019172D01*
X0151520Y0019035D01*
X0151594Y0018895D01*
X0151665Y0018753D01*
X0151733Y0018610D01*
X0151797Y0018465D01*
X0151857Y0018319D01*
X0151913Y0018171D01*
X0151966Y0018022D01*
X0152015Y0017871D01*
X0152060Y0017719D01*
X0152101Y0017566D01*
X0152139Y0017413D01*
X0152172Y0017258D01*
X0152202Y0017102D01*
X0152228Y0016946D01*
X0152249Y0016789D01*
X0152267Y0016632D01*
X0152281Y0016474D01*
X0152291Y0016316D01*
X0152297Y0016158D01*
X0152299Y0016000D01*
X0152297Y0015842D01*
X0152291Y0015684D01*
X0152281Y0015526D01*
X0152267Y0015368D01*
X0152249Y0015211D01*
X0152228Y0015054D01*
X0152202Y0014898D01*
X0152172Y0014742D01*
X0152139Y0014587D01*
X0152101Y0014434D01*
X0152060Y0014281D01*
X0152015Y0014129D01*
X0151966Y0013978D01*
X0151913Y0013829D01*
X0151857Y0013681D01*
X0151797Y0013535D01*
X0151733Y0013390D01*
X0151665Y0013247D01*
X0151594Y0013105D01*
X0151520Y0012965D01*
X0151442Y0012828D01*
X0151360Y0012692D01*
X0151276Y0012558D01*
X0151187Y0012427D01*
X0151096Y0012298D01*
X0151001Y0012171D01*
X0150904Y0012046D01*
X0150803Y0011924D01*
X0150699Y0011805D01*
X0150592Y0011688D01*
X0150482Y0011574D01*
X0150369Y0011463D01*
X0150254Y0011354D01*
X0150136Y0011249D01*
X0150015Y0011147D01*
X0149892Y0011047D01*
X0149766Y0010951D01*
X0149638Y0010858D01*
X0149508Y0010768D01*
X0149375Y0010682D01*
X0149240Y0010598D01*
X0149104Y0010519D01*
X0148965Y0010442D01*
X0148824Y0010370D01*
X0148682Y0010300D01*
X0148538Y0010235D01*
X0148392Y0010173D01*
X0148245Y0010115D01*
X0148096Y0010060D01*
X0147946Y0010009D01*
X0147795Y0009962D01*
X0147643Y0009919D01*
X0147490Y0009880D01*
X0147335Y0009844D01*
X0147180Y0009813D01*
X0147024Y0009785D01*
X0146868Y0009761D01*
X0146711Y0009741D01*
X0146553Y0009725D01*
X0146396Y0009713D01*
X0146237Y0009705D01*
X0146079Y0009701D01*
X0145921Y0009701D01*
X0145763Y0009705D01*
X0145604Y0009713D01*
X0145447Y0009725D01*
X0145289Y0009741D01*
X0145132Y0009761D01*
X0144976Y0009785D01*
X0144820Y0009813D01*
X0144665Y0009844D01*
X0144510Y0009880D01*
X0144357Y0009919D01*
X0144205Y0009962D01*
X0144054Y0010009D01*
X0143904Y0010060D01*
X0143755Y0010115D01*
X0143608Y0010173D01*
X0143462Y0010235D01*
X0143318Y0010300D01*
X0143176Y0010370D01*
X0143035Y0010442D01*
X0142896Y0010519D01*
X0142760Y0010598D01*
X0142625Y0010682D01*
X0142492Y0010768D01*
X0142362Y0010858D01*
X0142234Y0010951D01*
X0142108Y0011047D01*
X0141985Y0011147D01*
X0141864Y0011249D01*
X0141746Y0011354D01*
X0141631Y0011463D01*
X0141518Y0011574D01*
X0141408Y0011688D01*
X0141301Y0011805D01*
X0141197Y0011924D01*
X0141096Y0012046D01*
X0140999Y0012171D01*
X0140904Y0012298D01*
X0140813Y0012427D01*
X0140724Y0012558D01*
X0140640Y0012692D01*
X0140558Y0012828D01*
X0140480Y0012965D01*
X0140406Y0013105D01*
X0140335Y0013247D01*
X0140267Y0013390D01*
X0140203Y0013535D01*
X0140143Y0013681D01*
X0140087Y0013829D01*
X0140034Y0013978D01*
X0139985Y0014129D01*
X0139940Y0014281D01*
X0139899Y0014434D01*
X0139861Y0014587D01*
X0139828Y0014742D01*
X0139798Y0014898D01*
X0139772Y0015054D01*
X0139751Y0015211D01*
X0139733Y0015368D01*
X0139719Y0015526D01*
X0139709Y0015684D01*
X0139703Y0015842D01*
X0139701Y0016000D01*
X0139701Y0276000D02*
X0139703Y0276158D01*
X0139709Y0276316D01*
X0139719Y0276474D01*
X0139733Y0276632D01*
X0139751Y0276789D01*
X0139772Y0276946D01*
X0139798Y0277102D01*
X0139828Y0277258D01*
X0139861Y0277413D01*
X0139899Y0277566D01*
X0139940Y0277719D01*
X0139985Y0277871D01*
X0140034Y0278022D01*
X0140087Y0278171D01*
X0140143Y0278319D01*
X0140203Y0278465D01*
X0140267Y0278610D01*
X0140335Y0278753D01*
X0140406Y0278895D01*
X0140480Y0279035D01*
X0140558Y0279172D01*
X0140640Y0279308D01*
X0140724Y0279442D01*
X0140813Y0279573D01*
X0140904Y0279702D01*
X0140999Y0279829D01*
X0141096Y0279954D01*
X0141197Y0280076D01*
X0141301Y0280195D01*
X0141408Y0280312D01*
X0141518Y0280426D01*
X0141631Y0280537D01*
X0141746Y0280646D01*
X0141864Y0280751D01*
X0141985Y0280853D01*
X0142108Y0280953D01*
X0142234Y0281049D01*
X0142362Y0281142D01*
X0142492Y0281232D01*
X0142625Y0281318D01*
X0142760Y0281402D01*
X0142896Y0281481D01*
X0143035Y0281558D01*
X0143176Y0281630D01*
X0143318Y0281700D01*
X0143462Y0281765D01*
X0143608Y0281827D01*
X0143755Y0281885D01*
X0143904Y0281940D01*
X0144054Y0281991D01*
X0144205Y0282038D01*
X0144357Y0282081D01*
X0144510Y0282120D01*
X0144665Y0282156D01*
X0144820Y0282187D01*
X0144976Y0282215D01*
X0145132Y0282239D01*
X0145289Y0282259D01*
X0145447Y0282275D01*
X0145604Y0282287D01*
X0145763Y0282295D01*
X0145921Y0282299D01*
X0146079Y0282299D01*
X0146237Y0282295D01*
X0146396Y0282287D01*
X0146553Y0282275D01*
X0146711Y0282259D01*
X0146868Y0282239D01*
X0147024Y0282215D01*
X0147180Y0282187D01*
X0147335Y0282156D01*
X0147490Y0282120D01*
X0147643Y0282081D01*
X0147795Y0282038D01*
X0147946Y0281991D01*
X0148096Y0281940D01*
X0148245Y0281885D01*
X0148392Y0281827D01*
X0148538Y0281765D01*
X0148682Y0281700D01*
X0148824Y0281630D01*
X0148965Y0281558D01*
X0149104Y0281481D01*
X0149240Y0281402D01*
X0149375Y0281318D01*
X0149508Y0281232D01*
X0149638Y0281142D01*
X0149766Y0281049D01*
X0149892Y0280953D01*
X0150015Y0280853D01*
X0150136Y0280751D01*
X0150254Y0280646D01*
X0150369Y0280537D01*
X0150482Y0280426D01*
X0150592Y0280312D01*
X0150699Y0280195D01*
X0150803Y0280076D01*
X0150904Y0279954D01*
X0151001Y0279829D01*
X0151096Y0279702D01*
X0151187Y0279573D01*
X0151276Y0279442D01*
X0151360Y0279308D01*
X0151442Y0279172D01*
X0151520Y0279035D01*
X0151594Y0278895D01*
X0151665Y0278753D01*
X0151733Y0278610D01*
X0151797Y0278465D01*
X0151857Y0278319D01*
X0151913Y0278171D01*
X0151966Y0278022D01*
X0152015Y0277871D01*
X0152060Y0277719D01*
X0152101Y0277566D01*
X0152139Y0277413D01*
X0152172Y0277258D01*
X0152202Y0277102D01*
X0152228Y0276946D01*
X0152249Y0276789D01*
X0152267Y0276632D01*
X0152281Y0276474D01*
X0152291Y0276316D01*
X0152297Y0276158D01*
X0152299Y0276000D01*
X0152297Y0275842D01*
X0152291Y0275684D01*
X0152281Y0275526D01*
X0152267Y0275368D01*
X0152249Y0275211D01*
X0152228Y0275054D01*
X0152202Y0274898D01*
X0152172Y0274742D01*
X0152139Y0274587D01*
X0152101Y0274434D01*
X0152060Y0274281D01*
X0152015Y0274129D01*
X0151966Y0273978D01*
X0151913Y0273829D01*
X0151857Y0273681D01*
X0151797Y0273535D01*
X0151733Y0273390D01*
X0151665Y0273247D01*
X0151594Y0273105D01*
X0151520Y0272965D01*
X0151442Y0272828D01*
X0151360Y0272692D01*
X0151276Y0272558D01*
X0151187Y0272427D01*
X0151096Y0272298D01*
X0151001Y0272171D01*
X0150904Y0272046D01*
X0150803Y0271924D01*
X0150699Y0271805D01*
X0150592Y0271688D01*
X0150482Y0271574D01*
X0150369Y0271463D01*
X0150254Y0271354D01*
X0150136Y0271249D01*
X0150015Y0271147D01*
X0149892Y0271047D01*
X0149766Y0270951D01*
X0149638Y0270858D01*
X0149508Y0270768D01*
X0149375Y0270682D01*
X0149240Y0270598D01*
X0149104Y0270519D01*
X0148965Y0270442D01*
X0148824Y0270370D01*
X0148682Y0270300D01*
X0148538Y0270235D01*
X0148392Y0270173D01*
X0148245Y0270115D01*
X0148096Y0270060D01*
X0147946Y0270009D01*
X0147795Y0269962D01*
X0147643Y0269919D01*
X0147490Y0269880D01*
X0147335Y0269844D01*
X0147180Y0269813D01*
X0147024Y0269785D01*
X0146868Y0269761D01*
X0146711Y0269741D01*
X0146553Y0269725D01*
X0146396Y0269713D01*
X0146237Y0269705D01*
X0146079Y0269701D01*
X0145921Y0269701D01*
X0145763Y0269705D01*
X0145604Y0269713D01*
X0145447Y0269725D01*
X0145289Y0269741D01*
X0145132Y0269761D01*
X0144976Y0269785D01*
X0144820Y0269813D01*
X0144665Y0269844D01*
X0144510Y0269880D01*
X0144357Y0269919D01*
X0144205Y0269962D01*
X0144054Y0270009D01*
X0143904Y0270060D01*
X0143755Y0270115D01*
X0143608Y0270173D01*
X0143462Y0270235D01*
X0143318Y0270300D01*
X0143176Y0270370D01*
X0143035Y0270442D01*
X0142896Y0270519D01*
X0142760Y0270598D01*
X0142625Y0270682D01*
X0142492Y0270768D01*
X0142362Y0270858D01*
X0142234Y0270951D01*
X0142108Y0271047D01*
X0141985Y0271147D01*
X0141864Y0271249D01*
X0141746Y0271354D01*
X0141631Y0271463D01*
X0141518Y0271574D01*
X0141408Y0271688D01*
X0141301Y0271805D01*
X0141197Y0271924D01*
X0141096Y0272046D01*
X0140999Y0272171D01*
X0140904Y0272298D01*
X0140813Y0272427D01*
X0140724Y0272558D01*
X0140640Y0272692D01*
X0140558Y0272828D01*
X0140480Y0272965D01*
X0140406Y0273105D01*
X0140335Y0273247D01*
X0140267Y0273390D01*
X0140203Y0273535D01*
X0140143Y0273681D01*
X0140087Y0273829D01*
X0140034Y0273978D01*
X0139985Y0274129D01*
X0139940Y0274281D01*
X0139899Y0274434D01*
X0139861Y0274587D01*
X0139828Y0274742D01*
X0139798Y0274898D01*
X0139772Y0275054D01*
X0139751Y0275211D01*
X0139733Y0275368D01*
X0139719Y0275526D01*
X0139709Y0275684D01*
X0139703Y0275842D01*
X0139701Y0276000D01*
X0009701Y0276000D02*
X0009703Y0276158D01*
X0009709Y0276316D01*
X0009719Y0276474D01*
X0009733Y0276632D01*
X0009751Y0276789D01*
X0009772Y0276946D01*
X0009798Y0277102D01*
X0009828Y0277258D01*
X0009861Y0277413D01*
X0009899Y0277566D01*
X0009940Y0277719D01*
X0009985Y0277871D01*
X0010034Y0278022D01*
X0010087Y0278171D01*
X0010143Y0278319D01*
X0010203Y0278465D01*
X0010267Y0278610D01*
X0010335Y0278753D01*
X0010406Y0278895D01*
X0010480Y0279035D01*
X0010558Y0279172D01*
X0010640Y0279308D01*
X0010724Y0279442D01*
X0010813Y0279573D01*
X0010904Y0279702D01*
X0010999Y0279829D01*
X0011096Y0279954D01*
X0011197Y0280076D01*
X0011301Y0280195D01*
X0011408Y0280312D01*
X0011518Y0280426D01*
X0011631Y0280537D01*
X0011746Y0280646D01*
X0011864Y0280751D01*
X0011985Y0280853D01*
X0012108Y0280953D01*
X0012234Y0281049D01*
X0012362Y0281142D01*
X0012492Y0281232D01*
X0012625Y0281318D01*
X0012760Y0281402D01*
X0012896Y0281481D01*
X0013035Y0281558D01*
X0013176Y0281630D01*
X0013318Y0281700D01*
X0013462Y0281765D01*
X0013608Y0281827D01*
X0013755Y0281885D01*
X0013904Y0281940D01*
X0014054Y0281991D01*
X0014205Y0282038D01*
X0014357Y0282081D01*
X0014510Y0282120D01*
X0014665Y0282156D01*
X0014820Y0282187D01*
X0014976Y0282215D01*
X0015132Y0282239D01*
X0015289Y0282259D01*
X0015447Y0282275D01*
X0015604Y0282287D01*
X0015763Y0282295D01*
X0015921Y0282299D01*
X0016079Y0282299D01*
X0016237Y0282295D01*
X0016396Y0282287D01*
X0016553Y0282275D01*
X0016711Y0282259D01*
X0016868Y0282239D01*
X0017024Y0282215D01*
X0017180Y0282187D01*
X0017335Y0282156D01*
X0017490Y0282120D01*
X0017643Y0282081D01*
X0017795Y0282038D01*
X0017946Y0281991D01*
X0018096Y0281940D01*
X0018245Y0281885D01*
X0018392Y0281827D01*
X0018538Y0281765D01*
X0018682Y0281700D01*
X0018824Y0281630D01*
X0018965Y0281558D01*
X0019104Y0281481D01*
X0019240Y0281402D01*
X0019375Y0281318D01*
X0019508Y0281232D01*
X0019638Y0281142D01*
X0019766Y0281049D01*
X0019892Y0280953D01*
X0020015Y0280853D01*
X0020136Y0280751D01*
X0020254Y0280646D01*
X0020369Y0280537D01*
X0020482Y0280426D01*
X0020592Y0280312D01*
X0020699Y0280195D01*
X0020803Y0280076D01*
X0020904Y0279954D01*
X0021001Y0279829D01*
X0021096Y0279702D01*
X0021187Y0279573D01*
X0021276Y0279442D01*
X0021360Y0279308D01*
X0021442Y0279172D01*
X0021520Y0279035D01*
X0021594Y0278895D01*
X0021665Y0278753D01*
X0021733Y0278610D01*
X0021797Y0278465D01*
X0021857Y0278319D01*
X0021913Y0278171D01*
X0021966Y0278022D01*
X0022015Y0277871D01*
X0022060Y0277719D01*
X0022101Y0277566D01*
X0022139Y0277413D01*
X0022172Y0277258D01*
X0022202Y0277102D01*
X0022228Y0276946D01*
X0022249Y0276789D01*
X0022267Y0276632D01*
X0022281Y0276474D01*
X0022291Y0276316D01*
X0022297Y0276158D01*
X0022299Y0276000D01*
X0022297Y0275842D01*
X0022291Y0275684D01*
X0022281Y0275526D01*
X0022267Y0275368D01*
X0022249Y0275211D01*
X0022228Y0275054D01*
X0022202Y0274898D01*
X0022172Y0274742D01*
X0022139Y0274587D01*
X0022101Y0274434D01*
X0022060Y0274281D01*
X0022015Y0274129D01*
X0021966Y0273978D01*
X0021913Y0273829D01*
X0021857Y0273681D01*
X0021797Y0273535D01*
X0021733Y0273390D01*
X0021665Y0273247D01*
X0021594Y0273105D01*
X0021520Y0272965D01*
X0021442Y0272828D01*
X0021360Y0272692D01*
X0021276Y0272558D01*
X0021187Y0272427D01*
X0021096Y0272298D01*
X0021001Y0272171D01*
X0020904Y0272046D01*
X0020803Y0271924D01*
X0020699Y0271805D01*
X0020592Y0271688D01*
X0020482Y0271574D01*
X0020369Y0271463D01*
X0020254Y0271354D01*
X0020136Y0271249D01*
X0020015Y0271147D01*
X0019892Y0271047D01*
X0019766Y0270951D01*
X0019638Y0270858D01*
X0019508Y0270768D01*
X0019375Y0270682D01*
X0019240Y0270598D01*
X0019104Y0270519D01*
X0018965Y0270442D01*
X0018824Y0270370D01*
X0018682Y0270300D01*
X0018538Y0270235D01*
X0018392Y0270173D01*
X0018245Y0270115D01*
X0018096Y0270060D01*
X0017946Y0270009D01*
X0017795Y0269962D01*
X0017643Y0269919D01*
X0017490Y0269880D01*
X0017335Y0269844D01*
X0017180Y0269813D01*
X0017024Y0269785D01*
X0016868Y0269761D01*
X0016711Y0269741D01*
X0016553Y0269725D01*
X0016396Y0269713D01*
X0016237Y0269705D01*
X0016079Y0269701D01*
X0015921Y0269701D01*
X0015763Y0269705D01*
X0015604Y0269713D01*
X0015447Y0269725D01*
X0015289Y0269741D01*
X0015132Y0269761D01*
X0014976Y0269785D01*
X0014820Y0269813D01*
X0014665Y0269844D01*
X0014510Y0269880D01*
X0014357Y0269919D01*
X0014205Y0269962D01*
X0014054Y0270009D01*
X0013904Y0270060D01*
X0013755Y0270115D01*
X0013608Y0270173D01*
X0013462Y0270235D01*
X0013318Y0270300D01*
X0013176Y0270370D01*
X0013035Y0270442D01*
X0012896Y0270519D01*
X0012760Y0270598D01*
X0012625Y0270682D01*
X0012492Y0270768D01*
X0012362Y0270858D01*
X0012234Y0270951D01*
X0012108Y0271047D01*
X0011985Y0271147D01*
X0011864Y0271249D01*
X0011746Y0271354D01*
X0011631Y0271463D01*
X0011518Y0271574D01*
X0011408Y0271688D01*
X0011301Y0271805D01*
X0011197Y0271924D01*
X0011096Y0272046D01*
X0010999Y0272171D01*
X0010904Y0272298D01*
X0010813Y0272427D01*
X0010724Y0272558D01*
X0010640Y0272692D01*
X0010558Y0272828D01*
X0010480Y0272965D01*
X0010406Y0273105D01*
X0010335Y0273247D01*
X0010267Y0273390D01*
X0010203Y0273535D01*
X0010143Y0273681D01*
X0010087Y0273829D01*
X0010034Y0273978D01*
X0009985Y0274129D01*
X0009940Y0274281D01*
X0009899Y0274434D01*
X0009861Y0274587D01*
X0009828Y0274742D01*
X0009798Y0274898D01*
X0009772Y0275054D01*
X0009751Y0275211D01*
X0009733Y0275368D01*
X0009719Y0275526D01*
X0009709Y0275684D01*
X0009703Y0275842D01*
X0009701Y0276000D01*
X0269701Y0276000D02*
X0269703Y0276158D01*
X0269709Y0276316D01*
X0269719Y0276474D01*
X0269733Y0276632D01*
X0269751Y0276789D01*
X0269772Y0276946D01*
X0269798Y0277102D01*
X0269828Y0277258D01*
X0269861Y0277413D01*
X0269899Y0277566D01*
X0269940Y0277719D01*
X0269985Y0277871D01*
X0270034Y0278022D01*
X0270087Y0278171D01*
X0270143Y0278319D01*
X0270203Y0278465D01*
X0270267Y0278610D01*
X0270335Y0278753D01*
X0270406Y0278895D01*
X0270480Y0279035D01*
X0270558Y0279172D01*
X0270640Y0279308D01*
X0270724Y0279442D01*
X0270813Y0279573D01*
X0270904Y0279702D01*
X0270999Y0279829D01*
X0271096Y0279954D01*
X0271197Y0280076D01*
X0271301Y0280195D01*
X0271408Y0280312D01*
X0271518Y0280426D01*
X0271631Y0280537D01*
X0271746Y0280646D01*
X0271864Y0280751D01*
X0271985Y0280853D01*
X0272108Y0280953D01*
X0272234Y0281049D01*
X0272362Y0281142D01*
X0272492Y0281232D01*
X0272625Y0281318D01*
X0272760Y0281402D01*
X0272896Y0281481D01*
X0273035Y0281558D01*
X0273176Y0281630D01*
X0273318Y0281700D01*
X0273462Y0281765D01*
X0273608Y0281827D01*
X0273755Y0281885D01*
X0273904Y0281940D01*
X0274054Y0281991D01*
X0274205Y0282038D01*
X0274357Y0282081D01*
X0274510Y0282120D01*
X0274665Y0282156D01*
X0274820Y0282187D01*
X0274976Y0282215D01*
X0275132Y0282239D01*
X0275289Y0282259D01*
X0275447Y0282275D01*
X0275604Y0282287D01*
X0275763Y0282295D01*
X0275921Y0282299D01*
X0276079Y0282299D01*
X0276237Y0282295D01*
X0276396Y0282287D01*
X0276553Y0282275D01*
X0276711Y0282259D01*
X0276868Y0282239D01*
X0277024Y0282215D01*
X0277180Y0282187D01*
X0277335Y0282156D01*
X0277490Y0282120D01*
X0277643Y0282081D01*
X0277795Y0282038D01*
X0277946Y0281991D01*
X0278096Y0281940D01*
X0278245Y0281885D01*
X0278392Y0281827D01*
X0278538Y0281765D01*
X0278682Y0281700D01*
X0278824Y0281630D01*
X0278965Y0281558D01*
X0279104Y0281481D01*
X0279240Y0281402D01*
X0279375Y0281318D01*
X0279508Y0281232D01*
X0279638Y0281142D01*
X0279766Y0281049D01*
X0279892Y0280953D01*
X0280015Y0280853D01*
X0280136Y0280751D01*
X0280254Y0280646D01*
X0280369Y0280537D01*
X0280482Y0280426D01*
X0280592Y0280312D01*
X0280699Y0280195D01*
X0280803Y0280076D01*
X0280904Y0279954D01*
X0281001Y0279829D01*
X0281096Y0279702D01*
X0281187Y0279573D01*
X0281276Y0279442D01*
X0281360Y0279308D01*
X0281442Y0279172D01*
X0281520Y0279035D01*
X0281594Y0278895D01*
X0281665Y0278753D01*
X0281733Y0278610D01*
X0281797Y0278465D01*
X0281857Y0278319D01*
X0281913Y0278171D01*
X0281966Y0278022D01*
X0282015Y0277871D01*
X0282060Y0277719D01*
X0282101Y0277566D01*
X0282139Y0277413D01*
X0282172Y0277258D01*
X0282202Y0277102D01*
X0282228Y0276946D01*
X0282249Y0276789D01*
X0282267Y0276632D01*
X0282281Y0276474D01*
X0282291Y0276316D01*
X0282297Y0276158D01*
X0282299Y0276000D01*
X0282297Y0275842D01*
X0282291Y0275684D01*
X0282281Y0275526D01*
X0282267Y0275368D01*
X0282249Y0275211D01*
X0282228Y0275054D01*
X0282202Y0274898D01*
X0282172Y0274742D01*
X0282139Y0274587D01*
X0282101Y0274434D01*
X0282060Y0274281D01*
X0282015Y0274129D01*
X0281966Y0273978D01*
X0281913Y0273829D01*
X0281857Y0273681D01*
X0281797Y0273535D01*
X0281733Y0273390D01*
X0281665Y0273247D01*
X0281594Y0273105D01*
X0281520Y0272965D01*
X0281442Y0272828D01*
X0281360Y0272692D01*
X0281276Y0272558D01*
X0281187Y0272427D01*
X0281096Y0272298D01*
X0281001Y0272171D01*
X0280904Y0272046D01*
X0280803Y0271924D01*
X0280699Y0271805D01*
X0280592Y0271688D01*
X0280482Y0271574D01*
X0280369Y0271463D01*
X0280254Y0271354D01*
X0280136Y0271249D01*
X0280015Y0271147D01*
X0279892Y0271047D01*
X0279766Y0270951D01*
X0279638Y0270858D01*
X0279508Y0270768D01*
X0279375Y0270682D01*
X0279240Y0270598D01*
X0279104Y0270519D01*
X0278965Y0270442D01*
X0278824Y0270370D01*
X0278682Y0270300D01*
X0278538Y0270235D01*
X0278392Y0270173D01*
X0278245Y0270115D01*
X0278096Y0270060D01*
X0277946Y0270009D01*
X0277795Y0269962D01*
X0277643Y0269919D01*
X0277490Y0269880D01*
X0277335Y0269844D01*
X0277180Y0269813D01*
X0277024Y0269785D01*
X0276868Y0269761D01*
X0276711Y0269741D01*
X0276553Y0269725D01*
X0276396Y0269713D01*
X0276237Y0269705D01*
X0276079Y0269701D01*
X0275921Y0269701D01*
X0275763Y0269705D01*
X0275604Y0269713D01*
X0275447Y0269725D01*
X0275289Y0269741D01*
X0275132Y0269761D01*
X0274976Y0269785D01*
X0274820Y0269813D01*
X0274665Y0269844D01*
X0274510Y0269880D01*
X0274357Y0269919D01*
X0274205Y0269962D01*
X0274054Y0270009D01*
X0273904Y0270060D01*
X0273755Y0270115D01*
X0273608Y0270173D01*
X0273462Y0270235D01*
X0273318Y0270300D01*
X0273176Y0270370D01*
X0273035Y0270442D01*
X0272896Y0270519D01*
X0272760Y0270598D01*
X0272625Y0270682D01*
X0272492Y0270768D01*
X0272362Y0270858D01*
X0272234Y0270951D01*
X0272108Y0271047D01*
X0271985Y0271147D01*
X0271864Y0271249D01*
X0271746Y0271354D01*
X0271631Y0271463D01*
X0271518Y0271574D01*
X0271408Y0271688D01*
X0271301Y0271805D01*
X0271197Y0271924D01*
X0271096Y0272046D01*
X0270999Y0272171D01*
X0270904Y0272298D01*
X0270813Y0272427D01*
X0270724Y0272558D01*
X0270640Y0272692D01*
X0270558Y0272828D01*
X0270480Y0272965D01*
X0270406Y0273105D01*
X0270335Y0273247D01*
X0270267Y0273390D01*
X0270203Y0273535D01*
X0270143Y0273681D01*
X0270087Y0273829D01*
X0270034Y0273978D01*
X0269985Y0274129D01*
X0269940Y0274281D01*
X0269899Y0274434D01*
X0269861Y0274587D01*
X0269828Y0274742D01*
X0269798Y0274898D01*
X0269772Y0275054D01*
X0269751Y0275211D01*
X0269733Y0275368D01*
X0269719Y0275526D01*
X0269709Y0275684D01*
X0269703Y0275842D01*
X0269701Y0276000D01*
D11*
X0246843Y0276200D02*
X0245108Y0276200D01*
X0245976Y0276200D02*
X0245976Y0279670D01*
X0245108Y0279670D01*
X0245976Y0281404D02*
X0245976Y0282272D01*
X0243422Y0281404D02*
X0239952Y0281404D01*
X0239952Y0276200D01*
X0238249Y0276200D02*
X0236514Y0276200D01*
X0237382Y0276200D02*
X0237382Y0279670D01*
X0236514Y0279670D01*
X0237382Y0281404D02*
X0237382Y0282272D01*
X0234828Y0281404D02*
X0234828Y0276200D01*
X0233093Y0277935D01*
X0231358Y0276200D01*
X0231358Y0281404D01*
X0224515Y0280537D02*
X0224515Y0277067D01*
X0223647Y0276200D01*
X0221913Y0276200D01*
X0221045Y0277067D01*
X0224515Y0280537D01*
X0223647Y0281404D01*
X0221913Y0281404D01*
X0221045Y0280537D01*
X0221045Y0277067D01*
X0219334Y0277067D02*
X0219334Y0276200D01*
X0218467Y0276200D01*
X0218467Y0277067D01*
X0219334Y0277067D01*
X0216780Y0276200D02*
X0213311Y0276200D01*
X0216780Y0279670D01*
X0216780Y0280537D01*
X0215913Y0281404D01*
X0214178Y0281404D01*
X0213311Y0280537D01*
X0206459Y0279670D02*
X0205592Y0279670D01*
X0203857Y0277935D01*
X0202170Y0277935D02*
X0198701Y0277935D01*
X0198701Y0278802D02*
X0199568Y0279670D01*
X0201303Y0279670D01*
X0202170Y0278802D01*
X0202170Y0277935D01*
X0201303Y0276200D02*
X0199568Y0276200D01*
X0198701Y0277067D01*
X0198701Y0278802D01*
X0197014Y0278802D02*
X0197014Y0276200D01*
X0197014Y0278802D02*
X0196147Y0279670D01*
X0194412Y0279670D01*
X0193544Y0278802D01*
X0191858Y0279670D02*
X0189255Y0279670D01*
X0188388Y0278802D01*
X0188388Y0277067D01*
X0189255Y0276200D01*
X0191858Y0276200D01*
X0193544Y0276200D02*
X0193544Y0281404D01*
X0186685Y0279670D02*
X0184950Y0279670D01*
X0185818Y0280537D02*
X0185818Y0277067D01*
X0186685Y0276200D01*
X0183248Y0276200D02*
X0181513Y0276200D01*
X0182380Y0276200D02*
X0182380Y0279670D01*
X0181513Y0279670D01*
X0179826Y0279670D02*
X0179826Y0277067D01*
X0178959Y0276200D01*
X0178091Y0277067D01*
X0177224Y0276200D01*
X0176356Y0277067D01*
X0176356Y0279670D01*
X0174670Y0280537D02*
X0173802Y0281404D01*
X0172067Y0281404D01*
X0171200Y0280537D01*
X0171200Y0279670D01*
X0172067Y0278802D01*
X0173802Y0278802D01*
X0174670Y0277935D01*
X0174670Y0277067D01*
X0173802Y0276200D01*
X0172067Y0276200D01*
X0171200Y0277067D01*
X0182380Y0281404D02*
X0182380Y0282272D01*
X0203857Y0279670D02*
X0203857Y0276200D01*
X0223888Y0241804D02*
X0226190Y0241804D01*
X0226957Y0241037D01*
X0226957Y0239502D01*
X0226190Y0238735D01*
X0223888Y0238735D01*
X0225423Y0238735D02*
X0226957Y0237200D01*
X0228492Y0237200D02*
X0231561Y0237200D01*
X0230027Y0237200D02*
X0230027Y0241804D01*
X0228492Y0240269D01*
X0233096Y0240269D02*
X0234631Y0241804D01*
X0234631Y0237200D01*
X0236165Y0237200D02*
X0233096Y0237200D01*
X0223888Y0237200D02*
X0223888Y0241804D01*
X0204800Y0223665D02*
X0204800Y0220596D01*
X0201731Y0223665D01*
X0200963Y0223665D01*
X0200196Y0222898D01*
X0200196Y0221363D01*
X0200963Y0220596D01*
X0200196Y0217527D02*
X0204800Y0217527D01*
X0204800Y0219061D02*
X0204800Y0215992D01*
X0204800Y0214457D02*
X0203265Y0212923D01*
X0203265Y0213690D02*
X0203265Y0211388D01*
X0204800Y0211388D02*
X0200196Y0211388D01*
X0200196Y0213690D01*
X0200963Y0214457D01*
X0202498Y0214457D01*
X0203265Y0213690D01*
X0201731Y0215992D02*
X0200196Y0217527D01*
X0239952Y0278802D02*
X0241687Y0278802D01*
X0279877Y0199627D02*
X0284481Y0199627D01*
X0284481Y0201161D02*
X0284481Y0198092D01*
X0283714Y0196557D02*
X0282946Y0196557D01*
X0282179Y0195790D01*
X0282179Y0194255D01*
X0281412Y0193488D01*
X0280645Y0193488D01*
X0279877Y0194255D01*
X0279877Y0195790D01*
X0280645Y0196557D01*
X0281412Y0198092D02*
X0279877Y0199627D01*
X0279110Y0195023D02*
X0285248Y0195023D01*
X0284481Y0195790D02*
X0284481Y0194255D01*
X0283714Y0193488D01*
X0283714Y0191954D02*
X0279877Y0191954D01*
X0279877Y0188884D02*
X0283714Y0188884D01*
X0284481Y0189652D01*
X0284481Y0191186D01*
X0283714Y0191954D01*
X0284481Y0195790D02*
X0283714Y0196557D01*
X0223710Y0134804D02*
X0224477Y0134037D01*
X0224477Y0133269D01*
X0223710Y0132502D01*
X0224477Y0131735D01*
X0224477Y0130967D01*
X0223710Y0130200D01*
X0222175Y0130200D01*
X0221408Y0130967D01*
X0219873Y0130200D02*
X0216804Y0130200D01*
X0218339Y0130200D02*
X0218339Y0134804D01*
X0216804Y0133269D01*
X0215269Y0132502D02*
X0214502Y0131735D01*
X0212200Y0131735D01*
X0213735Y0131735D02*
X0215269Y0130200D01*
X0215269Y0132502D02*
X0215269Y0134037D01*
X0214502Y0134804D01*
X0212200Y0134804D01*
X0212200Y0130200D01*
X0206977Y0132502D02*
X0203908Y0132502D01*
X0206210Y0134804D01*
X0206210Y0130200D01*
X0202373Y0130200D02*
X0199304Y0130200D01*
X0200839Y0130200D02*
X0200839Y0134804D01*
X0199304Y0133269D01*
X0197769Y0132502D02*
X0197002Y0131735D01*
X0194700Y0131735D01*
X0196235Y0131735D02*
X0197769Y0130200D01*
X0197769Y0132502D02*
X0197769Y0134037D01*
X0197002Y0134804D01*
X0194700Y0134804D01*
X0194700Y0130200D01*
X0221408Y0134037D02*
X0222175Y0134804D01*
X0223710Y0134804D01*
X0223710Y0132502D02*
X0222942Y0132502D01*
X0215408Y0096804D02*
X0215408Y0092200D01*
X0216942Y0092200D02*
X0213873Y0092200D01*
X0212339Y0092967D02*
X0211571Y0092200D01*
X0210037Y0092200D01*
X0209269Y0092967D01*
X0209269Y0096037D01*
X0210037Y0096804D01*
X0211571Y0096804D01*
X0212339Y0096037D01*
X0213873Y0095269D02*
X0215408Y0096804D01*
X0207735Y0096804D02*
X0206200Y0096804D01*
X0206967Y0096804D02*
X0206967Y0092200D01*
X0206200Y0092200D02*
X0207735Y0092200D01*
X0178165Y0102502D02*
X0175096Y0102502D01*
X0177398Y0104804D01*
X0177398Y0100200D01*
X0173561Y0100967D02*
X0172794Y0100200D01*
X0171259Y0100200D01*
X0170492Y0100967D01*
X0170492Y0104037D01*
X0171259Y0104804D01*
X0172794Y0104804D01*
X0173561Y0104037D01*
X0173398Y0071804D02*
X0171863Y0071804D01*
X0171096Y0071037D01*
X0169561Y0071037D02*
X0168794Y0071804D01*
X0167259Y0071804D01*
X0166492Y0071037D01*
X0166492Y0067967D01*
X0167259Y0067200D01*
X0168794Y0067200D01*
X0169561Y0067967D01*
X0171096Y0067967D02*
X0171863Y0067200D01*
X0173398Y0067200D01*
X0174165Y0067967D01*
X0174165Y0068735D01*
X0173398Y0069502D01*
X0172631Y0069502D01*
X0173398Y0069502D02*
X0174165Y0070269D01*
X0174165Y0071037D01*
X0173398Y0071804D01*
X0118477Y0078502D02*
X0115408Y0078502D01*
X0116942Y0080037D02*
X0116942Y0076967D01*
X0113873Y0076967D02*
X0113106Y0076200D01*
X0111571Y0076200D01*
X0110804Y0076967D01*
X0110804Y0080037D01*
X0111571Y0080804D01*
X0113106Y0080804D01*
X0113873Y0080037D01*
X0109269Y0080037D02*
X0109269Y0076967D01*
X0108502Y0076200D01*
X0106200Y0076200D01*
X0106200Y0080804D01*
X0108502Y0080804D01*
X0109269Y0080037D01*
X0108502Y0101200D02*
X0106200Y0101200D01*
X0106200Y0105804D01*
X0108502Y0105804D01*
X0109269Y0105037D01*
X0109269Y0101967D01*
X0108502Y0101200D01*
X0110804Y0101967D02*
X0111571Y0101200D01*
X0113106Y0101200D01*
X0113873Y0101967D01*
X0115408Y0103502D02*
X0118477Y0103502D01*
X0113873Y0105037D02*
X0113106Y0105804D01*
X0111571Y0105804D01*
X0110804Y0105037D01*
X0110804Y0101967D01*
X0073477Y0100804D02*
X0071942Y0100037D01*
X0070408Y0098502D01*
X0072710Y0098502D01*
X0073477Y0097735D01*
X0073477Y0096967D01*
X0072710Y0096200D01*
X0071175Y0096200D01*
X0070408Y0096967D01*
X0070408Y0098502D01*
X0068873Y0097735D02*
X0068106Y0098502D01*
X0066571Y0098502D01*
X0065804Y0099269D01*
X0065804Y0100037D01*
X0066571Y0100804D01*
X0068106Y0100804D01*
X0068873Y0100037D01*
X0067339Y0101571D02*
X0067339Y0095433D01*
X0068106Y0096200D02*
X0068873Y0096967D01*
X0068873Y0097735D01*
X0068106Y0096200D02*
X0066571Y0096200D01*
X0065804Y0096967D01*
X0064269Y0096967D02*
X0064269Y0100804D01*
X0064269Y0096967D02*
X0063502Y0096200D01*
X0061967Y0096200D01*
X0061200Y0096967D01*
X0061200Y0100804D01*
X0033873Y0121967D02*
X0033106Y0121200D01*
X0031571Y0121200D01*
X0030804Y0121967D01*
X0030804Y0125037D01*
X0031571Y0125804D01*
X0033106Y0125804D01*
X0033873Y0125037D01*
X0029269Y0124269D02*
X0029269Y0121200D01*
X0029269Y0123502D02*
X0026200Y0123502D01*
X0026200Y0124269D02*
X0027735Y0125804D01*
X0029269Y0124269D01*
X0026200Y0124269D02*
X0026200Y0121200D01*
X0074888Y0149467D02*
X0075656Y0148700D01*
X0077190Y0148700D01*
X0077957Y0149467D01*
X0077957Y0153304D01*
X0079492Y0152537D02*
X0079492Y0151769D01*
X0080259Y0151002D01*
X0081794Y0151002D01*
X0082561Y0150235D01*
X0082561Y0149467D01*
X0081794Y0148700D01*
X0080259Y0148700D01*
X0079492Y0149467D01*
X0081027Y0147933D02*
X0081027Y0154071D01*
X0081794Y0153304D02*
X0080259Y0153304D01*
X0079492Y0152537D01*
X0081794Y0153304D02*
X0082561Y0152537D01*
X0084096Y0153304D02*
X0084096Y0151002D01*
X0085631Y0151769D01*
X0086398Y0151769D01*
X0087165Y0151002D01*
X0087165Y0149467D01*
X0086398Y0148700D01*
X0084863Y0148700D01*
X0084096Y0149467D01*
X0084096Y0153304D02*
X0087165Y0153304D01*
X0074888Y0153304D02*
X0074888Y0149467D01*
X0081027Y0177933D02*
X0081027Y0184071D01*
X0081794Y0183304D02*
X0080259Y0183304D01*
X0079492Y0182537D01*
X0079492Y0181769D01*
X0080259Y0181002D01*
X0081794Y0181002D01*
X0082561Y0180235D01*
X0082561Y0179467D01*
X0081794Y0178700D01*
X0080259Y0178700D01*
X0079492Y0179467D01*
X0077957Y0179467D02*
X0077957Y0183304D01*
X0074888Y0183304D02*
X0074888Y0179467D01*
X0075656Y0178700D01*
X0077190Y0178700D01*
X0077957Y0179467D01*
X0081794Y0183304D02*
X0082561Y0182537D01*
X0084096Y0182537D02*
X0084863Y0183304D01*
X0086398Y0183304D01*
X0087165Y0182537D01*
X0087165Y0181769D01*
X0086398Y0181002D01*
X0087165Y0180235D01*
X0087165Y0179467D01*
X0086398Y0178700D01*
X0084863Y0178700D01*
X0084096Y0179467D01*
X0085631Y0181002D02*
X0086398Y0181002D01*
X0106196Y0181002D02*
X0106963Y0181769D01*
X0110033Y0181769D01*
X0110800Y0181002D01*
X0110800Y0179467D01*
X0110033Y0178700D01*
X0106963Y0178700D01*
X0106196Y0179467D01*
X0106196Y0181002D01*
X0106963Y0183304D02*
X0106196Y0184071D01*
X0106196Y0185606D01*
X0106963Y0186373D01*
X0107731Y0186373D01*
X0110800Y0183304D01*
X0110800Y0186373D01*
X0110800Y0181769D02*
X0109265Y0180235D01*
X0119992Y0180804D02*
X0119992Y0176200D01*
X0119992Y0177735D02*
X0122294Y0177735D01*
X0123061Y0178502D01*
X0123061Y0180037D01*
X0122294Y0180804D01*
X0119992Y0180804D01*
X0121527Y0177735D02*
X0123061Y0176200D01*
X0124596Y0176967D02*
X0125363Y0176200D01*
X0126898Y0176200D01*
X0127665Y0176967D01*
X0127665Y0177735D01*
X0126898Y0178502D01*
X0126131Y0178502D01*
X0126898Y0178502D02*
X0127665Y0179269D01*
X0127665Y0180037D01*
X0126898Y0180804D01*
X0125363Y0180804D01*
X0124596Y0180037D01*
X0125992Y0174804D02*
X0128294Y0174804D01*
X0129061Y0174037D01*
X0129061Y0172502D01*
X0128294Y0171735D01*
X0125992Y0171735D01*
X0127527Y0171735D02*
X0129061Y0170200D01*
X0130596Y0170967D02*
X0130596Y0171735D01*
X0131363Y0172502D01*
X0132898Y0172502D01*
X0133665Y0171735D01*
X0133665Y0170967D01*
X0132898Y0170200D01*
X0131363Y0170200D01*
X0130596Y0170967D01*
X0131363Y0172502D02*
X0130596Y0173269D01*
X0130596Y0174037D01*
X0131363Y0174804D01*
X0132898Y0174804D01*
X0133665Y0174037D01*
X0133665Y0173269D01*
X0132898Y0172502D01*
X0125992Y0170200D02*
X0125992Y0174804D01*
X0110800Y0155606D02*
X0106196Y0155606D01*
X0108498Y0153304D01*
X0108498Y0156373D01*
X0106963Y0151769D02*
X0110033Y0151769D01*
X0110800Y0151002D01*
X0110800Y0149467D01*
X0110033Y0148700D01*
X0106963Y0148700D01*
X0106196Y0149467D01*
X0106196Y0151002D01*
X0106963Y0151769D01*
X0109265Y0150235D02*
X0110800Y0151769D01*
X0123992Y0150804D02*
X0123992Y0146200D01*
X0123992Y0147735D02*
X0126294Y0147735D01*
X0127061Y0148502D01*
X0127061Y0150037D01*
X0126294Y0150804D01*
X0123992Y0150804D01*
X0125527Y0147735D02*
X0127061Y0146200D01*
X0128596Y0146200D02*
X0128596Y0146967D01*
X0131665Y0150037D01*
X0131665Y0150804D01*
X0128596Y0150804D01*
X0129061Y0200200D02*
X0127527Y0201735D01*
X0128294Y0201735D02*
X0125992Y0201735D01*
X0125992Y0200200D02*
X0125992Y0204804D01*
X0128294Y0204804D01*
X0129061Y0204037D01*
X0129061Y0202502D01*
X0128294Y0201735D01*
X0130596Y0202502D02*
X0133665Y0202502D01*
X0132898Y0200200D02*
X0132898Y0204804D01*
X0130596Y0202502D01*
X0130596Y0206200D02*
X0133665Y0206200D01*
X0132131Y0206200D02*
X0132131Y0210804D01*
X0130596Y0209269D01*
X0129061Y0208502D02*
X0128294Y0207735D01*
X0125992Y0207735D01*
X0127527Y0207735D02*
X0129061Y0206200D01*
X0129061Y0208502D02*
X0129061Y0210037D01*
X0128294Y0210804D01*
X0125992Y0210804D01*
X0125992Y0206200D01*
X0110800Y0209467D02*
X0110033Y0208700D01*
X0106963Y0208700D01*
X0106196Y0209467D01*
X0106196Y0211002D01*
X0106963Y0211769D01*
X0110033Y0211769D01*
X0110800Y0211002D01*
X0110800Y0209467D01*
X0109265Y0210235D02*
X0110800Y0211769D01*
X0110800Y0213304D02*
X0110800Y0216373D01*
X0110800Y0214839D02*
X0106196Y0214839D01*
X0107731Y0213304D01*
X0087165Y0212537D02*
X0086398Y0213304D01*
X0084863Y0213304D01*
X0084096Y0212537D01*
X0082561Y0212537D02*
X0081794Y0213304D01*
X0080259Y0213304D01*
X0079492Y0212537D01*
X0079492Y0211769D01*
X0080259Y0211002D01*
X0081794Y0211002D01*
X0082561Y0210235D01*
X0082561Y0209467D01*
X0081794Y0208700D01*
X0080259Y0208700D01*
X0079492Y0209467D01*
X0077957Y0209467D02*
X0077957Y0213304D01*
X0074888Y0213304D02*
X0074888Y0209467D01*
X0075656Y0208700D01*
X0077190Y0208700D01*
X0077957Y0209467D01*
X0081027Y0207933D02*
X0081027Y0214071D01*
X0084096Y0208700D02*
X0087165Y0211769D01*
X0087165Y0212537D01*
X0087165Y0208700D02*
X0084096Y0208700D01*
X0081027Y0237933D02*
X0081027Y0244071D01*
X0081794Y0243304D02*
X0080259Y0243304D01*
X0079492Y0242537D01*
X0079492Y0241769D01*
X0080259Y0241002D01*
X0081794Y0241002D01*
X0082561Y0240235D01*
X0082561Y0239467D01*
X0081794Y0238700D01*
X0080259Y0238700D01*
X0079492Y0239467D01*
X0077957Y0239467D02*
X0077190Y0238700D01*
X0075656Y0238700D01*
X0074888Y0239467D01*
X0074888Y0243304D01*
X0077957Y0243304D02*
X0077957Y0239467D01*
X0081794Y0243304D02*
X0082561Y0242537D01*
X0084096Y0241002D02*
X0087165Y0241002D01*
X0086398Y0238700D02*
X0086398Y0243304D01*
X0084096Y0241002D01*
X0106196Y0241002D02*
X0106963Y0241769D01*
X0110033Y0241769D01*
X0110800Y0241002D01*
X0110800Y0239467D01*
X0110033Y0238700D01*
X0106963Y0238700D01*
X0106196Y0239467D01*
X0106196Y0241002D01*
X0106963Y0243304D02*
X0106196Y0244071D01*
X0106196Y0245606D01*
X0106963Y0246373D01*
X0107731Y0246373D01*
X0108498Y0245606D01*
X0109265Y0246373D01*
X0110033Y0246373D01*
X0110800Y0245606D01*
X0110800Y0244071D01*
X0110033Y0243304D01*
X0110800Y0241769D02*
X0109265Y0240235D01*
X0108498Y0244839D02*
X0108498Y0245606D01*
X0125492Y0240804D02*
X0125492Y0236200D01*
X0125992Y0234804D02*
X0128294Y0234804D01*
X0129061Y0234037D01*
X0129061Y0232502D01*
X0128294Y0231735D01*
X0125992Y0231735D01*
X0127527Y0231735D02*
X0129061Y0230200D01*
X0130596Y0230200D02*
X0133665Y0233269D01*
X0133665Y0234037D01*
X0132898Y0234804D01*
X0131363Y0234804D01*
X0130596Y0234037D01*
X0130863Y0236200D02*
X0130096Y0236967D01*
X0130863Y0236200D02*
X0132398Y0236200D01*
X0133165Y0236967D01*
X0133165Y0238502D01*
X0132398Y0239269D01*
X0131631Y0239269D01*
X0130096Y0238502D01*
X0130096Y0240804D01*
X0133165Y0240804D01*
X0128561Y0240037D02*
X0128561Y0238502D01*
X0127794Y0237735D01*
X0125492Y0237735D01*
X0127027Y0237735D02*
X0128561Y0236200D01*
X0125992Y0234804D02*
X0125992Y0230200D01*
X0130596Y0230200D02*
X0133665Y0230200D01*
X0128561Y0240037D02*
X0127794Y0240804D01*
X0125492Y0240804D01*
X0124992Y0261200D02*
X0124992Y0265804D01*
X0127294Y0265804D01*
X0128061Y0265037D01*
X0128061Y0263502D01*
X0127294Y0262735D01*
X0124992Y0262735D01*
X0126527Y0262735D02*
X0128061Y0261200D01*
X0129596Y0261967D02*
X0129596Y0263502D01*
X0131898Y0263502D01*
X0132665Y0262735D01*
X0132665Y0261967D01*
X0131898Y0261200D01*
X0130363Y0261200D01*
X0129596Y0261967D01*
X0129596Y0263502D02*
X0131131Y0265037D01*
X0132665Y0265804D01*
X0095937Y0275333D02*
X0095069Y0274465D01*
X0094202Y0274465D01*
X0095937Y0275333D02*
X0095937Y0279670D01*
X0093334Y0279670D01*
X0092467Y0278802D01*
X0092467Y0277067D01*
X0093334Y0276200D01*
X0095937Y0276200D01*
X0090772Y0279670D02*
X0089905Y0279670D01*
X0088170Y0277935D01*
X0088170Y0276200D02*
X0088170Y0279670D01*
X0086483Y0278802D02*
X0086483Y0277067D01*
X0085616Y0276200D01*
X0083881Y0276200D01*
X0083014Y0277067D01*
X0083014Y0278802D01*
X0083881Y0279670D01*
X0085616Y0279670D01*
X0086483Y0278802D01*
X0081303Y0277067D02*
X0081303Y0276200D01*
X0080435Y0276200D01*
X0080435Y0277067D01*
X0081303Y0277067D01*
X0078749Y0276200D02*
X0075279Y0279670D01*
X0073592Y0278802D02*
X0072725Y0279670D01*
X0070990Y0279670D01*
X0070123Y0278802D01*
X0070123Y0277067D01*
X0070990Y0276200D01*
X0072725Y0276200D01*
X0073592Y0277067D01*
X0073592Y0278802D01*
X0075279Y0276200D02*
X0078749Y0279670D01*
X0068436Y0278802D02*
X0068436Y0277067D01*
X0067568Y0276200D01*
X0064966Y0276200D01*
X0064966Y0281404D01*
X0064966Y0279670D02*
X0067568Y0279670D01*
X0068436Y0278802D01*
X0063279Y0278802D02*
X0063279Y0276200D01*
X0060677Y0276200D01*
X0059810Y0277067D01*
X0060677Y0277935D01*
X0063279Y0277935D01*
X0063279Y0278802D02*
X0062412Y0279670D01*
X0060677Y0279670D01*
X0058115Y0279670D02*
X0057248Y0279670D01*
X0055513Y0277935D01*
X0053826Y0277935D02*
X0051224Y0277935D01*
X0050356Y0277067D01*
X0051224Y0276200D01*
X0053826Y0276200D01*
X0053826Y0278802D01*
X0052959Y0279670D01*
X0051224Y0279670D01*
X0048670Y0278802D02*
X0048670Y0277067D01*
X0047802Y0276200D01*
X0045200Y0276200D01*
X0045200Y0274465D02*
X0045200Y0279670D01*
X0047802Y0279670D01*
X0048670Y0278802D01*
X0055513Y0279670D02*
X0055513Y0276200D01*
D12*
X0215401Y0110853D02*
X0214784Y0110236D01*
X0214784Y0107767D01*
X0215401Y0107150D01*
X0216635Y0107150D01*
X0217252Y0107767D01*
X0218467Y0107150D02*
X0220936Y0109619D01*
X0220936Y0110236D01*
X0220318Y0110853D01*
X0219084Y0110853D01*
X0218467Y0110236D01*
X0217252Y0110236D02*
X0216635Y0110853D01*
X0215401Y0110853D01*
X0218467Y0107150D02*
X0220936Y0107150D01*
X0262899Y0164012D02*
X0266602Y0164012D01*
X0266602Y0166481D01*
X0265985Y0167695D02*
X0266602Y0168312D01*
X0266602Y0169546D01*
X0265985Y0170164D01*
X0265368Y0170164D01*
X0264750Y0169546D01*
X0264750Y0168312D01*
X0264133Y0167695D01*
X0263516Y0167695D01*
X0262899Y0168312D01*
X0262899Y0169546D01*
X0263516Y0170164D01*
X0262899Y0171378D02*
X0262899Y0173230D01*
X0263516Y0173847D01*
X0264750Y0173847D01*
X0265368Y0173230D01*
X0265368Y0171378D01*
X0266602Y0171378D02*
X0262899Y0171378D01*
X0264750Y0175061D02*
X0264750Y0177530D01*
X0263516Y0178744D02*
X0262899Y0179362D01*
X0262899Y0180596D01*
X0263516Y0181213D01*
X0265985Y0178744D01*
X0266602Y0179362D01*
X0266602Y0180596D01*
X0265985Y0181213D01*
X0263516Y0181213D01*
X0262899Y0182427D02*
X0262899Y0184896D01*
X0263516Y0184896D01*
X0265985Y0182427D01*
X0266602Y0182427D01*
X0265985Y0178744D02*
X0263516Y0178744D01*
X0262899Y0166481D02*
X0262899Y0164012D01*
X0264750Y0164012D02*
X0264750Y0165246D01*
X0145850Y0077302D02*
X0145850Y0074833D01*
X0145850Y0076068D02*
X0142147Y0076068D01*
X0143381Y0074833D01*
X0142764Y0073619D02*
X0142147Y0073002D01*
X0142147Y0071767D01*
X0142764Y0071150D01*
X0145233Y0071150D01*
X0145850Y0071767D01*
X0145850Y0073002D01*
X0145233Y0073619D01*
D13*
X0197500Y0063098D02*
X0197500Y0088902D01*
X0221100Y0088900D01*
X0221100Y0063100D02*
X0197500Y0063098D01*
X0192500Y0234000D02*
X0209500Y0234000D01*
X0213000Y0242000D02*
X0213000Y0249929D01*
X0209500Y0258000D02*
X0192500Y0258000D01*
X0189000Y0250047D02*
X0189000Y0242000D01*
X0194000Y0246000D02*
X0194002Y0246172D01*
X0194008Y0246343D01*
X0194019Y0246515D01*
X0194034Y0246686D01*
X0194053Y0246857D01*
X0194076Y0247027D01*
X0194103Y0247197D01*
X0194135Y0247366D01*
X0194170Y0247534D01*
X0194210Y0247701D01*
X0194254Y0247867D01*
X0194301Y0248032D01*
X0194353Y0248196D01*
X0194409Y0248358D01*
X0194469Y0248519D01*
X0194533Y0248679D01*
X0194601Y0248837D01*
X0194672Y0248993D01*
X0194747Y0249147D01*
X0194827Y0249300D01*
X0194909Y0249450D01*
X0194996Y0249599D01*
X0195086Y0249745D01*
X0195180Y0249889D01*
X0195277Y0250031D01*
X0195378Y0250170D01*
X0195482Y0250307D01*
X0195589Y0250441D01*
X0195700Y0250572D01*
X0195813Y0250701D01*
X0195930Y0250827D01*
X0196050Y0250950D01*
X0196173Y0251070D01*
X0196299Y0251187D01*
X0196428Y0251300D01*
X0196559Y0251411D01*
X0196693Y0251518D01*
X0196830Y0251622D01*
X0196969Y0251723D01*
X0197111Y0251820D01*
X0197255Y0251914D01*
X0197401Y0252004D01*
X0197550Y0252091D01*
X0197700Y0252173D01*
X0197853Y0252253D01*
X0198007Y0252328D01*
X0198163Y0252399D01*
X0198321Y0252467D01*
X0198481Y0252531D01*
X0198642Y0252591D01*
X0198804Y0252647D01*
X0198968Y0252699D01*
X0199133Y0252746D01*
X0199299Y0252790D01*
X0199466Y0252830D01*
X0199634Y0252865D01*
X0199803Y0252897D01*
X0199973Y0252924D01*
X0200143Y0252947D01*
X0200314Y0252966D01*
X0200485Y0252981D01*
X0200657Y0252992D01*
X0200828Y0252998D01*
X0201000Y0253000D01*
X0201172Y0252998D01*
X0201343Y0252992D01*
X0201515Y0252981D01*
X0201686Y0252966D01*
X0201857Y0252947D01*
X0202027Y0252924D01*
X0202197Y0252897D01*
X0202366Y0252865D01*
X0202534Y0252830D01*
X0202701Y0252790D01*
X0202867Y0252746D01*
X0203032Y0252699D01*
X0203196Y0252647D01*
X0203358Y0252591D01*
X0203519Y0252531D01*
X0203679Y0252467D01*
X0203837Y0252399D01*
X0203993Y0252328D01*
X0204147Y0252253D01*
X0204300Y0252173D01*
X0204450Y0252091D01*
X0204599Y0252004D01*
X0204745Y0251914D01*
X0204889Y0251820D01*
X0205031Y0251723D01*
X0205170Y0251622D01*
X0205307Y0251518D01*
X0205441Y0251411D01*
X0205572Y0251300D01*
X0205701Y0251187D01*
X0205827Y0251070D01*
X0205950Y0250950D01*
X0206070Y0250827D01*
X0206187Y0250701D01*
X0206300Y0250572D01*
X0206411Y0250441D01*
X0206518Y0250307D01*
X0206622Y0250170D01*
X0206723Y0250031D01*
X0206820Y0249889D01*
X0206914Y0249745D01*
X0207004Y0249599D01*
X0207091Y0249450D01*
X0207173Y0249300D01*
X0207253Y0249147D01*
X0207328Y0248993D01*
X0207399Y0248837D01*
X0207467Y0248679D01*
X0207531Y0248519D01*
X0207591Y0248358D01*
X0207647Y0248196D01*
X0207699Y0248032D01*
X0207746Y0247867D01*
X0207790Y0247701D01*
X0207830Y0247534D01*
X0207865Y0247366D01*
X0207897Y0247197D01*
X0207924Y0247027D01*
X0207947Y0246857D01*
X0207966Y0246686D01*
X0207981Y0246515D01*
X0207992Y0246343D01*
X0207998Y0246172D01*
X0208000Y0246000D01*
X0207998Y0245828D01*
X0207992Y0245657D01*
X0207981Y0245485D01*
X0207966Y0245314D01*
X0207947Y0245143D01*
X0207924Y0244973D01*
X0207897Y0244803D01*
X0207865Y0244634D01*
X0207830Y0244466D01*
X0207790Y0244299D01*
X0207746Y0244133D01*
X0207699Y0243968D01*
X0207647Y0243804D01*
X0207591Y0243642D01*
X0207531Y0243481D01*
X0207467Y0243321D01*
X0207399Y0243163D01*
X0207328Y0243007D01*
X0207253Y0242853D01*
X0207173Y0242700D01*
X0207091Y0242550D01*
X0207004Y0242401D01*
X0206914Y0242255D01*
X0206820Y0242111D01*
X0206723Y0241969D01*
X0206622Y0241830D01*
X0206518Y0241693D01*
X0206411Y0241559D01*
X0206300Y0241428D01*
X0206187Y0241299D01*
X0206070Y0241173D01*
X0205950Y0241050D01*
X0205827Y0240930D01*
X0205701Y0240813D01*
X0205572Y0240700D01*
X0205441Y0240589D01*
X0205307Y0240482D01*
X0205170Y0240378D01*
X0205031Y0240277D01*
X0204889Y0240180D01*
X0204745Y0240086D01*
X0204599Y0239996D01*
X0204450Y0239909D01*
X0204300Y0239827D01*
X0204147Y0239747D01*
X0203993Y0239672D01*
X0203837Y0239601D01*
X0203679Y0239533D01*
X0203519Y0239469D01*
X0203358Y0239409D01*
X0203196Y0239353D01*
X0203032Y0239301D01*
X0202867Y0239254D01*
X0202701Y0239210D01*
X0202534Y0239170D01*
X0202366Y0239135D01*
X0202197Y0239103D01*
X0202027Y0239076D01*
X0201857Y0239053D01*
X0201686Y0239034D01*
X0201515Y0239019D01*
X0201343Y0239008D01*
X0201172Y0239002D01*
X0201000Y0239000D01*
X0200828Y0239002D01*
X0200657Y0239008D01*
X0200485Y0239019D01*
X0200314Y0239034D01*
X0200143Y0239053D01*
X0199973Y0239076D01*
X0199803Y0239103D01*
X0199634Y0239135D01*
X0199466Y0239170D01*
X0199299Y0239210D01*
X0199133Y0239254D01*
X0198968Y0239301D01*
X0198804Y0239353D01*
X0198642Y0239409D01*
X0198481Y0239469D01*
X0198321Y0239533D01*
X0198163Y0239601D01*
X0198007Y0239672D01*
X0197853Y0239747D01*
X0197700Y0239827D01*
X0197550Y0239909D01*
X0197401Y0239996D01*
X0197255Y0240086D01*
X0197111Y0240180D01*
X0196969Y0240277D01*
X0196830Y0240378D01*
X0196693Y0240482D01*
X0196559Y0240589D01*
X0196428Y0240700D01*
X0196299Y0240813D01*
X0196173Y0240930D01*
X0196050Y0241050D01*
X0195930Y0241173D01*
X0195813Y0241299D01*
X0195700Y0241428D01*
X0195589Y0241559D01*
X0195482Y0241693D01*
X0195378Y0241830D01*
X0195277Y0241969D01*
X0195180Y0242111D01*
X0195086Y0242255D01*
X0194996Y0242401D01*
X0194909Y0242550D01*
X0194827Y0242700D01*
X0194747Y0242853D01*
X0194672Y0243007D01*
X0194601Y0243163D01*
X0194533Y0243321D01*
X0194469Y0243481D01*
X0194409Y0243642D01*
X0194353Y0243804D01*
X0194301Y0243968D01*
X0194254Y0244133D01*
X0194210Y0244299D01*
X0194170Y0244466D01*
X0194135Y0244634D01*
X0194103Y0244803D01*
X0194076Y0244973D01*
X0194053Y0245143D01*
X0194034Y0245314D01*
X0194019Y0245485D01*
X0194008Y0245657D01*
X0194002Y0245828D01*
X0194000Y0246000D01*
D14*
X0195600Y0076000D03*
D15*
X0261000Y0073500D02*
X0261000Y0068500D01*
X0263500Y0066000D01*
X0261000Y0063500D01*
X0261000Y0058500D01*
X0263500Y0056000D01*
X0278500Y0056000D01*
X0281000Y0058500D01*
X0281000Y0063500D01*
X0278500Y0066000D01*
X0263500Y0066000D01*
X0261000Y0073500D02*
X0263500Y0076000D01*
X0278500Y0076000D01*
X0281000Y0073500D01*
X0281000Y0068500D01*
X0278500Y0066000D01*
X0278500Y0076000D02*
X0281000Y0078500D01*
X0281000Y0083500D01*
X0278500Y0086000D01*
X0263500Y0086000D01*
X0261000Y0083500D01*
X0261000Y0078500D01*
X0263500Y0076000D01*
X0263500Y0086000D02*
X0261000Y0088500D01*
X0261000Y0093500D01*
X0263500Y0096000D01*
X0278500Y0096000D01*
X0281000Y0093500D01*
X0281000Y0088500D01*
X0278500Y0086000D01*
X0278500Y0096000D02*
X0281000Y0098500D01*
X0281000Y0103500D01*
X0278500Y0106000D01*
X0263500Y0106000D01*
X0261000Y0103500D01*
X0261000Y0098500D01*
X0263500Y0096000D01*
X0245000Y0251000D02*
X0245002Y0251154D01*
X0245008Y0251308D01*
X0245018Y0251462D01*
X0245032Y0251616D01*
X0245049Y0251769D01*
X0245071Y0251921D01*
X0245097Y0252073D01*
X0245126Y0252225D01*
X0245160Y0252375D01*
X0245197Y0252525D01*
X0245238Y0252673D01*
X0245283Y0252821D01*
X0245332Y0252967D01*
X0245384Y0253112D01*
X0245440Y0253255D01*
X0245500Y0253398D01*
X0245563Y0253538D01*
X0245630Y0253677D01*
X0245701Y0253814D01*
X0245775Y0253949D01*
X0245852Y0254082D01*
X0245933Y0254214D01*
X0246017Y0254343D01*
X0246105Y0254470D01*
X0246196Y0254594D01*
X0246289Y0254716D01*
X0246387Y0254836D01*
X0246487Y0254953D01*
X0246590Y0255068D01*
X0246696Y0255180D01*
X0246804Y0255289D01*
X0246916Y0255395D01*
X0247030Y0255499D01*
X0247147Y0255599D01*
X0247266Y0255697D01*
X0247388Y0255791D01*
X0247513Y0255882D01*
X0257000Y0251000D02*
X0256998Y0250848D01*
X0256992Y0250697D01*
X0256983Y0250546D01*
X0256969Y0250394D01*
X0256952Y0250244D01*
X0256931Y0250094D01*
X0256906Y0249944D01*
X0256878Y0249795D01*
X0256845Y0249647D01*
X0256809Y0249500D01*
X0256770Y0249353D01*
X0256726Y0249208D01*
X0256679Y0249064D01*
X0256628Y0248921D01*
X0256574Y0248780D01*
X0256516Y0248639D01*
X0256455Y0248501D01*
X0256390Y0248364D01*
X0256321Y0248228D01*
X0256250Y0248095D01*
X0256175Y0247963D01*
X0256096Y0247833D01*
X0256015Y0247706D01*
X0255930Y0247580D01*
X0255842Y0247456D01*
X0255751Y0247335D01*
X0255657Y0247216D01*
X0255559Y0247100D01*
X0255459Y0246986D01*
X0255357Y0246874D01*
X0255251Y0246766D01*
X0255143Y0246660D01*
X0255032Y0246556D01*
X0254918Y0246456D01*
X0254802Y0246358D01*
X0254683Y0246264D01*
X0257000Y0251000D02*
X0256998Y0251152D01*
X0256992Y0251303D01*
X0256983Y0251454D01*
X0256969Y0251606D01*
X0256952Y0251756D01*
X0256931Y0251906D01*
X0256906Y0252056D01*
X0256878Y0252205D01*
X0256845Y0252353D01*
X0256809Y0252500D01*
X0256770Y0252647D01*
X0256726Y0252792D01*
X0256679Y0252936D01*
X0256628Y0253079D01*
X0256574Y0253220D01*
X0256516Y0253361D01*
X0256455Y0253499D01*
X0256390Y0253636D01*
X0256321Y0253772D01*
X0256250Y0253905D01*
X0256175Y0254037D01*
X0256096Y0254167D01*
X0256015Y0254294D01*
X0255930Y0254420D01*
X0255842Y0254544D01*
X0255751Y0254665D01*
X0255657Y0254784D01*
X0255559Y0254900D01*
X0255459Y0255014D01*
X0255357Y0255126D01*
X0255251Y0255234D01*
X0255143Y0255340D01*
X0255032Y0255444D01*
X0254918Y0255544D01*
X0254802Y0255642D01*
X0254683Y0255736D01*
X0245000Y0251000D02*
X0245002Y0250850D01*
X0245008Y0250699D01*
X0245017Y0250549D01*
X0245030Y0250400D01*
X0245047Y0250250D01*
X0245068Y0250101D01*
X0245092Y0249953D01*
X0245120Y0249805D01*
X0245152Y0249658D01*
X0245187Y0249512D01*
X0245227Y0249367D01*
X0245269Y0249223D01*
X0245316Y0249080D01*
X0245366Y0248938D01*
X0245419Y0248797D01*
X0245476Y0248658D01*
X0245536Y0248520D01*
X0245600Y0248384D01*
X0245667Y0248250D01*
X0245738Y0248117D01*
X0245812Y0247986D01*
X0245889Y0247857D01*
X0245970Y0247730D01*
X0246053Y0247605D01*
X0246140Y0247482D01*
X0246229Y0247361D01*
X0246322Y0247243D01*
X0246418Y0247127D01*
X0246516Y0247013D01*
X0246617Y0246902D01*
X0246722Y0246793D01*
X0246828Y0246688D01*
X0246938Y0246584D01*
X0247050Y0246484D01*
X0247164Y0246386D01*
X0247281Y0246292D01*
X0247400Y0246200D01*
D16*
X0246938Y0241254D02*
X0246938Y0236750D01*
X0249941Y0236750D01*
X0251542Y0236750D02*
X0251542Y0241254D01*
X0253794Y0241254D01*
X0254545Y0240503D01*
X0254545Y0237501D01*
X0253794Y0236750D01*
X0251542Y0236750D01*
X0248439Y0239002D02*
X0246938Y0239002D01*
X0246938Y0241254D02*
X0249941Y0241254D01*
X0245337Y0236750D02*
X0242334Y0236750D01*
X0242334Y0241254D01*
X0256146Y0239753D02*
X0257647Y0241254D01*
X0257647Y0236750D01*
X0256146Y0236750D02*
X0259149Y0236750D01*
X0253697Y0202102D02*
X0190705Y0202102D01*
X0190705Y0139110D01*
X0253697Y0139110D01*
X0269445Y0139110D01*
X0269445Y0146984D01*
X0277319Y0146984D01*
X0277319Y0202102D01*
X0253697Y0202102D01*
X0277319Y0146984D02*
X0277319Y0139110D01*
X0269445Y0139110D01*
X0272988Y0143047D02*
X0272990Y0143086D01*
X0272996Y0143125D01*
X0273006Y0143163D01*
X0273019Y0143200D01*
X0273036Y0143235D01*
X0273056Y0143269D01*
X0273080Y0143300D01*
X0273107Y0143329D01*
X0273136Y0143355D01*
X0273168Y0143378D01*
X0273202Y0143398D01*
X0273238Y0143414D01*
X0273275Y0143426D01*
X0273314Y0143435D01*
X0273353Y0143440D01*
X0273392Y0143441D01*
X0273431Y0143438D01*
X0273470Y0143431D01*
X0273507Y0143420D01*
X0273544Y0143406D01*
X0273579Y0143388D01*
X0273612Y0143367D01*
X0273643Y0143342D01*
X0273671Y0143315D01*
X0273696Y0143285D01*
X0273718Y0143252D01*
X0273737Y0143218D01*
X0273752Y0143182D01*
X0273764Y0143144D01*
X0273772Y0143106D01*
X0273776Y0143067D01*
X0273776Y0143027D01*
X0273772Y0142988D01*
X0273764Y0142950D01*
X0273752Y0142912D01*
X0273737Y0142876D01*
X0273718Y0142842D01*
X0273696Y0142809D01*
X0273671Y0142779D01*
X0273643Y0142752D01*
X0273612Y0142727D01*
X0273579Y0142706D01*
X0273544Y0142688D01*
X0273507Y0142674D01*
X0273470Y0142663D01*
X0273431Y0142656D01*
X0273392Y0142653D01*
X0273353Y0142654D01*
X0273314Y0142659D01*
X0273275Y0142668D01*
X0273238Y0142680D01*
X0273202Y0142696D01*
X0273168Y0142716D01*
X0273136Y0142739D01*
X0273107Y0142765D01*
X0273080Y0142794D01*
X0273056Y0142825D01*
X0273036Y0142859D01*
X0273019Y0142894D01*
X0273006Y0142931D01*
X0272996Y0142969D01*
X0272990Y0143008D01*
X0272988Y0143047D01*
X0270208Y0143047D02*
X0270210Y0143159D01*
X0270216Y0143271D01*
X0270226Y0143382D01*
X0270240Y0143494D01*
X0270257Y0143604D01*
X0270279Y0143714D01*
X0270304Y0143823D01*
X0270334Y0143931D01*
X0270367Y0144038D01*
X0270404Y0144144D01*
X0270444Y0144249D01*
X0270489Y0144352D01*
X0270536Y0144453D01*
X0270588Y0144552D01*
X0270643Y0144650D01*
X0270701Y0144746D01*
X0270763Y0144839D01*
X0270827Y0144931D01*
X0270895Y0145020D01*
X0270967Y0145106D01*
X0271041Y0145190D01*
X0271118Y0145271D01*
X0271198Y0145350D01*
X0271280Y0145426D01*
X0271366Y0145498D01*
X0271453Y0145568D01*
X0271544Y0145634D01*
X0271636Y0145698D01*
X0271731Y0145758D01*
X0271827Y0145814D01*
X0271926Y0145867D01*
X0272027Y0145917D01*
X0272129Y0145963D01*
X0272232Y0146005D01*
X0272337Y0146044D01*
X0272444Y0146079D01*
X0272551Y0146110D01*
X0272660Y0146138D01*
X0272770Y0146161D01*
X0272880Y0146181D01*
X0272991Y0146197D01*
X0273102Y0146209D01*
X0273214Y0146217D01*
X0273326Y0146221D01*
X0273438Y0146221D01*
X0273550Y0146217D01*
X0273662Y0146209D01*
X0273773Y0146197D01*
X0273884Y0146181D01*
X0273994Y0146161D01*
X0274104Y0146138D01*
X0274213Y0146110D01*
X0274320Y0146079D01*
X0274427Y0146044D01*
X0274532Y0146005D01*
X0274635Y0145963D01*
X0274737Y0145917D01*
X0274838Y0145867D01*
X0274937Y0145814D01*
X0275033Y0145758D01*
X0275128Y0145698D01*
X0275220Y0145634D01*
X0275311Y0145568D01*
X0275398Y0145498D01*
X0275484Y0145426D01*
X0275566Y0145350D01*
X0275646Y0145271D01*
X0275723Y0145190D01*
X0275797Y0145106D01*
X0275869Y0145020D01*
X0275937Y0144931D01*
X0276001Y0144839D01*
X0276063Y0144746D01*
X0276121Y0144650D01*
X0276176Y0144552D01*
X0276228Y0144453D01*
X0276275Y0144352D01*
X0276320Y0144249D01*
X0276360Y0144144D01*
X0276397Y0144038D01*
X0276430Y0143931D01*
X0276460Y0143823D01*
X0276485Y0143714D01*
X0276507Y0143604D01*
X0276524Y0143494D01*
X0276538Y0143382D01*
X0276548Y0143271D01*
X0276554Y0143159D01*
X0276556Y0143047D01*
X0276554Y0142935D01*
X0276548Y0142823D01*
X0276538Y0142712D01*
X0276524Y0142600D01*
X0276507Y0142490D01*
X0276485Y0142380D01*
X0276460Y0142271D01*
X0276430Y0142163D01*
X0276397Y0142056D01*
X0276360Y0141950D01*
X0276320Y0141845D01*
X0276275Y0141742D01*
X0276228Y0141641D01*
X0276176Y0141542D01*
X0276121Y0141444D01*
X0276063Y0141348D01*
X0276001Y0141255D01*
X0275937Y0141163D01*
X0275869Y0141074D01*
X0275797Y0140988D01*
X0275723Y0140904D01*
X0275646Y0140823D01*
X0275566Y0140744D01*
X0275484Y0140668D01*
X0275398Y0140596D01*
X0275311Y0140526D01*
X0275220Y0140460D01*
X0275128Y0140396D01*
X0275033Y0140336D01*
X0274937Y0140280D01*
X0274838Y0140227D01*
X0274737Y0140177D01*
X0274635Y0140131D01*
X0274532Y0140089D01*
X0274427Y0140050D01*
X0274320Y0140015D01*
X0274213Y0139984D01*
X0274104Y0139956D01*
X0273994Y0139933D01*
X0273884Y0139913D01*
X0273773Y0139897D01*
X0273662Y0139885D01*
X0273550Y0139877D01*
X0273438Y0139873D01*
X0273326Y0139873D01*
X0273214Y0139877D01*
X0273102Y0139885D01*
X0272991Y0139897D01*
X0272880Y0139913D01*
X0272770Y0139933D01*
X0272660Y0139956D01*
X0272551Y0139984D01*
X0272444Y0140015D01*
X0272337Y0140050D01*
X0272232Y0140089D01*
X0272129Y0140131D01*
X0272027Y0140177D01*
X0271926Y0140227D01*
X0271827Y0140280D01*
X0271731Y0140336D01*
X0271636Y0140396D01*
X0271544Y0140460D01*
X0271453Y0140526D01*
X0271366Y0140596D01*
X0271280Y0140668D01*
X0271198Y0140744D01*
X0271118Y0140823D01*
X0271041Y0140904D01*
X0270967Y0140988D01*
X0270895Y0141074D01*
X0270827Y0141163D01*
X0270763Y0141255D01*
X0270701Y0141348D01*
X0270643Y0141444D01*
X0270588Y0141542D01*
X0270536Y0141641D01*
X0270489Y0141742D01*
X0270444Y0141845D01*
X0270404Y0141950D01*
X0270367Y0142056D01*
X0270334Y0142163D01*
X0270304Y0142271D01*
X0270279Y0142380D01*
X0270257Y0142490D01*
X0270240Y0142600D01*
X0270226Y0142712D01*
X0270216Y0142823D01*
X0270210Y0142935D01*
X0270208Y0143047D01*
X0270854Y0113254D02*
X0273106Y0113254D01*
X0273856Y0112503D01*
X0273856Y0111002D01*
X0273106Y0110251D01*
X0270854Y0110251D01*
X0270854Y0108750D02*
X0270854Y0113254D01*
X0269253Y0113254D02*
X0267751Y0113254D01*
X0268502Y0113254D02*
X0268502Y0109501D01*
X0267751Y0108750D01*
X0267001Y0108750D01*
X0266250Y0109501D01*
X0275458Y0108750D02*
X0278460Y0108750D01*
X0276959Y0108750D02*
X0276959Y0113254D01*
X0275458Y0111753D01*
X0136000Y0141000D02*
X0136000Y0061000D01*
X0011000Y0061000D01*
X0011000Y0141000D01*
X0136000Y0141000D01*
X0106000Y0146000D02*
X0016000Y0146000D01*
X0016000Y0166000D01*
X0106000Y0166000D01*
X0106000Y0146000D01*
X0106000Y0176000D02*
X0016000Y0176000D01*
X0016000Y0196000D01*
X0106000Y0196000D01*
X0106000Y0176000D01*
X0106000Y0206000D02*
X0016000Y0206000D01*
X0016000Y0226000D01*
X0106000Y0226000D01*
X0106000Y0206000D01*
X0106000Y0236000D02*
X0016000Y0236000D01*
X0016000Y0256000D01*
X0106000Y0256000D01*
X0106000Y0236000D01*
X0191250Y0262001D02*
X0192001Y0261250D01*
X0193502Y0261250D01*
X0194253Y0262001D01*
X0194253Y0262751D01*
X0193502Y0263502D01*
X0192001Y0263502D01*
X0191250Y0264253D01*
X0191250Y0265003D01*
X0192001Y0265754D01*
X0193502Y0265754D01*
X0194253Y0265003D01*
X0195854Y0264253D02*
X0197355Y0265754D01*
X0197355Y0261250D01*
X0195854Y0261250D02*
X0198856Y0261250D01*
D17*
X0243000Y0251000D02*
X0243002Y0250808D01*
X0243009Y0250616D01*
X0243021Y0250424D01*
X0243037Y0250232D01*
X0243058Y0250041D01*
X0243083Y0249851D01*
X0243113Y0249661D01*
X0243147Y0249472D01*
X0243186Y0249284D01*
X0243230Y0249097D01*
X0243278Y0248911D01*
X0243330Y0248726D01*
X0243387Y0248542D01*
X0243448Y0248360D01*
X0243514Y0248180D01*
X0243584Y0248001D01*
X0243658Y0247823D01*
X0243736Y0247648D01*
X0243819Y0247474D01*
X0243906Y0247303D01*
X0243996Y0247134D01*
X0244091Y0246967D01*
X0244190Y0246802D01*
X0244293Y0246639D01*
X0244400Y0246480D01*
X0244510Y0246322D01*
X0244624Y0246168D01*
X0244742Y0246016D01*
X0244864Y0245867D01*
X0244989Y0245721D01*
X0245117Y0245579D01*
X0245249Y0245439D01*
X0245384Y0245302D01*
X0245523Y0245169D01*
X0245664Y0245039D01*
X0245809Y0244913D01*
X0245957Y0244790D01*
X0246107Y0244671D01*
X0246261Y0244555D01*
X0246417Y0244443D01*
X0246576Y0244335D01*
X0246737Y0244230D01*
X0246901Y0244130D01*
X0247067Y0244034D01*
X0247235Y0243941D01*
X0254969Y0244054D02*
X0255138Y0244153D01*
X0255304Y0244257D01*
X0255468Y0244364D01*
X0255629Y0244475D01*
X0255787Y0244590D01*
X0255942Y0244709D01*
X0256095Y0244832D01*
X0256244Y0244958D01*
X0256390Y0245088D01*
X0256533Y0245222D01*
X0256673Y0245359D01*
X0256809Y0245499D01*
X0256942Y0245643D01*
X0257071Y0245790D01*
X0257197Y0245940D01*
X0257318Y0246093D01*
X0257437Y0246249D01*
X0257551Y0246408D01*
X0257661Y0246569D01*
X0257767Y0246734D01*
X0257870Y0246900D01*
X0257968Y0247070D01*
X0258062Y0247241D01*
X0258152Y0247415D01*
X0258237Y0247591D01*
X0258319Y0247769D01*
X0258395Y0247949D01*
X0258468Y0248131D01*
X0258536Y0248314D01*
X0258599Y0248499D01*
X0258658Y0248686D01*
X0258712Y0248874D01*
X0258762Y0249063D01*
X0258807Y0249253D01*
X0258847Y0249445D01*
X0258883Y0249637D01*
X0258914Y0249830D01*
X0258940Y0250024D01*
X0258962Y0250219D01*
X0258978Y0250414D01*
X0258990Y0250609D01*
X0258998Y0250805D01*
X0259000Y0251000D01*
X0258998Y0251193D01*
X0258991Y0251386D01*
X0258979Y0251578D01*
X0258963Y0251771D01*
X0258942Y0251963D01*
X0258916Y0252154D01*
X0258886Y0252344D01*
X0258851Y0252534D01*
X0258812Y0252723D01*
X0258768Y0252911D01*
X0258720Y0253098D01*
X0258667Y0253284D01*
X0258610Y0253468D01*
X0258548Y0253651D01*
X0258482Y0253832D01*
X0258411Y0254012D01*
X0258337Y0254190D01*
X0258258Y0254366D01*
X0258174Y0254540D01*
X0258087Y0254712D01*
X0257995Y0254882D01*
X0257899Y0255049D01*
X0257800Y0255215D01*
X0257696Y0255378D01*
X0257589Y0255538D01*
X0257477Y0255695D01*
X0257362Y0255850D01*
X0257243Y0256002D01*
X0257121Y0256151D01*
X0256995Y0256298D01*
X0256865Y0256441D01*
X0256732Y0256581D01*
X0256596Y0256717D01*
X0256456Y0256851D01*
X0256314Y0256980D01*
X0256168Y0257107D01*
X0245878Y0257146D02*
X0245730Y0257019D01*
X0245585Y0256889D01*
X0245444Y0256756D01*
X0245305Y0256619D01*
X0245170Y0256479D01*
X0245039Y0256335D01*
X0244911Y0256188D01*
X0244786Y0256039D01*
X0244665Y0255886D01*
X0244548Y0255731D01*
X0244435Y0255572D01*
X0244326Y0255411D01*
X0244221Y0255247D01*
X0244119Y0255081D01*
X0244022Y0254912D01*
X0243929Y0254742D01*
X0243840Y0254568D01*
X0243755Y0254393D01*
X0243675Y0254216D01*
X0243599Y0254037D01*
X0243527Y0253856D01*
X0243460Y0253673D01*
X0243397Y0253489D01*
X0243339Y0253303D01*
X0243285Y0253116D01*
X0243236Y0252928D01*
X0243191Y0252738D01*
X0243151Y0252548D01*
X0243116Y0252356D01*
X0243085Y0252164D01*
X0243059Y0251971D01*
X0243038Y0251777D01*
X0243021Y0251583D01*
X0243009Y0251389D01*
X0243002Y0251195D01*
X0243000Y0251000D01*
D18*
X0265902Y0192654D03*
X0265902Y0157220D03*
M02*
