G75*
%MOIN*%
%OFA0B0*%
%FSLAX25Y25*%
%IPPOS*%
%LPD*%
%AMOC8*
5,1,8,0,0,1.08239X$1,22.5*
%
%ADD10C,0.00000*%
%ADD11R,0.11024X0.09449*%
%ADD12R,0.09449X0.11024*%
%ADD13R,0.05906X0.05118*%
%ADD14R,0.05118X0.05906*%
%ADD15R,0.24409X0.22835*%
%ADD16R,0.11811X0.06299*%
%ADD17OC8,0.06000*%
%ADD18R,0.05512X0.03937*%
%ADD19R,0.05118X0.06299*%
%ADD20C,0.07400*%
%ADD21C,0.07600*%
%ADD22OC8,0.05200*%
%ADD23C,0.15000*%
%ADD24C,0.00669*%
%ADD25R,0.03937X0.09843*%
%ADD26R,0.06299X0.05118*%
%ADD27C,0.04000*%
%ADD28C,0.02400*%
%ADD29C,0.01600*%
%ADD30C,0.04000*%
%ADD31C,0.01000*%
%ADD32C,0.05000*%
D10*
X0001000Y0001000D02*
X0291000Y0001000D01*
X0291000Y0291000D01*
X0001000Y0291000D01*
X0001000Y0001000D01*
X0139701Y0016000D02*
X0139703Y0016158D01*
X0139709Y0016316D01*
X0139719Y0016474D01*
X0139733Y0016632D01*
X0139751Y0016789D01*
X0139772Y0016946D01*
X0139798Y0017102D01*
X0139828Y0017258D01*
X0139861Y0017413D01*
X0139899Y0017566D01*
X0139940Y0017719D01*
X0139985Y0017871D01*
X0140034Y0018022D01*
X0140087Y0018171D01*
X0140143Y0018319D01*
X0140203Y0018465D01*
X0140267Y0018610D01*
X0140335Y0018753D01*
X0140406Y0018895D01*
X0140480Y0019035D01*
X0140558Y0019172D01*
X0140640Y0019308D01*
X0140724Y0019442D01*
X0140813Y0019573D01*
X0140904Y0019702D01*
X0140999Y0019829D01*
X0141096Y0019954D01*
X0141197Y0020076D01*
X0141301Y0020195D01*
X0141408Y0020312D01*
X0141518Y0020426D01*
X0141631Y0020537D01*
X0141746Y0020646D01*
X0141864Y0020751D01*
X0141985Y0020853D01*
X0142108Y0020953D01*
X0142234Y0021049D01*
X0142362Y0021142D01*
X0142492Y0021232D01*
X0142625Y0021318D01*
X0142760Y0021402D01*
X0142896Y0021481D01*
X0143035Y0021558D01*
X0143176Y0021630D01*
X0143318Y0021700D01*
X0143462Y0021765D01*
X0143608Y0021827D01*
X0143755Y0021885D01*
X0143904Y0021940D01*
X0144054Y0021991D01*
X0144205Y0022038D01*
X0144357Y0022081D01*
X0144510Y0022120D01*
X0144665Y0022156D01*
X0144820Y0022187D01*
X0144976Y0022215D01*
X0145132Y0022239D01*
X0145289Y0022259D01*
X0145447Y0022275D01*
X0145604Y0022287D01*
X0145763Y0022295D01*
X0145921Y0022299D01*
X0146079Y0022299D01*
X0146237Y0022295D01*
X0146396Y0022287D01*
X0146553Y0022275D01*
X0146711Y0022259D01*
X0146868Y0022239D01*
X0147024Y0022215D01*
X0147180Y0022187D01*
X0147335Y0022156D01*
X0147490Y0022120D01*
X0147643Y0022081D01*
X0147795Y0022038D01*
X0147946Y0021991D01*
X0148096Y0021940D01*
X0148245Y0021885D01*
X0148392Y0021827D01*
X0148538Y0021765D01*
X0148682Y0021700D01*
X0148824Y0021630D01*
X0148965Y0021558D01*
X0149104Y0021481D01*
X0149240Y0021402D01*
X0149375Y0021318D01*
X0149508Y0021232D01*
X0149638Y0021142D01*
X0149766Y0021049D01*
X0149892Y0020953D01*
X0150015Y0020853D01*
X0150136Y0020751D01*
X0150254Y0020646D01*
X0150369Y0020537D01*
X0150482Y0020426D01*
X0150592Y0020312D01*
X0150699Y0020195D01*
X0150803Y0020076D01*
X0150904Y0019954D01*
X0151001Y0019829D01*
X0151096Y0019702D01*
X0151187Y0019573D01*
X0151276Y0019442D01*
X0151360Y0019308D01*
X0151442Y0019172D01*
X0151520Y0019035D01*
X0151594Y0018895D01*
X0151665Y0018753D01*
X0151733Y0018610D01*
X0151797Y0018465D01*
X0151857Y0018319D01*
X0151913Y0018171D01*
X0151966Y0018022D01*
X0152015Y0017871D01*
X0152060Y0017719D01*
X0152101Y0017566D01*
X0152139Y0017413D01*
X0152172Y0017258D01*
X0152202Y0017102D01*
X0152228Y0016946D01*
X0152249Y0016789D01*
X0152267Y0016632D01*
X0152281Y0016474D01*
X0152291Y0016316D01*
X0152297Y0016158D01*
X0152299Y0016000D01*
X0152297Y0015842D01*
X0152291Y0015684D01*
X0152281Y0015526D01*
X0152267Y0015368D01*
X0152249Y0015211D01*
X0152228Y0015054D01*
X0152202Y0014898D01*
X0152172Y0014742D01*
X0152139Y0014587D01*
X0152101Y0014434D01*
X0152060Y0014281D01*
X0152015Y0014129D01*
X0151966Y0013978D01*
X0151913Y0013829D01*
X0151857Y0013681D01*
X0151797Y0013535D01*
X0151733Y0013390D01*
X0151665Y0013247D01*
X0151594Y0013105D01*
X0151520Y0012965D01*
X0151442Y0012828D01*
X0151360Y0012692D01*
X0151276Y0012558D01*
X0151187Y0012427D01*
X0151096Y0012298D01*
X0151001Y0012171D01*
X0150904Y0012046D01*
X0150803Y0011924D01*
X0150699Y0011805D01*
X0150592Y0011688D01*
X0150482Y0011574D01*
X0150369Y0011463D01*
X0150254Y0011354D01*
X0150136Y0011249D01*
X0150015Y0011147D01*
X0149892Y0011047D01*
X0149766Y0010951D01*
X0149638Y0010858D01*
X0149508Y0010768D01*
X0149375Y0010682D01*
X0149240Y0010598D01*
X0149104Y0010519D01*
X0148965Y0010442D01*
X0148824Y0010370D01*
X0148682Y0010300D01*
X0148538Y0010235D01*
X0148392Y0010173D01*
X0148245Y0010115D01*
X0148096Y0010060D01*
X0147946Y0010009D01*
X0147795Y0009962D01*
X0147643Y0009919D01*
X0147490Y0009880D01*
X0147335Y0009844D01*
X0147180Y0009813D01*
X0147024Y0009785D01*
X0146868Y0009761D01*
X0146711Y0009741D01*
X0146553Y0009725D01*
X0146396Y0009713D01*
X0146237Y0009705D01*
X0146079Y0009701D01*
X0145921Y0009701D01*
X0145763Y0009705D01*
X0145604Y0009713D01*
X0145447Y0009725D01*
X0145289Y0009741D01*
X0145132Y0009761D01*
X0144976Y0009785D01*
X0144820Y0009813D01*
X0144665Y0009844D01*
X0144510Y0009880D01*
X0144357Y0009919D01*
X0144205Y0009962D01*
X0144054Y0010009D01*
X0143904Y0010060D01*
X0143755Y0010115D01*
X0143608Y0010173D01*
X0143462Y0010235D01*
X0143318Y0010300D01*
X0143176Y0010370D01*
X0143035Y0010442D01*
X0142896Y0010519D01*
X0142760Y0010598D01*
X0142625Y0010682D01*
X0142492Y0010768D01*
X0142362Y0010858D01*
X0142234Y0010951D01*
X0142108Y0011047D01*
X0141985Y0011147D01*
X0141864Y0011249D01*
X0141746Y0011354D01*
X0141631Y0011463D01*
X0141518Y0011574D01*
X0141408Y0011688D01*
X0141301Y0011805D01*
X0141197Y0011924D01*
X0141096Y0012046D01*
X0140999Y0012171D01*
X0140904Y0012298D01*
X0140813Y0012427D01*
X0140724Y0012558D01*
X0140640Y0012692D01*
X0140558Y0012828D01*
X0140480Y0012965D01*
X0140406Y0013105D01*
X0140335Y0013247D01*
X0140267Y0013390D01*
X0140203Y0013535D01*
X0140143Y0013681D01*
X0140087Y0013829D01*
X0140034Y0013978D01*
X0139985Y0014129D01*
X0139940Y0014281D01*
X0139899Y0014434D01*
X0139861Y0014587D01*
X0139828Y0014742D01*
X0139798Y0014898D01*
X0139772Y0015054D01*
X0139751Y0015211D01*
X0139733Y0015368D01*
X0139719Y0015526D01*
X0139709Y0015684D01*
X0139703Y0015842D01*
X0139701Y0016000D01*
X0139701Y0276000D02*
X0139703Y0276158D01*
X0139709Y0276316D01*
X0139719Y0276474D01*
X0139733Y0276632D01*
X0139751Y0276789D01*
X0139772Y0276946D01*
X0139798Y0277102D01*
X0139828Y0277258D01*
X0139861Y0277413D01*
X0139899Y0277566D01*
X0139940Y0277719D01*
X0139985Y0277871D01*
X0140034Y0278022D01*
X0140087Y0278171D01*
X0140143Y0278319D01*
X0140203Y0278465D01*
X0140267Y0278610D01*
X0140335Y0278753D01*
X0140406Y0278895D01*
X0140480Y0279035D01*
X0140558Y0279172D01*
X0140640Y0279308D01*
X0140724Y0279442D01*
X0140813Y0279573D01*
X0140904Y0279702D01*
X0140999Y0279829D01*
X0141096Y0279954D01*
X0141197Y0280076D01*
X0141301Y0280195D01*
X0141408Y0280312D01*
X0141518Y0280426D01*
X0141631Y0280537D01*
X0141746Y0280646D01*
X0141864Y0280751D01*
X0141985Y0280853D01*
X0142108Y0280953D01*
X0142234Y0281049D01*
X0142362Y0281142D01*
X0142492Y0281232D01*
X0142625Y0281318D01*
X0142760Y0281402D01*
X0142896Y0281481D01*
X0143035Y0281558D01*
X0143176Y0281630D01*
X0143318Y0281700D01*
X0143462Y0281765D01*
X0143608Y0281827D01*
X0143755Y0281885D01*
X0143904Y0281940D01*
X0144054Y0281991D01*
X0144205Y0282038D01*
X0144357Y0282081D01*
X0144510Y0282120D01*
X0144665Y0282156D01*
X0144820Y0282187D01*
X0144976Y0282215D01*
X0145132Y0282239D01*
X0145289Y0282259D01*
X0145447Y0282275D01*
X0145604Y0282287D01*
X0145763Y0282295D01*
X0145921Y0282299D01*
X0146079Y0282299D01*
X0146237Y0282295D01*
X0146396Y0282287D01*
X0146553Y0282275D01*
X0146711Y0282259D01*
X0146868Y0282239D01*
X0147024Y0282215D01*
X0147180Y0282187D01*
X0147335Y0282156D01*
X0147490Y0282120D01*
X0147643Y0282081D01*
X0147795Y0282038D01*
X0147946Y0281991D01*
X0148096Y0281940D01*
X0148245Y0281885D01*
X0148392Y0281827D01*
X0148538Y0281765D01*
X0148682Y0281700D01*
X0148824Y0281630D01*
X0148965Y0281558D01*
X0149104Y0281481D01*
X0149240Y0281402D01*
X0149375Y0281318D01*
X0149508Y0281232D01*
X0149638Y0281142D01*
X0149766Y0281049D01*
X0149892Y0280953D01*
X0150015Y0280853D01*
X0150136Y0280751D01*
X0150254Y0280646D01*
X0150369Y0280537D01*
X0150482Y0280426D01*
X0150592Y0280312D01*
X0150699Y0280195D01*
X0150803Y0280076D01*
X0150904Y0279954D01*
X0151001Y0279829D01*
X0151096Y0279702D01*
X0151187Y0279573D01*
X0151276Y0279442D01*
X0151360Y0279308D01*
X0151442Y0279172D01*
X0151520Y0279035D01*
X0151594Y0278895D01*
X0151665Y0278753D01*
X0151733Y0278610D01*
X0151797Y0278465D01*
X0151857Y0278319D01*
X0151913Y0278171D01*
X0151966Y0278022D01*
X0152015Y0277871D01*
X0152060Y0277719D01*
X0152101Y0277566D01*
X0152139Y0277413D01*
X0152172Y0277258D01*
X0152202Y0277102D01*
X0152228Y0276946D01*
X0152249Y0276789D01*
X0152267Y0276632D01*
X0152281Y0276474D01*
X0152291Y0276316D01*
X0152297Y0276158D01*
X0152299Y0276000D01*
X0152297Y0275842D01*
X0152291Y0275684D01*
X0152281Y0275526D01*
X0152267Y0275368D01*
X0152249Y0275211D01*
X0152228Y0275054D01*
X0152202Y0274898D01*
X0152172Y0274742D01*
X0152139Y0274587D01*
X0152101Y0274434D01*
X0152060Y0274281D01*
X0152015Y0274129D01*
X0151966Y0273978D01*
X0151913Y0273829D01*
X0151857Y0273681D01*
X0151797Y0273535D01*
X0151733Y0273390D01*
X0151665Y0273247D01*
X0151594Y0273105D01*
X0151520Y0272965D01*
X0151442Y0272828D01*
X0151360Y0272692D01*
X0151276Y0272558D01*
X0151187Y0272427D01*
X0151096Y0272298D01*
X0151001Y0272171D01*
X0150904Y0272046D01*
X0150803Y0271924D01*
X0150699Y0271805D01*
X0150592Y0271688D01*
X0150482Y0271574D01*
X0150369Y0271463D01*
X0150254Y0271354D01*
X0150136Y0271249D01*
X0150015Y0271147D01*
X0149892Y0271047D01*
X0149766Y0270951D01*
X0149638Y0270858D01*
X0149508Y0270768D01*
X0149375Y0270682D01*
X0149240Y0270598D01*
X0149104Y0270519D01*
X0148965Y0270442D01*
X0148824Y0270370D01*
X0148682Y0270300D01*
X0148538Y0270235D01*
X0148392Y0270173D01*
X0148245Y0270115D01*
X0148096Y0270060D01*
X0147946Y0270009D01*
X0147795Y0269962D01*
X0147643Y0269919D01*
X0147490Y0269880D01*
X0147335Y0269844D01*
X0147180Y0269813D01*
X0147024Y0269785D01*
X0146868Y0269761D01*
X0146711Y0269741D01*
X0146553Y0269725D01*
X0146396Y0269713D01*
X0146237Y0269705D01*
X0146079Y0269701D01*
X0145921Y0269701D01*
X0145763Y0269705D01*
X0145604Y0269713D01*
X0145447Y0269725D01*
X0145289Y0269741D01*
X0145132Y0269761D01*
X0144976Y0269785D01*
X0144820Y0269813D01*
X0144665Y0269844D01*
X0144510Y0269880D01*
X0144357Y0269919D01*
X0144205Y0269962D01*
X0144054Y0270009D01*
X0143904Y0270060D01*
X0143755Y0270115D01*
X0143608Y0270173D01*
X0143462Y0270235D01*
X0143318Y0270300D01*
X0143176Y0270370D01*
X0143035Y0270442D01*
X0142896Y0270519D01*
X0142760Y0270598D01*
X0142625Y0270682D01*
X0142492Y0270768D01*
X0142362Y0270858D01*
X0142234Y0270951D01*
X0142108Y0271047D01*
X0141985Y0271147D01*
X0141864Y0271249D01*
X0141746Y0271354D01*
X0141631Y0271463D01*
X0141518Y0271574D01*
X0141408Y0271688D01*
X0141301Y0271805D01*
X0141197Y0271924D01*
X0141096Y0272046D01*
X0140999Y0272171D01*
X0140904Y0272298D01*
X0140813Y0272427D01*
X0140724Y0272558D01*
X0140640Y0272692D01*
X0140558Y0272828D01*
X0140480Y0272965D01*
X0140406Y0273105D01*
X0140335Y0273247D01*
X0140267Y0273390D01*
X0140203Y0273535D01*
X0140143Y0273681D01*
X0140087Y0273829D01*
X0140034Y0273978D01*
X0139985Y0274129D01*
X0139940Y0274281D01*
X0139899Y0274434D01*
X0139861Y0274587D01*
X0139828Y0274742D01*
X0139798Y0274898D01*
X0139772Y0275054D01*
X0139751Y0275211D01*
X0139733Y0275368D01*
X0139719Y0275526D01*
X0139709Y0275684D01*
X0139703Y0275842D01*
X0139701Y0276000D01*
X0009701Y0276000D02*
X0009703Y0276158D01*
X0009709Y0276316D01*
X0009719Y0276474D01*
X0009733Y0276632D01*
X0009751Y0276789D01*
X0009772Y0276946D01*
X0009798Y0277102D01*
X0009828Y0277258D01*
X0009861Y0277413D01*
X0009899Y0277566D01*
X0009940Y0277719D01*
X0009985Y0277871D01*
X0010034Y0278022D01*
X0010087Y0278171D01*
X0010143Y0278319D01*
X0010203Y0278465D01*
X0010267Y0278610D01*
X0010335Y0278753D01*
X0010406Y0278895D01*
X0010480Y0279035D01*
X0010558Y0279172D01*
X0010640Y0279308D01*
X0010724Y0279442D01*
X0010813Y0279573D01*
X0010904Y0279702D01*
X0010999Y0279829D01*
X0011096Y0279954D01*
X0011197Y0280076D01*
X0011301Y0280195D01*
X0011408Y0280312D01*
X0011518Y0280426D01*
X0011631Y0280537D01*
X0011746Y0280646D01*
X0011864Y0280751D01*
X0011985Y0280853D01*
X0012108Y0280953D01*
X0012234Y0281049D01*
X0012362Y0281142D01*
X0012492Y0281232D01*
X0012625Y0281318D01*
X0012760Y0281402D01*
X0012896Y0281481D01*
X0013035Y0281558D01*
X0013176Y0281630D01*
X0013318Y0281700D01*
X0013462Y0281765D01*
X0013608Y0281827D01*
X0013755Y0281885D01*
X0013904Y0281940D01*
X0014054Y0281991D01*
X0014205Y0282038D01*
X0014357Y0282081D01*
X0014510Y0282120D01*
X0014665Y0282156D01*
X0014820Y0282187D01*
X0014976Y0282215D01*
X0015132Y0282239D01*
X0015289Y0282259D01*
X0015447Y0282275D01*
X0015604Y0282287D01*
X0015763Y0282295D01*
X0015921Y0282299D01*
X0016079Y0282299D01*
X0016237Y0282295D01*
X0016396Y0282287D01*
X0016553Y0282275D01*
X0016711Y0282259D01*
X0016868Y0282239D01*
X0017024Y0282215D01*
X0017180Y0282187D01*
X0017335Y0282156D01*
X0017490Y0282120D01*
X0017643Y0282081D01*
X0017795Y0282038D01*
X0017946Y0281991D01*
X0018096Y0281940D01*
X0018245Y0281885D01*
X0018392Y0281827D01*
X0018538Y0281765D01*
X0018682Y0281700D01*
X0018824Y0281630D01*
X0018965Y0281558D01*
X0019104Y0281481D01*
X0019240Y0281402D01*
X0019375Y0281318D01*
X0019508Y0281232D01*
X0019638Y0281142D01*
X0019766Y0281049D01*
X0019892Y0280953D01*
X0020015Y0280853D01*
X0020136Y0280751D01*
X0020254Y0280646D01*
X0020369Y0280537D01*
X0020482Y0280426D01*
X0020592Y0280312D01*
X0020699Y0280195D01*
X0020803Y0280076D01*
X0020904Y0279954D01*
X0021001Y0279829D01*
X0021096Y0279702D01*
X0021187Y0279573D01*
X0021276Y0279442D01*
X0021360Y0279308D01*
X0021442Y0279172D01*
X0021520Y0279035D01*
X0021594Y0278895D01*
X0021665Y0278753D01*
X0021733Y0278610D01*
X0021797Y0278465D01*
X0021857Y0278319D01*
X0021913Y0278171D01*
X0021966Y0278022D01*
X0022015Y0277871D01*
X0022060Y0277719D01*
X0022101Y0277566D01*
X0022139Y0277413D01*
X0022172Y0277258D01*
X0022202Y0277102D01*
X0022228Y0276946D01*
X0022249Y0276789D01*
X0022267Y0276632D01*
X0022281Y0276474D01*
X0022291Y0276316D01*
X0022297Y0276158D01*
X0022299Y0276000D01*
X0022297Y0275842D01*
X0022291Y0275684D01*
X0022281Y0275526D01*
X0022267Y0275368D01*
X0022249Y0275211D01*
X0022228Y0275054D01*
X0022202Y0274898D01*
X0022172Y0274742D01*
X0022139Y0274587D01*
X0022101Y0274434D01*
X0022060Y0274281D01*
X0022015Y0274129D01*
X0021966Y0273978D01*
X0021913Y0273829D01*
X0021857Y0273681D01*
X0021797Y0273535D01*
X0021733Y0273390D01*
X0021665Y0273247D01*
X0021594Y0273105D01*
X0021520Y0272965D01*
X0021442Y0272828D01*
X0021360Y0272692D01*
X0021276Y0272558D01*
X0021187Y0272427D01*
X0021096Y0272298D01*
X0021001Y0272171D01*
X0020904Y0272046D01*
X0020803Y0271924D01*
X0020699Y0271805D01*
X0020592Y0271688D01*
X0020482Y0271574D01*
X0020369Y0271463D01*
X0020254Y0271354D01*
X0020136Y0271249D01*
X0020015Y0271147D01*
X0019892Y0271047D01*
X0019766Y0270951D01*
X0019638Y0270858D01*
X0019508Y0270768D01*
X0019375Y0270682D01*
X0019240Y0270598D01*
X0019104Y0270519D01*
X0018965Y0270442D01*
X0018824Y0270370D01*
X0018682Y0270300D01*
X0018538Y0270235D01*
X0018392Y0270173D01*
X0018245Y0270115D01*
X0018096Y0270060D01*
X0017946Y0270009D01*
X0017795Y0269962D01*
X0017643Y0269919D01*
X0017490Y0269880D01*
X0017335Y0269844D01*
X0017180Y0269813D01*
X0017024Y0269785D01*
X0016868Y0269761D01*
X0016711Y0269741D01*
X0016553Y0269725D01*
X0016396Y0269713D01*
X0016237Y0269705D01*
X0016079Y0269701D01*
X0015921Y0269701D01*
X0015763Y0269705D01*
X0015604Y0269713D01*
X0015447Y0269725D01*
X0015289Y0269741D01*
X0015132Y0269761D01*
X0014976Y0269785D01*
X0014820Y0269813D01*
X0014665Y0269844D01*
X0014510Y0269880D01*
X0014357Y0269919D01*
X0014205Y0269962D01*
X0014054Y0270009D01*
X0013904Y0270060D01*
X0013755Y0270115D01*
X0013608Y0270173D01*
X0013462Y0270235D01*
X0013318Y0270300D01*
X0013176Y0270370D01*
X0013035Y0270442D01*
X0012896Y0270519D01*
X0012760Y0270598D01*
X0012625Y0270682D01*
X0012492Y0270768D01*
X0012362Y0270858D01*
X0012234Y0270951D01*
X0012108Y0271047D01*
X0011985Y0271147D01*
X0011864Y0271249D01*
X0011746Y0271354D01*
X0011631Y0271463D01*
X0011518Y0271574D01*
X0011408Y0271688D01*
X0011301Y0271805D01*
X0011197Y0271924D01*
X0011096Y0272046D01*
X0010999Y0272171D01*
X0010904Y0272298D01*
X0010813Y0272427D01*
X0010724Y0272558D01*
X0010640Y0272692D01*
X0010558Y0272828D01*
X0010480Y0272965D01*
X0010406Y0273105D01*
X0010335Y0273247D01*
X0010267Y0273390D01*
X0010203Y0273535D01*
X0010143Y0273681D01*
X0010087Y0273829D01*
X0010034Y0273978D01*
X0009985Y0274129D01*
X0009940Y0274281D01*
X0009899Y0274434D01*
X0009861Y0274587D01*
X0009828Y0274742D01*
X0009798Y0274898D01*
X0009772Y0275054D01*
X0009751Y0275211D01*
X0009733Y0275368D01*
X0009719Y0275526D01*
X0009709Y0275684D01*
X0009703Y0275842D01*
X0009701Y0276000D01*
X0269701Y0276000D02*
X0269703Y0276158D01*
X0269709Y0276316D01*
X0269719Y0276474D01*
X0269733Y0276632D01*
X0269751Y0276789D01*
X0269772Y0276946D01*
X0269798Y0277102D01*
X0269828Y0277258D01*
X0269861Y0277413D01*
X0269899Y0277566D01*
X0269940Y0277719D01*
X0269985Y0277871D01*
X0270034Y0278022D01*
X0270087Y0278171D01*
X0270143Y0278319D01*
X0270203Y0278465D01*
X0270267Y0278610D01*
X0270335Y0278753D01*
X0270406Y0278895D01*
X0270480Y0279035D01*
X0270558Y0279172D01*
X0270640Y0279308D01*
X0270724Y0279442D01*
X0270813Y0279573D01*
X0270904Y0279702D01*
X0270999Y0279829D01*
X0271096Y0279954D01*
X0271197Y0280076D01*
X0271301Y0280195D01*
X0271408Y0280312D01*
X0271518Y0280426D01*
X0271631Y0280537D01*
X0271746Y0280646D01*
X0271864Y0280751D01*
X0271985Y0280853D01*
X0272108Y0280953D01*
X0272234Y0281049D01*
X0272362Y0281142D01*
X0272492Y0281232D01*
X0272625Y0281318D01*
X0272760Y0281402D01*
X0272896Y0281481D01*
X0273035Y0281558D01*
X0273176Y0281630D01*
X0273318Y0281700D01*
X0273462Y0281765D01*
X0273608Y0281827D01*
X0273755Y0281885D01*
X0273904Y0281940D01*
X0274054Y0281991D01*
X0274205Y0282038D01*
X0274357Y0282081D01*
X0274510Y0282120D01*
X0274665Y0282156D01*
X0274820Y0282187D01*
X0274976Y0282215D01*
X0275132Y0282239D01*
X0275289Y0282259D01*
X0275447Y0282275D01*
X0275604Y0282287D01*
X0275763Y0282295D01*
X0275921Y0282299D01*
X0276079Y0282299D01*
X0276237Y0282295D01*
X0276396Y0282287D01*
X0276553Y0282275D01*
X0276711Y0282259D01*
X0276868Y0282239D01*
X0277024Y0282215D01*
X0277180Y0282187D01*
X0277335Y0282156D01*
X0277490Y0282120D01*
X0277643Y0282081D01*
X0277795Y0282038D01*
X0277946Y0281991D01*
X0278096Y0281940D01*
X0278245Y0281885D01*
X0278392Y0281827D01*
X0278538Y0281765D01*
X0278682Y0281700D01*
X0278824Y0281630D01*
X0278965Y0281558D01*
X0279104Y0281481D01*
X0279240Y0281402D01*
X0279375Y0281318D01*
X0279508Y0281232D01*
X0279638Y0281142D01*
X0279766Y0281049D01*
X0279892Y0280953D01*
X0280015Y0280853D01*
X0280136Y0280751D01*
X0280254Y0280646D01*
X0280369Y0280537D01*
X0280482Y0280426D01*
X0280592Y0280312D01*
X0280699Y0280195D01*
X0280803Y0280076D01*
X0280904Y0279954D01*
X0281001Y0279829D01*
X0281096Y0279702D01*
X0281187Y0279573D01*
X0281276Y0279442D01*
X0281360Y0279308D01*
X0281442Y0279172D01*
X0281520Y0279035D01*
X0281594Y0278895D01*
X0281665Y0278753D01*
X0281733Y0278610D01*
X0281797Y0278465D01*
X0281857Y0278319D01*
X0281913Y0278171D01*
X0281966Y0278022D01*
X0282015Y0277871D01*
X0282060Y0277719D01*
X0282101Y0277566D01*
X0282139Y0277413D01*
X0282172Y0277258D01*
X0282202Y0277102D01*
X0282228Y0276946D01*
X0282249Y0276789D01*
X0282267Y0276632D01*
X0282281Y0276474D01*
X0282291Y0276316D01*
X0282297Y0276158D01*
X0282299Y0276000D01*
X0282297Y0275842D01*
X0282291Y0275684D01*
X0282281Y0275526D01*
X0282267Y0275368D01*
X0282249Y0275211D01*
X0282228Y0275054D01*
X0282202Y0274898D01*
X0282172Y0274742D01*
X0282139Y0274587D01*
X0282101Y0274434D01*
X0282060Y0274281D01*
X0282015Y0274129D01*
X0281966Y0273978D01*
X0281913Y0273829D01*
X0281857Y0273681D01*
X0281797Y0273535D01*
X0281733Y0273390D01*
X0281665Y0273247D01*
X0281594Y0273105D01*
X0281520Y0272965D01*
X0281442Y0272828D01*
X0281360Y0272692D01*
X0281276Y0272558D01*
X0281187Y0272427D01*
X0281096Y0272298D01*
X0281001Y0272171D01*
X0280904Y0272046D01*
X0280803Y0271924D01*
X0280699Y0271805D01*
X0280592Y0271688D01*
X0280482Y0271574D01*
X0280369Y0271463D01*
X0280254Y0271354D01*
X0280136Y0271249D01*
X0280015Y0271147D01*
X0279892Y0271047D01*
X0279766Y0270951D01*
X0279638Y0270858D01*
X0279508Y0270768D01*
X0279375Y0270682D01*
X0279240Y0270598D01*
X0279104Y0270519D01*
X0278965Y0270442D01*
X0278824Y0270370D01*
X0278682Y0270300D01*
X0278538Y0270235D01*
X0278392Y0270173D01*
X0278245Y0270115D01*
X0278096Y0270060D01*
X0277946Y0270009D01*
X0277795Y0269962D01*
X0277643Y0269919D01*
X0277490Y0269880D01*
X0277335Y0269844D01*
X0277180Y0269813D01*
X0277024Y0269785D01*
X0276868Y0269761D01*
X0276711Y0269741D01*
X0276553Y0269725D01*
X0276396Y0269713D01*
X0276237Y0269705D01*
X0276079Y0269701D01*
X0275921Y0269701D01*
X0275763Y0269705D01*
X0275604Y0269713D01*
X0275447Y0269725D01*
X0275289Y0269741D01*
X0275132Y0269761D01*
X0274976Y0269785D01*
X0274820Y0269813D01*
X0274665Y0269844D01*
X0274510Y0269880D01*
X0274357Y0269919D01*
X0274205Y0269962D01*
X0274054Y0270009D01*
X0273904Y0270060D01*
X0273755Y0270115D01*
X0273608Y0270173D01*
X0273462Y0270235D01*
X0273318Y0270300D01*
X0273176Y0270370D01*
X0273035Y0270442D01*
X0272896Y0270519D01*
X0272760Y0270598D01*
X0272625Y0270682D01*
X0272492Y0270768D01*
X0272362Y0270858D01*
X0272234Y0270951D01*
X0272108Y0271047D01*
X0271985Y0271147D01*
X0271864Y0271249D01*
X0271746Y0271354D01*
X0271631Y0271463D01*
X0271518Y0271574D01*
X0271408Y0271688D01*
X0271301Y0271805D01*
X0271197Y0271924D01*
X0271096Y0272046D01*
X0270999Y0272171D01*
X0270904Y0272298D01*
X0270813Y0272427D01*
X0270724Y0272558D01*
X0270640Y0272692D01*
X0270558Y0272828D01*
X0270480Y0272965D01*
X0270406Y0273105D01*
X0270335Y0273247D01*
X0270267Y0273390D01*
X0270203Y0273535D01*
X0270143Y0273681D01*
X0270087Y0273829D01*
X0270034Y0273978D01*
X0269985Y0274129D01*
X0269940Y0274281D01*
X0269899Y0274434D01*
X0269861Y0274587D01*
X0269828Y0274742D01*
X0269798Y0274898D01*
X0269772Y0275054D01*
X0269751Y0275211D01*
X0269733Y0275368D01*
X0269719Y0275526D01*
X0269709Y0275684D01*
X0269703Y0275842D01*
X0269701Y0276000D01*
D11*
X0156000Y0093402D03*
X0156000Y0068598D03*
D12*
X0183598Y0111000D03*
X0208402Y0111000D03*
D13*
X0171000Y0084346D03*
X0171000Y0077654D03*
D14*
X0187654Y0096000D03*
X0194346Y0096000D03*
D15*
X0215370Y0076000D03*
D16*
X0187102Y0067024D03*
X0187102Y0084976D03*
D17*
X0266000Y0081000D03*
X0266000Y0071000D03*
X0276000Y0071000D03*
X0276000Y0081000D03*
X0276000Y0091000D03*
X0276000Y0101000D03*
X0266000Y0101000D03*
X0266000Y0091000D03*
X0266000Y0061000D03*
X0276000Y0061000D03*
D18*
X0120331Y0157260D03*
X0120331Y0164740D03*
X0111669Y0161000D03*
X0120331Y0187260D03*
X0120331Y0194740D03*
X0111669Y0191000D03*
X0120331Y0217260D03*
X0120331Y0224740D03*
X0111669Y0221000D03*
X0120331Y0247260D03*
X0120331Y0254740D03*
X0111669Y0251000D03*
D19*
X0132260Y0246000D03*
X0139740Y0246000D03*
X0139740Y0256000D03*
X0132260Y0256000D03*
X0132260Y0226000D03*
X0139740Y0226000D03*
X0139740Y0216000D03*
X0132260Y0216000D03*
X0132260Y0196000D03*
X0139740Y0196000D03*
X0139740Y0186000D03*
X0132260Y0186000D03*
X0132260Y0166000D03*
X0139740Y0166000D03*
X0139740Y0156000D03*
X0132260Y0156000D03*
X0194760Y0126000D03*
X0202240Y0126000D03*
X0212260Y0126000D03*
X0219740Y0126000D03*
X0229760Y0246000D03*
X0237240Y0246000D03*
D20*
X0213800Y0237100D03*
X0213800Y0254900D03*
X0188200Y0254900D03*
X0188200Y0237100D03*
D21*
X0101000Y0251000D03*
X0091000Y0251000D03*
X0091000Y0221000D03*
X0101000Y0221000D03*
X0101000Y0191000D03*
X0091000Y0191000D03*
X0091000Y0161000D03*
X0101000Y0161000D03*
X0051000Y0161000D03*
X0051000Y0191000D03*
X0051000Y0221000D03*
X0051000Y0251000D03*
X0021000Y0251000D03*
X0021000Y0221000D03*
X0021000Y0191000D03*
X0021000Y0161000D03*
X0021000Y0131000D03*
X0021000Y0111000D03*
X0126000Y0111000D03*
X0126000Y0071000D03*
D22*
X0251000Y0246000D03*
X0251000Y0256000D03*
D23*
X0021000Y0046000D03*
X0021000Y0016000D03*
X0041000Y0016000D03*
X0061000Y0016000D03*
X0081000Y0016000D03*
X0101000Y0016000D03*
X0186000Y0016000D03*
X0216000Y0016000D03*
X0246000Y0016000D03*
X0271000Y0016000D03*
D24*
X0249701Y0134130D02*
X0249701Y0143304D01*
X0252969Y0143304D01*
X0252969Y0134130D01*
X0249701Y0134130D01*
X0249701Y0134798D02*
X0252969Y0134798D01*
X0252969Y0135466D02*
X0249701Y0135466D01*
X0249701Y0136134D02*
X0252969Y0136134D01*
X0252969Y0136802D02*
X0249701Y0136802D01*
X0249701Y0137470D02*
X0252969Y0137470D01*
X0252969Y0138138D02*
X0249701Y0138138D01*
X0249701Y0138806D02*
X0252969Y0138806D01*
X0252969Y0139474D02*
X0249701Y0139474D01*
X0249701Y0140142D02*
X0252969Y0140142D01*
X0252969Y0140810D02*
X0249701Y0140810D01*
X0249701Y0141478D02*
X0252969Y0141478D01*
X0252969Y0142146D02*
X0249701Y0142146D01*
X0249701Y0142814D02*
X0252969Y0142814D01*
D25*
X0243461Y0138717D03*
X0235587Y0138717D03*
X0227713Y0138717D03*
X0219839Y0138717D03*
X0211965Y0138717D03*
X0204091Y0138717D03*
X0196591Y0138717D03*
X0196591Y0203283D03*
X0204091Y0203283D03*
X0211965Y0203283D03*
X0219839Y0203283D03*
X0227713Y0203283D03*
X0235587Y0203283D03*
X0243461Y0203283D03*
X0251335Y0203283D03*
D26*
X0196000Y0217260D03*
X0196000Y0224740D03*
D27*
X0138402Y0111000D02*
X0126000Y0111000D01*
X0138402Y0111000D02*
X0156000Y0093402D01*
X0161945Y0093402D01*
X0171000Y0084346D01*
X0186472Y0084346D01*
X0187102Y0084976D01*
X0176472Y0077654D02*
X0187102Y0067024D01*
X0187102Y0068598D01*
X0156000Y0068598D01*
X0156000Y0071000D01*
X0126000Y0071000D01*
X0171000Y0077654D02*
X0176472Y0077654D01*
D28*
X0187102Y0084976D02*
X0187102Y0095449D01*
X0187654Y0096000D01*
X0194346Y0096000D02*
X0206000Y0096000D01*
X0206000Y0085370D01*
X0215370Y0076000D01*
X0132260Y0156000D02*
X0132260Y0166000D01*
X0131000Y0157260D02*
X0132260Y0156000D01*
X0131000Y0157260D02*
X0120331Y0157260D01*
X0111669Y0161000D02*
X0101000Y0161000D01*
X0120331Y0187260D02*
X0131000Y0187260D01*
X0132260Y0186000D01*
X0132260Y0196000D01*
X0132260Y0216000D02*
X0132260Y0226000D01*
X0131000Y0217260D02*
X0132260Y0216000D01*
X0131000Y0217260D02*
X0120331Y0217260D01*
X0111669Y0221000D02*
X0101000Y0221000D01*
X0120331Y0247260D02*
X0131000Y0247260D01*
X0132260Y0246000D01*
X0132260Y0256000D01*
X0111669Y0251000D02*
X0101000Y0251000D01*
X0101000Y0191000D02*
X0111669Y0191000D01*
D29*
X0116000Y0197581D02*
X0116000Y0214038D01*
X0116746Y0213291D01*
X0123915Y0213291D01*
X0124684Y0214060D01*
X0127701Y0214060D01*
X0127701Y0212022D01*
X0128872Y0210850D01*
X0135647Y0210850D01*
X0136000Y0211203D01*
X0136353Y0210850D01*
X0139690Y0210850D01*
X0142000Y0208540D01*
X0142000Y0207704D01*
X0142609Y0206234D01*
X0143734Y0205109D01*
X0145204Y0204500D01*
X0146796Y0204500D01*
X0148266Y0205109D01*
X0149391Y0206234D01*
X0150000Y0207704D01*
X0150000Y0209296D01*
X0149391Y0210766D01*
X0148266Y0211891D01*
X0146796Y0212500D01*
X0145960Y0212500D01*
X0144299Y0214161D01*
X0144299Y0219978D01*
X0143128Y0221150D01*
X0142906Y0221150D01*
X0142994Y0221173D01*
X0143404Y0221410D01*
X0143740Y0221745D01*
X0143977Y0222156D01*
X0144099Y0222613D01*
X0144099Y0225520D01*
X0140220Y0225520D01*
X0140220Y0226480D01*
X0139261Y0226480D01*
X0139261Y0230950D01*
X0136944Y0230950D01*
X0136486Y0230827D01*
X0136159Y0230638D01*
X0135647Y0231150D01*
X0128872Y0231150D01*
X0127701Y0229978D01*
X0127701Y0222022D01*
X0128723Y0221000D01*
X0128183Y0220460D01*
X0124684Y0220460D01*
X0123951Y0221192D01*
X0124192Y0221331D01*
X0124527Y0221666D01*
X0124764Y0222077D01*
X0124887Y0222535D01*
X0124887Y0224556D01*
X0120515Y0224556D01*
X0120515Y0224924D01*
X0124887Y0224924D01*
X0124887Y0226946D01*
X0124764Y0227403D01*
X0124527Y0227814D01*
X0124192Y0228149D01*
X0123781Y0228386D01*
X0123324Y0228509D01*
X0120515Y0228509D01*
X0120515Y0224924D01*
X0120146Y0224924D01*
X0120146Y0228509D01*
X0117338Y0228509D01*
X0116880Y0228386D01*
X0116470Y0228149D01*
X0116134Y0227814D01*
X0116000Y0227581D01*
X0116000Y0244038D01*
X0116746Y0243291D01*
X0123915Y0243291D01*
X0124684Y0244060D01*
X0127701Y0244060D01*
X0127701Y0242022D01*
X0128872Y0240850D01*
X0135647Y0240850D01*
X0136000Y0241203D01*
X0136353Y0240850D01*
X0142190Y0240850D01*
X0144500Y0238540D01*
X0144500Y0237704D01*
X0145109Y0236234D01*
X0146234Y0235109D01*
X0147704Y0234500D01*
X0149296Y0234500D01*
X0150766Y0235109D01*
X0151891Y0236234D01*
X0152500Y0237704D01*
X0152500Y0239296D01*
X0151891Y0240766D01*
X0150766Y0241891D01*
X0149296Y0242500D01*
X0148460Y0242500D01*
X0144299Y0246661D01*
X0144299Y0249978D01*
X0143128Y0251150D01*
X0142906Y0251150D01*
X0142994Y0251173D01*
X0143404Y0251410D01*
X0143740Y0251745D01*
X0143977Y0252156D01*
X0144099Y0252613D01*
X0144099Y0255520D01*
X0140220Y0255520D01*
X0140220Y0256480D01*
X0139261Y0256480D01*
X0139261Y0260950D01*
X0136944Y0260950D01*
X0136486Y0260827D01*
X0136159Y0260638D01*
X0135647Y0261150D01*
X0128872Y0261150D01*
X0127701Y0259978D01*
X0127701Y0252022D01*
X0128723Y0251000D01*
X0128183Y0250460D01*
X0124684Y0250460D01*
X0123951Y0251192D01*
X0124192Y0251331D01*
X0124527Y0251666D01*
X0124764Y0252077D01*
X0124887Y0252535D01*
X0124887Y0254556D01*
X0120515Y0254556D01*
X0120515Y0254924D01*
X0124887Y0254924D01*
X0124887Y0256946D01*
X0124764Y0257403D01*
X0124527Y0257814D01*
X0124192Y0258149D01*
X0123781Y0258386D01*
X0123324Y0258509D01*
X0120515Y0258509D01*
X0120515Y0254924D01*
X0120146Y0254924D01*
X0120146Y0258509D01*
X0117338Y0258509D01*
X0116880Y0258386D01*
X0116470Y0258149D01*
X0116134Y0257814D01*
X0116000Y0257581D01*
X0116000Y0286000D01*
X0141122Y0286000D01*
X0139185Y0284882D01*
X0137118Y0282815D01*
X0135657Y0280284D01*
X0134901Y0277461D01*
X0134901Y0274539D01*
X0135657Y0271716D01*
X0137118Y0269185D01*
X0139185Y0267118D01*
X0141716Y0265657D01*
X0144539Y0264901D01*
X0147461Y0264901D01*
X0150284Y0265657D01*
X0152815Y0267118D01*
X0154882Y0269185D01*
X0156343Y0271716D01*
X0157099Y0274539D01*
X0157099Y0277461D01*
X0156343Y0280284D01*
X0154882Y0282815D01*
X0152815Y0284882D01*
X0150878Y0286000D01*
X0271122Y0286000D01*
X0269185Y0284882D01*
X0267118Y0282815D01*
X0265657Y0280284D01*
X0264901Y0277461D01*
X0264901Y0274539D01*
X0265657Y0271716D01*
X0267118Y0269185D01*
X0269185Y0267118D01*
X0271716Y0265657D01*
X0274539Y0264901D01*
X0277461Y0264901D01*
X0280284Y0265657D01*
X0282815Y0267118D01*
X0284882Y0269185D01*
X0286000Y0271122D01*
X0286000Y0167281D01*
X0285874Y0167586D01*
X0285000Y0168460D01*
X0285000Y0169296D01*
X0284391Y0170766D01*
X0283266Y0171891D01*
X0281796Y0172500D01*
X0280204Y0172500D01*
X0278734Y0171891D01*
X0277609Y0170766D01*
X0277000Y0169296D01*
X0277000Y0167704D01*
X0277609Y0166234D01*
X0278734Y0165109D01*
X0280204Y0164500D01*
X0280700Y0164500D01*
X0280700Y0140260D01*
X0276300Y0144660D01*
X0276300Y0194057D01*
X0275874Y0195086D01*
X0275086Y0195874D01*
X0265303Y0205657D01*
X0264273Y0206083D01*
X0255303Y0206083D01*
X0255303Y0209033D01*
X0254132Y0210205D01*
X0248538Y0210205D01*
X0247398Y0209065D01*
X0246258Y0210205D01*
X0240664Y0210205D01*
X0239524Y0209065D01*
X0238384Y0210205D01*
X0232790Y0210205D01*
X0231650Y0209065D01*
X0230510Y0210205D01*
X0224916Y0210205D01*
X0223776Y0209065D01*
X0222636Y0210205D01*
X0221300Y0210205D01*
X0221300Y0210643D01*
X0221891Y0211234D01*
X0222500Y0212704D01*
X0222500Y0214296D01*
X0221891Y0215766D01*
X0220766Y0216891D01*
X0219296Y0217500D01*
X0217704Y0217500D01*
X0216234Y0216891D01*
X0215109Y0215766D01*
X0214500Y0214296D01*
X0214500Y0212704D01*
X0215109Y0211234D01*
X0215700Y0210643D01*
X0215700Y0209266D01*
X0214761Y0210205D01*
X0209168Y0210205D01*
X0208028Y0209065D01*
X0206887Y0210205D01*
X0201294Y0210205D01*
X0200341Y0209252D01*
X0199391Y0210202D01*
X0199391Y0212701D01*
X0199978Y0212701D01*
X0201150Y0213872D01*
X0201150Y0220647D01*
X0200797Y0221000D01*
X0201150Y0221353D01*
X0201150Y0221940D01*
X0218600Y0221940D01*
X0226126Y0214414D01*
X0226914Y0213626D01*
X0227943Y0213200D01*
X0233143Y0213200D01*
X0233734Y0212609D01*
X0235204Y0212000D01*
X0236796Y0212000D01*
X0238266Y0212609D01*
X0239391Y0213734D01*
X0240000Y0215204D01*
X0240000Y0216796D01*
X0239391Y0218266D01*
X0238266Y0219391D01*
X0236796Y0220000D01*
X0235204Y0220000D01*
X0233734Y0219391D01*
X0233143Y0218800D01*
X0229660Y0218800D01*
X0223576Y0224883D01*
X0223800Y0225423D01*
X0223800Y0246557D01*
X0223374Y0247586D01*
X0222586Y0248374D01*
X0218824Y0252135D01*
X0219500Y0253766D01*
X0219500Y0256034D01*
X0218632Y0258129D01*
X0217029Y0259732D01*
X0214934Y0260600D01*
X0212666Y0260600D01*
X0210571Y0259732D01*
X0208968Y0258129D01*
X0208790Y0257700D01*
X0193210Y0257700D01*
X0193032Y0258129D01*
X0191429Y0259732D01*
X0189334Y0260600D01*
X0187066Y0260600D01*
X0184971Y0259732D01*
X0183368Y0258129D01*
X0182500Y0256034D01*
X0182500Y0253766D01*
X0183368Y0251671D01*
X0184971Y0250068D01*
X0187066Y0249200D01*
X0189334Y0249200D01*
X0191429Y0250068D01*
X0193032Y0251671D01*
X0193210Y0252100D01*
X0208790Y0252100D01*
X0208968Y0251671D01*
X0210571Y0250068D01*
X0212666Y0249200D01*
X0213840Y0249200D01*
X0218200Y0244840D01*
X0218200Y0240401D01*
X0217995Y0240683D01*
X0217383Y0241295D01*
X0216683Y0241804D01*
X0215911Y0242197D01*
X0215088Y0242465D01*
X0214233Y0242600D01*
X0214000Y0242600D01*
X0214000Y0237300D01*
X0213600Y0237300D01*
X0213600Y0242600D01*
X0213367Y0242600D01*
X0212512Y0242465D01*
X0211689Y0242197D01*
X0210917Y0241804D01*
X0210217Y0241295D01*
X0209605Y0240683D01*
X0209096Y0239983D01*
X0208703Y0239211D01*
X0208435Y0238388D01*
X0208300Y0237533D01*
X0208300Y0237300D01*
X0213600Y0237300D01*
X0213600Y0236900D01*
X0214000Y0236900D01*
X0214000Y0231600D01*
X0214233Y0231600D01*
X0215088Y0231735D01*
X0215911Y0232003D01*
X0216683Y0232396D01*
X0217383Y0232905D01*
X0217995Y0233517D01*
X0218200Y0233799D01*
X0218200Y0227540D01*
X0201150Y0227540D01*
X0201150Y0228128D01*
X0199978Y0229299D01*
X0192022Y0229299D01*
X0190850Y0228128D01*
X0190850Y0221353D01*
X0191203Y0221000D01*
X0190850Y0220647D01*
X0190850Y0213872D01*
X0192022Y0212701D01*
X0193791Y0212701D01*
X0193791Y0210202D01*
X0192622Y0209033D01*
X0192622Y0206083D01*
X0182727Y0206083D01*
X0181697Y0205657D01*
X0176914Y0200874D01*
X0176126Y0200086D01*
X0175700Y0199057D01*
X0175700Y0130443D01*
X0176126Y0129414D01*
X0179500Y0126040D01*
X0179500Y0125204D01*
X0180109Y0123734D01*
X0181234Y0122609D01*
X0182704Y0122000D01*
X0184296Y0122000D01*
X0185766Y0122609D01*
X0186891Y0123734D01*
X0187500Y0125204D01*
X0187500Y0126796D01*
X0186891Y0128266D01*
X0185766Y0129391D01*
X0184296Y0130000D01*
X0183460Y0130000D01*
X0181300Y0132160D01*
X0181300Y0197340D01*
X0184443Y0200483D01*
X0192622Y0200483D01*
X0192622Y0197534D01*
X0193794Y0196362D01*
X0199387Y0196362D01*
X0200341Y0197315D01*
X0200700Y0196956D01*
X0200700Y0188857D01*
X0200109Y0188266D01*
X0199500Y0186796D01*
X0199500Y0185204D01*
X0200109Y0183734D01*
X0201234Y0182609D01*
X0202704Y0182000D01*
X0204296Y0182000D01*
X0205766Y0182609D01*
X0206891Y0183734D01*
X0207500Y0185204D01*
X0207500Y0186796D01*
X0206891Y0188266D01*
X0206300Y0188857D01*
X0206300Y0196362D01*
X0206887Y0196362D01*
X0208028Y0197502D01*
X0208200Y0197330D01*
X0208200Y0196357D01*
X0207609Y0195766D01*
X0207000Y0194296D01*
X0207000Y0192704D01*
X0207609Y0191234D01*
X0208734Y0190109D01*
X0210204Y0189500D01*
X0211796Y0189500D01*
X0213266Y0190109D01*
X0214391Y0191234D01*
X0215000Y0192704D01*
X0215000Y0194296D01*
X0214391Y0195766D01*
X0213800Y0196357D01*
X0213800Y0196362D01*
X0214761Y0196362D01*
X0215902Y0197502D01*
X0217042Y0196362D01*
X0222636Y0196362D01*
X0223776Y0197502D01*
X0224916Y0196362D01*
X0225700Y0196362D01*
X0225700Y0181918D01*
X0224296Y0182500D01*
X0222704Y0182500D01*
X0221234Y0181891D01*
X0220109Y0180766D01*
X0219500Y0179296D01*
X0219500Y0178460D01*
X0201717Y0160677D01*
X0201291Y0159648D01*
X0201291Y0145635D01*
X0200146Y0144490D01*
X0199999Y0144743D01*
X0199664Y0145078D01*
X0199254Y0145315D01*
X0198796Y0145438D01*
X0196775Y0145438D01*
X0196775Y0138901D01*
X0196406Y0138901D01*
X0196406Y0138532D01*
X0196775Y0138532D01*
X0196775Y0131995D01*
X0198796Y0131995D01*
X0199254Y0132118D01*
X0199440Y0132226D01*
X0199440Y0131150D01*
X0198853Y0131150D01*
X0198341Y0130638D01*
X0198014Y0130827D01*
X0197556Y0130950D01*
X0195239Y0130950D01*
X0195239Y0126480D01*
X0194280Y0126480D01*
X0194280Y0130950D01*
X0191964Y0130950D01*
X0191506Y0130827D01*
X0191096Y0130590D01*
X0190760Y0130255D01*
X0190523Y0129844D01*
X0190401Y0129387D01*
X0190401Y0126480D01*
X0194280Y0126480D01*
X0194280Y0125520D01*
X0195239Y0125520D01*
X0195239Y0121050D01*
X0197556Y0121050D01*
X0198014Y0121173D01*
X0198341Y0121362D01*
X0198853Y0120850D01*
X0200142Y0120850D01*
X0199584Y0120619D01*
X0198881Y0119916D01*
X0198500Y0118997D01*
X0198500Y0100187D01*
X0197734Y0100953D01*
X0190959Y0100953D01*
X0190694Y0100687D01*
X0190450Y0100753D01*
X0188133Y0100753D01*
X0188133Y0096480D01*
X0187174Y0096480D01*
X0187174Y0100753D01*
X0184858Y0100753D01*
X0184400Y0100630D01*
X0183989Y0100393D01*
X0183654Y0100058D01*
X0183417Y0099648D01*
X0183294Y0099190D01*
X0183294Y0096480D01*
X0187174Y0096480D01*
X0187174Y0095520D01*
X0188133Y0095520D01*
X0188133Y0091247D01*
X0190450Y0091247D01*
X0190694Y0091313D01*
X0190959Y0091047D01*
X0197734Y0091047D01*
X0198500Y0091813D01*
X0198500Y0056000D01*
X0116000Y0056000D01*
X0116000Y0154038D01*
X0116746Y0153291D01*
X0123915Y0153291D01*
X0124684Y0154060D01*
X0127701Y0154060D01*
X0127701Y0152022D01*
X0128872Y0150850D01*
X0135647Y0150850D01*
X0136000Y0151203D01*
X0136353Y0150850D01*
X0136940Y0150850D01*
X0136940Y0146703D01*
X0137000Y0146558D01*
X0137000Y0145204D01*
X0137609Y0143734D01*
X0138734Y0142609D01*
X0140204Y0142000D01*
X0141796Y0142000D01*
X0143266Y0142609D01*
X0144391Y0143734D01*
X0145000Y0145204D01*
X0145000Y0146796D01*
X0144391Y0148266D01*
X0143266Y0149391D01*
X0142540Y0149692D01*
X0142540Y0150850D01*
X0143128Y0150850D01*
X0144299Y0152022D01*
X0144299Y0159978D01*
X0143128Y0161150D01*
X0142906Y0161150D01*
X0142994Y0161173D01*
X0143404Y0161410D01*
X0143740Y0161745D01*
X0143977Y0162156D01*
X0144099Y0162613D01*
X0144099Y0165520D01*
X0140220Y0165520D01*
X0140220Y0166480D01*
X0139261Y0166480D01*
X0139261Y0170950D01*
X0136944Y0170950D01*
X0136486Y0170827D01*
X0136159Y0170638D01*
X0135647Y0171150D01*
X0128872Y0171150D01*
X0127701Y0169978D01*
X0127701Y0162022D01*
X0128723Y0161000D01*
X0128183Y0160460D01*
X0124684Y0160460D01*
X0123951Y0161192D01*
X0124192Y0161331D01*
X0124527Y0161666D01*
X0124764Y0162077D01*
X0124887Y0162535D01*
X0124887Y0164556D01*
X0120515Y0164556D01*
X0120515Y0164924D01*
X0124887Y0164924D01*
X0124887Y0166946D01*
X0124764Y0167403D01*
X0124527Y0167814D01*
X0124192Y0168149D01*
X0123781Y0168386D01*
X0123324Y0168509D01*
X0120515Y0168509D01*
X0120515Y0164924D01*
X0120146Y0164924D01*
X0120146Y0168509D01*
X0117338Y0168509D01*
X0116880Y0168386D01*
X0116470Y0168149D01*
X0116134Y0167814D01*
X0116000Y0167581D01*
X0116000Y0184038D01*
X0116746Y0183291D01*
X0123915Y0183291D01*
X0124684Y0184060D01*
X0127701Y0184060D01*
X0127701Y0182022D01*
X0128872Y0180850D01*
X0135647Y0180850D01*
X0136000Y0181203D01*
X0136353Y0180850D01*
X0136940Y0180850D01*
X0136940Y0179203D01*
X0137000Y0179058D01*
X0137000Y0177704D01*
X0137609Y0176234D01*
X0138734Y0175109D01*
X0140204Y0174500D01*
X0141796Y0174500D01*
X0143266Y0175109D01*
X0144391Y0176234D01*
X0145000Y0177704D01*
X0145000Y0179296D01*
X0144391Y0180766D01*
X0143717Y0181440D01*
X0144299Y0182022D01*
X0144299Y0189978D01*
X0143128Y0191150D01*
X0142906Y0191150D01*
X0142994Y0191173D01*
X0143404Y0191410D01*
X0143740Y0191745D01*
X0143977Y0192156D01*
X0144099Y0192613D01*
X0144099Y0195520D01*
X0140220Y0195520D01*
X0140220Y0196480D01*
X0139261Y0196480D01*
X0139261Y0200950D01*
X0136944Y0200950D01*
X0136486Y0200827D01*
X0136159Y0200638D01*
X0135647Y0201150D01*
X0128872Y0201150D01*
X0127701Y0199978D01*
X0127701Y0192022D01*
X0128723Y0191000D01*
X0128183Y0190460D01*
X0124684Y0190460D01*
X0123951Y0191192D01*
X0124192Y0191331D01*
X0124527Y0191666D01*
X0124764Y0192077D01*
X0124887Y0192535D01*
X0124887Y0194556D01*
X0120515Y0194556D01*
X0120515Y0194924D01*
X0124887Y0194924D01*
X0124887Y0196946D01*
X0124764Y0197403D01*
X0124527Y0197814D01*
X0124192Y0198149D01*
X0123781Y0198386D01*
X0123324Y0198509D01*
X0120515Y0198509D01*
X0120515Y0194924D01*
X0120146Y0194924D01*
X0120146Y0198509D01*
X0117338Y0198509D01*
X0116880Y0198386D01*
X0116470Y0198149D01*
X0116134Y0197814D01*
X0116000Y0197581D01*
X0116000Y0197617D02*
X0116021Y0197617D01*
X0116000Y0199215D02*
X0127701Y0199215D01*
X0127701Y0197617D02*
X0124641Y0197617D01*
X0124887Y0196018D02*
X0127701Y0196018D01*
X0127701Y0194420D02*
X0124887Y0194420D01*
X0124887Y0192821D02*
X0127701Y0192821D01*
X0128500Y0191223D02*
X0124004Y0191223D01*
X0120331Y0194740D02*
X0120331Y0200331D01*
X0126000Y0206000D01*
X0136000Y0206000D01*
X0141000Y0201000D01*
X0141000Y0197260D01*
X0146000Y0197260D01*
X0146000Y0176000D01*
X0139740Y0169740D01*
X0139740Y0166000D01*
X0141000Y0166000D01*
X0146000Y0161000D01*
X0146000Y0141000D01*
X0156000Y0131000D01*
X0156000Y0126000D01*
X0148500Y0118500D01*
X0131190Y0113150D02*
X0131462Y0112311D01*
X0131600Y0111441D01*
X0131600Y0111200D01*
X0126200Y0111200D01*
X0126200Y0110800D01*
X0131600Y0110800D01*
X0131600Y0110559D01*
X0131462Y0109689D01*
X0131190Y0108850D01*
X0130790Y0108065D01*
X0130271Y0107352D01*
X0129648Y0106729D01*
X0128935Y0106210D01*
X0128150Y0105810D01*
X0127311Y0105538D01*
X0126441Y0105400D01*
X0126200Y0105400D01*
X0126200Y0110800D01*
X0125800Y0110800D01*
X0125800Y0105400D01*
X0125559Y0105400D01*
X0124689Y0105538D01*
X0123850Y0105810D01*
X0123065Y0106210D01*
X0122352Y0106729D01*
X0121729Y0107352D01*
X0121210Y0108065D01*
X0120810Y0108850D01*
X0120538Y0109689D01*
X0120400Y0110559D01*
X0120400Y0110800D01*
X0125800Y0110800D01*
X0125800Y0111200D01*
X0125800Y0116600D01*
X0125559Y0116600D01*
X0124689Y0116462D01*
X0123850Y0116190D01*
X0123065Y0115790D01*
X0122352Y0115271D01*
X0121729Y0114648D01*
X0121210Y0113935D01*
X0120810Y0113150D01*
X0120538Y0112311D01*
X0120400Y0111441D01*
X0120400Y0111200D01*
X0125800Y0111200D01*
X0126200Y0111200D01*
X0126200Y0116600D01*
X0126441Y0116600D01*
X0127311Y0116462D01*
X0128150Y0116190D01*
X0128935Y0115790D01*
X0129648Y0115271D01*
X0130271Y0114648D01*
X0130790Y0113935D01*
X0131190Y0113150D01*
X0131272Y0112896D02*
X0177074Y0112896D01*
X0177074Y0111800D02*
X0182798Y0111800D01*
X0182798Y0110200D01*
X0177074Y0110200D01*
X0177074Y0105251D01*
X0177197Y0104793D01*
X0177434Y0104383D01*
X0177769Y0104048D01*
X0178179Y0103811D01*
X0178637Y0103688D01*
X0182798Y0103688D01*
X0182798Y0110200D01*
X0184398Y0110200D01*
X0184398Y0103688D01*
X0188560Y0103688D01*
X0189018Y0103811D01*
X0189428Y0104048D01*
X0189763Y0104383D01*
X0190000Y0104793D01*
X0190123Y0105251D01*
X0190123Y0110200D01*
X0184398Y0110200D01*
X0184398Y0111800D01*
X0182798Y0111800D01*
X0182798Y0118312D01*
X0178637Y0118312D01*
X0178179Y0118189D01*
X0177769Y0117952D01*
X0177434Y0117617D01*
X0177197Y0117207D01*
X0177074Y0116749D01*
X0177074Y0111800D01*
X0176098Y0111098D02*
X0171000Y0106000D01*
X0168598Y0106000D01*
X0156000Y0093402D01*
X0156800Y0093714D02*
X0183294Y0093714D01*
X0183294Y0092810D02*
X0183294Y0095520D01*
X0187174Y0095520D01*
X0187174Y0091247D01*
X0184858Y0091247D01*
X0184400Y0091370D01*
X0183989Y0091607D01*
X0183654Y0091942D01*
X0183417Y0092352D01*
X0183294Y0092810D01*
X0183554Y0092115D02*
X0163312Y0092115D01*
X0163312Y0092602D02*
X0163312Y0088440D01*
X0163189Y0087982D01*
X0162952Y0087572D01*
X0162617Y0087237D01*
X0162207Y0087000D01*
X0161749Y0086877D01*
X0156800Y0086877D01*
X0156800Y0092602D01*
X0156800Y0094202D01*
X0155200Y0094202D01*
X0155200Y0099926D01*
X0150251Y0099926D01*
X0149793Y0099803D01*
X0149383Y0099566D01*
X0149048Y0099231D01*
X0148811Y0098821D01*
X0148688Y0098363D01*
X0148688Y0094202D01*
X0155200Y0094202D01*
X0155200Y0092602D01*
X0148688Y0092602D01*
X0148688Y0088440D01*
X0148811Y0087982D01*
X0149048Y0087572D01*
X0149383Y0087237D01*
X0149793Y0087000D01*
X0150251Y0086877D01*
X0155200Y0086877D01*
X0155200Y0092602D01*
X0156800Y0092602D01*
X0163312Y0092602D01*
X0163312Y0094202D02*
X0163312Y0098363D01*
X0163189Y0098821D01*
X0162952Y0099231D01*
X0162617Y0099566D01*
X0162207Y0099803D01*
X0161749Y0099926D01*
X0156800Y0099926D01*
X0156800Y0094202D01*
X0163312Y0094202D01*
X0163312Y0095312D02*
X0183294Y0095312D01*
X0183294Y0096911D02*
X0163312Y0096911D01*
X0163273Y0098509D02*
X0183294Y0098509D01*
X0183704Y0100108D02*
X0116000Y0100108D01*
X0116000Y0101706D02*
X0198500Y0101706D01*
X0198500Y0103305D02*
X0116000Y0103305D01*
X0116000Y0104903D02*
X0177167Y0104903D01*
X0177074Y0106502D02*
X0129336Y0106502D01*
X0130808Y0108100D02*
X0177074Y0108100D01*
X0177074Y0109699D02*
X0131464Y0109699D01*
X0131600Y0111297D02*
X0182798Y0111297D01*
X0183500Y0111098D02*
X0176098Y0111098D01*
X0177074Y0114494D02*
X0130383Y0114494D01*
X0128340Y0116093D02*
X0177074Y0116093D01*
X0177508Y0117691D02*
X0116000Y0117691D01*
X0116000Y0116093D02*
X0123660Y0116093D01*
X0125800Y0116093D02*
X0126200Y0116093D01*
X0126200Y0114494D02*
X0125800Y0114494D01*
X0125800Y0112896D02*
X0126200Y0112896D01*
X0126200Y0111297D02*
X0125800Y0111297D01*
X0125800Y0109699D02*
X0126200Y0109699D01*
X0126200Y0108100D02*
X0125800Y0108100D01*
X0125800Y0106502D02*
X0126200Y0106502D01*
X0122664Y0106502D02*
X0116000Y0106502D01*
X0116000Y0108100D02*
X0121192Y0108100D01*
X0120536Y0109699D02*
X0116000Y0109699D01*
X0116000Y0111297D02*
X0120400Y0111297D01*
X0120728Y0112896D02*
X0116000Y0112896D01*
X0116000Y0114494D02*
X0121617Y0114494D01*
X0116000Y0119290D02*
X0198621Y0119290D01*
X0198500Y0117691D02*
X0189689Y0117691D01*
X0189763Y0117617D02*
X0189428Y0117952D01*
X0189018Y0118189D01*
X0188560Y0118312D01*
X0184398Y0118312D01*
X0184398Y0111800D01*
X0190123Y0111800D01*
X0190123Y0116749D01*
X0190000Y0117207D01*
X0189763Y0117617D01*
X0190123Y0116093D02*
X0198500Y0116093D01*
X0198500Y0114494D02*
X0190123Y0114494D01*
X0190123Y0112896D02*
X0198500Y0112896D01*
X0198500Y0111297D02*
X0184398Y0111297D01*
X0183598Y0111000D02*
X0194760Y0122161D01*
X0194760Y0126000D01*
X0196591Y0127831D01*
X0196591Y0138717D01*
X0196406Y0138901D02*
X0192822Y0138901D01*
X0192822Y0143875D01*
X0192945Y0144333D01*
X0193182Y0144743D01*
X0193517Y0145078D01*
X0193927Y0145315D01*
X0194385Y0145438D01*
X0196406Y0145438D01*
X0196406Y0138901D01*
X0196406Y0138532D02*
X0192822Y0138532D01*
X0192822Y0133558D01*
X0192945Y0133100D01*
X0193182Y0132690D01*
X0193517Y0132355D01*
X0193927Y0132118D01*
X0194385Y0131995D01*
X0196406Y0131995D01*
X0196406Y0138532D01*
X0196406Y0138472D02*
X0196775Y0138472D01*
X0196775Y0140070D02*
X0196406Y0140070D01*
X0196406Y0141669D02*
X0196775Y0141669D01*
X0196775Y0143268D02*
X0196406Y0143268D01*
X0196406Y0144866D02*
X0196775Y0144866D01*
X0199876Y0144866D02*
X0200522Y0144866D01*
X0201291Y0146465D02*
X0181300Y0146465D01*
X0181300Y0148063D02*
X0201291Y0148063D01*
X0201291Y0149662D02*
X0181300Y0149662D01*
X0181300Y0151260D02*
X0201291Y0151260D01*
X0201291Y0152859D02*
X0181300Y0152859D01*
X0181300Y0154457D02*
X0201291Y0154457D01*
X0201291Y0156056D02*
X0181300Y0156056D01*
X0181300Y0157654D02*
X0201291Y0157654D01*
X0201291Y0159253D02*
X0181300Y0159253D01*
X0181300Y0160851D02*
X0201891Y0160851D01*
X0203490Y0162450D02*
X0181300Y0162450D01*
X0181300Y0164048D02*
X0205088Y0164048D01*
X0206687Y0165647D02*
X0181300Y0165647D01*
X0181300Y0167245D02*
X0208285Y0167245D01*
X0209884Y0168844D02*
X0181300Y0168844D01*
X0181300Y0170442D02*
X0211482Y0170442D01*
X0213081Y0172041D02*
X0181300Y0172041D01*
X0181300Y0173639D02*
X0214679Y0173639D01*
X0216278Y0175238D02*
X0181300Y0175238D01*
X0181300Y0176836D02*
X0217876Y0176836D01*
X0219475Y0178435D02*
X0181300Y0178435D01*
X0181300Y0180033D02*
X0219806Y0180033D01*
X0220975Y0181632D02*
X0181300Y0181632D01*
X0181300Y0183230D02*
X0200613Y0183230D01*
X0199656Y0184829D02*
X0181300Y0184829D01*
X0181300Y0186427D02*
X0199500Y0186427D01*
X0200010Y0188026D02*
X0181300Y0188026D01*
X0181300Y0189624D02*
X0200700Y0189624D01*
X0200700Y0191223D02*
X0181300Y0191223D01*
X0181300Y0192821D02*
X0200700Y0192821D01*
X0200700Y0194420D02*
X0181300Y0194420D01*
X0181300Y0196018D02*
X0200700Y0196018D01*
X0206300Y0196018D02*
X0207862Y0196018D01*
X0207051Y0194420D02*
X0206300Y0194420D01*
X0206300Y0192821D02*
X0207000Y0192821D01*
X0207620Y0191223D02*
X0206300Y0191223D01*
X0206300Y0189624D02*
X0209904Y0189624D01*
X0212096Y0189624D02*
X0225700Y0189624D01*
X0225700Y0188026D02*
X0206990Y0188026D01*
X0207500Y0186427D02*
X0225700Y0186427D01*
X0225700Y0184829D02*
X0207344Y0184829D01*
X0206387Y0183230D02*
X0225700Y0183230D01*
X0223500Y0178500D02*
X0204091Y0159091D01*
X0204091Y0138717D01*
X0202240Y0136866D01*
X0202240Y0126000D01*
X0198815Y0120888D02*
X0116000Y0120888D01*
X0116000Y0122487D02*
X0181529Y0122487D01*
X0179963Y0124085D02*
X0116000Y0124085D01*
X0116000Y0125684D02*
X0179500Y0125684D01*
X0178258Y0127282D02*
X0116000Y0127282D01*
X0116000Y0128881D02*
X0176659Y0128881D01*
X0175700Y0130479D02*
X0116000Y0130479D01*
X0116000Y0132078D02*
X0175700Y0132078D01*
X0175700Y0133676D02*
X0116000Y0133676D01*
X0116000Y0135275D02*
X0175700Y0135275D01*
X0175700Y0136873D02*
X0116000Y0136873D01*
X0116000Y0138472D02*
X0175700Y0138472D01*
X0175700Y0140070D02*
X0116000Y0140070D01*
X0116000Y0141669D02*
X0175700Y0141669D01*
X0175700Y0143268D02*
X0143924Y0143268D01*
X0144860Y0144866D02*
X0175700Y0144866D01*
X0175700Y0146465D02*
X0145000Y0146465D01*
X0144475Y0148063D02*
X0175700Y0148063D01*
X0175700Y0149662D02*
X0142613Y0149662D01*
X0143537Y0151260D02*
X0175700Y0151260D01*
X0175700Y0152859D02*
X0144299Y0152859D01*
X0144299Y0154457D02*
X0175700Y0154457D01*
X0175700Y0156056D02*
X0144299Y0156056D01*
X0144299Y0157654D02*
X0175700Y0157654D01*
X0175700Y0159253D02*
X0144299Y0159253D01*
X0143426Y0160851D02*
X0175700Y0160851D01*
X0175700Y0162450D02*
X0144055Y0162450D01*
X0144099Y0164048D02*
X0175700Y0164048D01*
X0175700Y0165647D02*
X0140220Y0165647D01*
X0139740Y0166000D02*
X0141000Y0167260D01*
X0141000Y0171000D01*
X0136000Y0176000D01*
X0126000Y0176000D01*
X0120331Y0170331D01*
X0120331Y0164740D01*
X0120146Y0165647D02*
X0120515Y0165647D01*
X0120515Y0167245D02*
X0120146Y0167245D01*
X0124806Y0167245D02*
X0127701Y0167245D01*
X0127701Y0165647D02*
X0124887Y0165647D01*
X0124887Y0164048D02*
X0127701Y0164048D01*
X0127701Y0162450D02*
X0124864Y0162450D01*
X0124292Y0160851D02*
X0128574Y0160851D01*
X0127701Y0168844D02*
X0116000Y0168844D01*
X0116000Y0170442D02*
X0128165Y0170442D01*
X0137000Y0178435D02*
X0116000Y0178435D01*
X0116000Y0180033D02*
X0136940Y0180033D01*
X0139740Y0179760D02*
X0141000Y0178500D01*
X0139740Y0179760D02*
X0139740Y0186000D01*
X0144299Y0186427D02*
X0175700Y0186427D01*
X0175700Y0184829D02*
X0144299Y0184829D01*
X0144299Y0183230D02*
X0175700Y0183230D01*
X0175700Y0181632D02*
X0143909Y0181632D01*
X0144694Y0180033D02*
X0175700Y0180033D01*
X0175700Y0178435D02*
X0145000Y0178435D01*
X0144640Y0176836D02*
X0175700Y0176836D01*
X0175700Y0175238D02*
X0143395Y0175238D01*
X0142536Y0170950D02*
X0140220Y0170950D01*
X0140220Y0166480D01*
X0144099Y0166480D01*
X0144099Y0169387D01*
X0143977Y0169844D01*
X0143740Y0170255D01*
X0143404Y0170590D01*
X0142994Y0170827D01*
X0142536Y0170950D01*
X0143552Y0170442D02*
X0175700Y0170442D01*
X0175700Y0168844D02*
X0144099Y0168844D01*
X0144099Y0167245D02*
X0175700Y0167245D01*
X0175700Y0172041D02*
X0116000Y0172041D01*
X0116000Y0173639D02*
X0175700Y0173639D01*
X0175700Y0188026D02*
X0144299Y0188026D01*
X0144299Y0189624D02*
X0175700Y0189624D01*
X0175700Y0191223D02*
X0143080Y0191223D01*
X0144099Y0192821D02*
X0175700Y0192821D01*
X0175700Y0194420D02*
X0144099Y0194420D01*
X0144099Y0196480D02*
X0140220Y0196480D01*
X0140220Y0200950D01*
X0142536Y0200950D01*
X0142994Y0200827D01*
X0143404Y0200590D01*
X0143740Y0200255D01*
X0143977Y0199844D01*
X0144099Y0199387D01*
X0144099Y0196480D01*
X0144099Y0197617D02*
X0175700Y0197617D01*
X0175700Y0196018D02*
X0140220Y0196018D01*
X0139740Y0196000D02*
X0141000Y0197260D01*
X0140220Y0197617D02*
X0139261Y0197617D01*
X0139261Y0199215D02*
X0140220Y0199215D01*
X0140220Y0200814D02*
X0139261Y0200814D01*
X0136464Y0200814D02*
X0135983Y0200814D01*
X0143017Y0200814D02*
X0176854Y0200814D01*
X0175766Y0199215D02*
X0144099Y0199215D01*
X0146000Y0197260D02*
X0147260Y0197260D01*
X0151000Y0201000D01*
X0151000Y0216000D01*
X0141000Y0226000D01*
X0139740Y0226000D01*
X0141000Y0227260D01*
X0141000Y0231000D01*
X0136000Y0236000D01*
X0126000Y0236000D01*
X0120331Y0230331D01*
X0120331Y0224740D01*
X0120515Y0224792D02*
X0127701Y0224792D01*
X0127701Y0226390D02*
X0124887Y0226390D01*
X0124352Y0227989D02*
X0127701Y0227989D01*
X0127701Y0229587D02*
X0116000Y0229587D01*
X0116000Y0227989D02*
X0116309Y0227989D01*
X0116000Y0231186D02*
X0218200Y0231186D01*
X0218200Y0232784D02*
X0217217Y0232784D01*
X0214000Y0232784D02*
X0213600Y0232784D01*
X0213600Y0231600D02*
X0213600Y0236900D01*
X0208300Y0236900D01*
X0208300Y0236667D01*
X0208435Y0235812D01*
X0208703Y0234989D01*
X0209096Y0234217D01*
X0209605Y0233517D01*
X0210217Y0232905D01*
X0210917Y0232396D01*
X0211689Y0232003D01*
X0212512Y0231735D01*
X0213367Y0231600D01*
X0213600Y0231600D01*
X0213600Y0234383D02*
X0214000Y0234383D01*
X0214000Y0235981D02*
X0213600Y0235981D01*
X0213800Y0237100D02*
X0188200Y0237100D01*
X0187100Y0236000D01*
X0181000Y0236000D01*
X0161000Y0256000D01*
X0139740Y0256000D01*
X0141000Y0257260D01*
X0141000Y0261000D01*
X0136000Y0266000D01*
X0126000Y0266000D01*
X0120331Y0260331D01*
X0120331Y0254740D01*
X0120146Y0255163D02*
X0120515Y0255163D01*
X0120515Y0256762D02*
X0120146Y0256762D01*
X0120146Y0258360D02*
X0120515Y0258360D01*
X0123826Y0258360D02*
X0127701Y0258360D01*
X0127701Y0256762D02*
X0124887Y0256762D01*
X0124887Y0255163D02*
X0127701Y0255163D01*
X0127701Y0253565D02*
X0124887Y0253565D01*
X0124700Y0251966D02*
X0127756Y0251966D01*
X0127701Y0243974D02*
X0124597Y0243974D01*
X0127701Y0242375D02*
X0116000Y0242375D01*
X0116000Y0240777D02*
X0142263Y0240777D01*
X0143862Y0239178D02*
X0116000Y0239178D01*
X0116000Y0237580D02*
X0144552Y0237580D01*
X0145362Y0235981D02*
X0116000Y0235981D01*
X0116000Y0234383D02*
X0183412Y0234383D01*
X0183496Y0234217D02*
X0184005Y0233517D01*
X0184617Y0232905D01*
X0185317Y0232396D01*
X0186089Y0232003D01*
X0186912Y0231735D01*
X0187767Y0231600D01*
X0188000Y0231600D01*
X0188000Y0236900D01*
X0188400Y0236900D01*
X0188400Y0237300D01*
X0193700Y0237300D01*
X0193700Y0237533D01*
X0193565Y0238388D01*
X0193297Y0239211D01*
X0192904Y0239983D01*
X0192395Y0240683D01*
X0191783Y0241295D01*
X0191083Y0241804D01*
X0190311Y0242197D01*
X0189488Y0242465D01*
X0188633Y0242600D01*
X0188400Y0242600D01*
X0188400Y0237300D01*
X0188000Y0237300D01*
X0188000Y0242600D01*
X0187767Y0242600D01*
X0186912Y0242465D01*
X0186089Y0242197D01*
X0185317Y0241804D01*
X0184617Y0241295D01*
X0184005Y0240683D01*
X0183496Y0239983D01*
X0183103Y0239211D01*
X0182835Y0238388D01*
X0182700Y0237533D01*
X0182700Y0237300D01*
X0188000Y0237300D01*
X0188000Y0236900D01*
X0182700Y0236900D01*
X0182700Y0236667D01*
X0182835Y0235812D01*
X0183103Y0234989D01*
X0183496Y0234217D01*
X0182809Y0235981D02*
X0151638Y0235981D01*
X0152448Y0237580D02*
X0182707Y0237580D01*
X0183092Y0239178D02*
X0152500Y0239178D01*
X0151880Y0240777D02*
X0184099Y0240777D01*
X0186637Y0242375D02*
X0149597Y0242375D01*
X0146986Y0243974D02*
X0218200Y0243974D01*
X0218200Y0242375D02*
X0215363Y0242375D01*
X0214000Y0242375D02*
X0213600Y0242375D01*
X0212237Y0242375D02*
X0189763Y0242375D01*
X0188400Y0242375D02*
X0188000Y0242375D01*
X0188000Y0240777D02*
X0188400Y0240777D01*
X0188400Y0239178D02*
X0188000Y0239178D01*
X0188000Y0237580D02*
X0188400Y0237580D01*
X0188400Y0236900D02*
X0193700Y0236900D01*
X0193700Y0236667D01*
X0193565Y0235812D01*
X0193297Y0234989D01*
X0192904Y0234217D01*
X0192395Y0233517D01*
X0191783Y0232905D01*
X0191083Y0232396D01*
X0190311Y0232003D01*
X0189488Y0231735D01*
X0188633Y0231600D01*
X0188400Y0231600D01*
X0188400Y0236900D01*
X0188400Y0235981D02*
X0188000Y0235981D01*
X0188000Y0234383D02*
X0188400Y0234383D01*
X0188400Y0232784D02*
X0188000Y0232784D01*
X0184783Y0232784D02*
X0116000Y0232784D01*
X0120146Y0227989D02*
X0120515Y0227989D01*
X0120515Y0226390D02*
X0120146Y0226390D01*
X0124887Y0223193D02*
X0127701Y0223193D01*
X0128128Y0221595D02*
X0124455Y0221595D01*
X0124226Y0213602D02*
X0127701Y0213602D01*
X0127719Y0212003D02*
X0116000Y0212003D01*
X0116000Y0210405D02*
X0140135Y0210405D01*
X0141734Y0208806D02*
X0116000Y0208806D01*
X0116000Y0207208D02*
X0142206Y0207208D01*
X0143234Y0205609D02*
X0116000Y0205609D01*
X0116000Y0204011D02*
X0180051Y0204011D01*
X0178453Y0202412D02*
X0116000Y0202412D01*
X0116000Y0200814D02*
X0128537Y0200814D01*
X0120515Y0197617D02*
X0120146Y0197617D01*
X0120146Y0196018D02*
X0120515Y0196018D01*
X0116000Y0183230D02*
X0127701Y0183230D01*
X0128091Y0181632D02*
X0116000Y0181632D01*
X0116000Y0176836D02*
X0137360Y0176836D01*
X0138605Y0175238D02*
X0116000Y0175238D01*
X0116000Y0152859D02*
X0127701Y0152859D01*
X0128463Y0151260D02*
X0116000Y0151260D01*
X0116000Y0149662D02*
X0136940Y0149662D01*
X0136940Y0148063D02*
X0116000Y0148063D01*
X0116000Y0146465D02*
X0137000Y0146465D01*
X0137140Y0144866D02*
X0116000Y0144866D01*
X0116000Y0143268D02*
X0138076Y0143268D01*
X0141000Y0146000D02*
X0139740Y0147260D01*
X0139740Y0156000D01*
X0139261Y0167245D02*
X0140220Y0167245D01*
X0140220Y0168844D02*
X0139261Y0168844D01*
X0139261Y0170442D02*
X0140220Y0170442D01*
X0148766Y0205609D02*
X0181650Y0205609D01*
X0183283Y0203283D02*
X0178500Y0198500D01*
X0178500Y0131000D01*
X0183500Y0126000D01*
X0186276Y0128881D02*
X0190401Y0128881D01*
X0190401Y0127282D02*
X0187298Y0127282D01*
X0187500Y0125684D02*
X0194280Y0125684D01*
X0194280Y0125520D02*
X0190401Y0125520D01*
X0190401Y0122613D01*
X0190523Y0122156D01*
X0190760Y0121745D01*
X0191096Y0121410D01*
X0191506Y0121173D01*
X0191964Y0121050D01*
X0194280Y0121050D01*
X0194280Y0125520D01*
X0194280Y0124085D02*
X0195239Y0124085D01*
X0195239Y0122487D02*
X0194280Y0122487D01*
X0190435Y0122487D02*
X0185471Y0122487D01*
X0187036Y0124085D02*
X0190401Y0124085D01*
X0194280Y0127282D02*
X0195239Y0127282D01*
X0195239Y0128881D02*
X0194280Y0128881D01*
X0194280Y0130479D02*
X0195239Y0130479D01*
X0194077Y0132078D02*
X0181382Y0132078D01*
X0181300Y0133676D02*
X0192822Y0133676D01*
X0192822Y0135275D02*
X0181300Y0135275D01*
X0181300Y0136873D02*
X0192822Y0136873D01*
X0192822Y0138472D02*
X0181300Y0138472D01*
X0181300Y0140070D02*
X0192822Y0140070D01*
X0192822Y0141669D02*
X0181300Y0141669D01*
X0181300Y0143268D02*
X0192822Y0143268D01*
X0193305Y0144866D02*
X0181300Y0144866D01*
X0182980Y0130479D02*
X0190985Y0130479D01*
X0196406Y0132078D02*
X0196775Y0132078D01*
X0196775Y0133676D02*
X0196406Y0133676D01*
X0196406Y0135275D02*
X0196775Y0135275D01*
X0196775Y0136873D02*
X0196406Y0136873D01*
X0199104Y0132078D02*
X0199440Y0132078D01*
X0211965Y0138717D02*
X0212260Y0138421D01*
X0212260Y0126000D01*
X0219740Y0126000D02*
X0219740Y0112240D01*
X0231000Y0123500D01*
X0231000Y0128500D01*
X0235587Y0126413D02*
X0241000Y0121000D01*
X0241000Y0093500D01*
X0258500Y0076000D01*
X0271000Y0076000D01*
X0276000Y0081000D01*
X0271129Y0073200D02*
X0271000Y0073071D01*
X0271000Y0068929D01*
X0268071Y0066000D01*
X0263929Y0066000D01*
X0261000Y0068929D01*
X0261000Y0073071D01*
X0261129Y0073200D01*
X0257943Y0073200D01*
X0256914Y0073626D01*
X0256126Y0074414D01*
X0238626Y0091914D01*
X0238500Y0092219D01*
X0238500Y0056000D01*
X0286000Y0056000D01*
X0286000Y0067219D01*
X0285874Y0066914D01*
X0285086Y0066126D01*
X0281000Y0062040D01*
X0281000Y0058929D01*
X0278071Y0056000D01*
X0273929Y0056000D01*
X0271000Y0058929D01*
X0271000Y0063071D01*
X0273929Y0066000D01*
X0277040Y0066000D01*
X0277040Y0066000D01*
X0273929Y0066000D01*
X0271000Y0068929D01*
X0271000Y0073071D01*
X0270871Y0073200D01*
X0271129Y0073200D01*
X0271000Y0072933D02*
X0271000Y0072933D01*
X0271000Y0071334D02*
X0271000Y0071334D01*
X0271000Y0069736D02*
X0271000Y0069736D01*
X0270209Y0068137D02*
X0271791Y0068137D01*
X0273390Y0066539D02*
X0268610Y0066539D01*
X0267988Y0065800D02*
X0266200Y0065800D01*
X0266200Y0061200D01*
X0265800Y0061200D01*
X0265800Y0065800D01*
X0264012Y0065800D01*
X0261200Y0062988D01*
X0261200Y0061200D01*
X0265800Y0061200D01*
X0265800Y0060800D01*
X0261200Y0060800D01*
X0261200Y0059012D01*
X0264012Y0056200D01*
X0265800Y0056200D01*
X0265800Y0060800D01*
X0266200Y0060800D01*
X0266200Y0061200D01*
X0270800Y0061200D01*
X0270800Y0062988D01*
X0267988Y0065800D01*
X0268848Y0064940D02*
X0272869Y0064940D01*
X0271271Y0063342D02*
X0270446Y0063342D01*
X0270800Y0061743D02*
X0271000Y0061743D01*
X0270800Y0060800D02*
X0266200Y0060800D01*
X0266200Y0056200D01*
X0267988Y0056200D01*
X0270800Y0059012D01*
X0270800Y0060800D01*
X0270800Y0060145D02*
X0271000Y0060145D01*
X0271383Y0058546D02*
X0270335Y0058546D01*
X0268736Y0056948D02*
X0272981Y0056948D01*
X0276000Y0061000D02*
X0283500Y0068500D01*
X0283500Y0166000D01*
X0281000Y0168500D01*
X0278196Y0165647D02*
X0276300Y0165647D01*
X0276300Y0167245D02*
X0277190Y0167245D01*
X0277000Y0168844D02*
X0276300Y0168844D01*
X0276300Y0170442D02*
X0277475Y0170442D01*
X0276300Y0172041D02*
X0279096Y0172041D01*
X0276300Y0173639D02*
X0286000Y0173639D01*
X0286000Y0172041D02*
X0282904Y0172041D01*
X0284525Y0170442D02*
X0286000Y0170442D01*
X0286000Y0168844D02*
X0285000Y0168844D01*
X0280700Y0164048D02*
X0276300Y0164048D01*
X0276300Y0162450D02*
X0280700Y0162450D01*
X0280700Y0160851D02*
X0276300Y0160851D01*
X0276300Y0159253D02*
X0280700Y0159253D01*
X0280700Y0157654D02*
X0276300Y0157654D01*
X0276300Y0156056D02*
X0280700Y0156056D01*
X0280700Y0154457D02*
X0276300Y0154457D01*
X0276300Y0152859D02*
X0280700Y0152859D01*
X0280700Y0151260D02*
X0276300Y0151260D01*
X0276300Y0149662D02*
X0280700Y0149662D01*
X0280700Y0148063D02*
X0276300Y0148063D01*
X0276300Y0146465D02*
X0280700Y0146465D01*
X0280700Y0144866D02*
X0276300Y0144866D01*
X0277692Y0143268D02*
X0280700Y0143268D01*
X0280700Y0141669D02*
X0279291Y0141669D01*
X0278500Y0138500D02*
X0273500Y0143500D01*
X0273500Y0193500D01*
X0263717Y0203283D01*
X0251335Y0203283D01*
X0255303Y0207208D02*
X0286000Y0207208D01*
X0286000Y0208806D02*
X0255303Y0208806D01*
X0265350Y0205609D02*
X0286000Y0205609D01*
X0286000Y0204011D02*
X0266949Y0204011D01*
X0268547Y0202412D02*
X0286000Y0202412D01*
X0286000Y0200814D02*
X0270146Y0200814D01*
X0271744Y0199215D02*
X0286000Y0199215D01*
X0286000Y0197617D02*
X0273343Y0197617D01*
X0274941Y0196018D02*
X0286000Y0196018D01*
X0286000Y0194420D02*
X0276150Y0194420D01*
X0276300Y0192821D02*
X0286000Y0192821D01*
X0286000Y0191223D02*
X0276300Y0191223D01*
X0276300Y0189624D02*
X0286000Y0189624D01*
X0286000Y0188026D02*
X0276300Y0188026D01*
X0276300Y0186427D02*
X0286000Y0186427D01*
X0286000Y0184829D02*
X0276300Y0184829D01*
X0276300Y0183230D02*
X0286000Y0183230D01*
X0286000Y0181632D02*
X0276300Y0181632D01*
X0276300Y0180033D02*
X0286000Y0180033D01*
X0286000Y0178435D02*
X0276300Y0178435D01*
X0276300Y0176836D02*
X0286000Y0176836D01*
X0286000Y0175238D02*
X0276300Y0175238D01*
X0271000Y0183500D02*
X0271000Y0116000D01*
X0276000Y0111000D01*
X0276000Y0101000D01*
X0268500Y0103500D02*
X0266000Y0101000D01*
X0261000Y0101000D01*
X0256000Y0106000D01*
X0256000Y0146000D01*
X0251000Y0151000D01*
X0258500Y0156000D02*
X0263500Y0151000D01*
X0263500Y0118500D01*
X0268500Y0103500D02*
X0268500Y0181000D01*
X0263500Y0186000D01*
X0246000Y0186000D01*
X0235587Y0196413D01*
X0235587Y0203283D01*
X0228500Y0202496D02*
X0227713Y0203283D01*
X0228500Y0202496D02*
X0228500Y0171000D01*
X0233500Y0156000D02*
X0258500Y0156000D01*
X0251335Y0138717D02*
X0251335Y0090665D01*
X0261000Y0081000D01*
X0266000Y0081000D01*
X0261000Y0072933D02*
X0238500Y0072933D01*
X0238500Y0071334D02*
X0261000Y0071334D01*
X0261000Y0069736D02*
X0238500Y0069736D01*
X0238500Y0068137D02*
X0261791Y0068137D01*
X0263390Y0066539D02*
X0238500Y0066539D01*
X0238500Y0064940D02*
X0263152Y0064940D01*
X0261554Y0063342D02*
X0238500Y0063342D01*
X0238500Y0061743D02*
X0261200Y0061743D01*
X0261000Y0061000D02*
X0251000Y0071000D01*
X0241000Y0071000D01*
X0238500Y0074532D02*
X0256009Y0074532D01*
X0254410Y0076130D02*
X0238500Y0076130D01*
X0238500Y0077729D02*
X0252812Y0077729D01*
X0251213Y0079327D02*
X0238500Y0079327D01*
X0238500Y0080926D02*
X0249615Y0080926D01*
X0248016Y0082524D02*
X0238500Y0082524D01*
X0238500Y0084123D02*
X0246418Y0084123D01*
X0244819Y0085721D02*
X0238500Y0085721D01*
X0238500Y0087320D02*
X0243221Y0087320D01*
X0241622Y0088918D02*
X0238500Y0088918D01*
X0238500Y0090517D02*
X0240024Y0090517D01*
X0238543Y0092115D02*
X0238500Y0092115D01*
X0219740Y0112240D02*
X0216000Y0108500D01*
X0208402Y0108500D01*
X0208402Y0098402D01*
X0206000Y0096000D01*
X0198500Y0090517D02*
X0163312Y0090517D01*
X0163312Y0088918D02*
X0179576Y0088918D01*
X0179520Y0088821D02*
X0179397Y0088363D01*
X0179397Y0085751D01*
X0186327Y0085751D01*
X0186327Y0084202D01*
X0179397Y0084202D01*
X0179397Y0081590D01*
X0179520Y0081132D01*
X0179756Y0080722D01*
X0180092Y0080386D01*
X0180502Y0080149D01*
X0180960Y0080027D01*
X0186328Y0080027D01*
X0186328Y0084201D01*
X0187877Y0084201D01*
X0187877Y0080027D01*
X0193245Y0080027D01*
X0193703Y0080149D01*
X0194113Y0080386D01*
X0194448Y0080722D01*
X0194685Y0081132D01*
X0194808Y0081590D01*
X0194808Y0084202D01*
X0187877Y0084202D01*
X0187877Y0085751D01*
X0186328Y0085751D01*
X0186328Y0089926D01*
X0180960Y0089926D01*
X0180502Y0089803D01*
X0180092Y0089566D01*
X0179756Y0089231D01*
X0179520Y0088821D01*
X0179397Y0087320D02*
X0175705Y0087320D01*
X0175753Y0087142D02*
X0175630Y0087600D01*
X0175393Y0088011D01*
X0175058Y0088346D01*
X0174648Y0088583D01*
X0174190Y0088705D01*
X0171480Y0088705D01*
X0171480Y0084826D01*
X0175753Y0084826D01*
X0175753Y0087142D01*
X0175753Y0085721D02*
X0186327Y0085721D01*
X0187877Y0085721D02*
X0198500Y0085721D01*
X0198500Y0084123D02*
X0194808Y0084123D01*
X0194808Y0082524D02*
X0198500Y0082524D01*
X0198500Y0080926D02*
X0194566Y0080926D01*
X0198500Y0079327D02*
X0180456Y0079327D01*
X0179863Y0079919D02*
X0179863Y0079919D01*
X0178738Y0081045D01*
X0177268Y0081654D01*
X0175753Y0081654D01*
X0175753Y0083867D01*
X0171480Y0083867D01*
X0171480Y0084826D01*
X0170520Y0084826D01*
X0170520Y0083867D01*
X0166247Y0083867D01*
X0166247Y0081550D01*
X0166313Y0081306D01*
X0166047Y0081041D01*
X0166047Y0074266D01*
X0167219Y0073094D01*
X0174781Y0073094D01*
X0175078Y0073391D01*
X0175871Y0072598D01*
X0163512Y0072598D01*
X0163512Y0074151D01*
X0162340Y0075323D01*
X0149660Y0075323D01*
X0149337Y0075000D01*
X0130202Y0075000D01*
X0129285Y0075917D01*
X0127154Y0076800D01*
X0124846Y0076800D01*
X0122715Y0075917D01*
X0121083Y0074285D01*
X0120200Y0072154D01*
X0120200Y0069846D01*
X0121083Y0067715D01*
X0122715Y0066083D01*
X0124846Y0065200D01*
X0127154Y0065200D01*
X0129285Y0066083D01*
X0130202Y0067000D01*
X0148488Y0067000D01*
X0148488Y0063046D01*
X0149660Y0061874D01*
X0162340Y0061874D01*
X0163512Y0063046D01*
X0163512Y0064598D01*
X0179197Y0064598D01*
X0179197Y0063046D01*
X0180368Y0061874D01*
X0193836Y0061874D01*
X0195008Y0063046D01*
X0195008Y0071002D01*
X0193836Y0072173D01*
X0188925Y0072173D01*
X0187898Y0072598D01*
X0187184Y0072598D01*
X0179863Y0079919D01*
X0179639Y0080926D02*
X0178857Y0080926D01*
X0179397Y0082524D02*
X0175753Y0082524D01*
X0179397Y0084123D02*
X0171480Y0084123D01*
X0170520Y0084123D02*
X0116000Y0084123D01*
X0116000Y0085721D02*
X0166247Y0085721D01*
X0166247Y0084826D02*
X0170520Y0084826D01*
X0170520Y0088705D01*
X0167810Y0088705D01*
X0167352Y0088583D01*
X0166942Y0088346D01*
X0166607Y0088011D01*
X0166370Y0087600D01*
X0166247Y0087142D01*
X0166247Y0084826D01*
X0166247Y0082524D02*
X0116000Y0082524D01*
X0116000Y0080926D02*
X0166047Y0080926D01*
X0166047Y0079327D02*
X0116000Y0079327D01*
X0116000Y0077729D02*
X0166047Y0077729D01*
X0166047Y0076130D02*
X0128771Y0076130D01*
X0123229Y0076130D02*
X0116000Y0076130D01*
X0116000Y0074532D02*
X0121329Y0074532D01*
X0120523Y0072933D02*
X0116000Y0072933D01*
X0116000Y0071334D02*
X0120200Y0071334D01*
X0120246Y0069736D02*
X0116000Y0069736D01*
X0116000Y0068137D02*
X0120908Y0068137D01*
X0122259Y0066539D02*
X0116000Y0066539D01*
X0116000Y0064940D02*
X0148488Y0064940D01*
X0148488Y0063342D02*
X0116000Y0063342D01*
X0116000Y0061743D02*
X0198500Y0061743D01*
X0198500Y0060145D02*
X0116000Y0060145D01*
X0116000Y0058546D02*
X0198500Y0058546D01*
X0198500Y0056948D02*
X0116000Y0056948D01*
X0129741Y0066539D02*
X0148488Y0066539D01*
X0163512Y0063342D02*
X0179197Y0063342D01*
X0175536Y0072933D02*
X0163512Y0072933D01*
X0163132Y0074532D02*
X0166047Y0074532D01*
X0170520Y0085721D02*
X0171480Y0085721D01*
X0171480Y0087320D02*
X0170520Y0087320D01*
X0166295Y0087320D02*
X0162700Y0087320D01*
X0156800Y0087320D02*
X0155200Y0087320D01*
X0155200Y0088918D02*
X0156800Y0088918D01*
X0156800Y0090517D02*
X0155200Y0090517D01*
X0155200Y0092115D02*
X0156800Y0092115D01*
X0155200Y0093714D02*
X0116000Y0093714D01*
X0116000Y0095312D02*
X0148688Y0095312D01*
X0148688Y0096911D02*
X0116000Y0096911D01*
X0116000Y0098509D02*
X0148727Y0098509D01*
X0148688Y0092115D02*
X0116000Y0092115D01*
X0116000Y0090517D02*
X0148688Y0090517D01*
X0148688Y0088918D02*
X0116000Y0088918D01*
X0116000Y0087320D02*
X0149300Y0087320D01*
X0155200Y0095312D02*
X0156800Y0095312D01*
X0156800Y0096911D02*
X0155200Y0096911D01*
X0155200Y0098509D02*
X0156800Y0098509D01*
X0182798Y0104903D02*
X0184398Y0104903D01*
X0184398Y0106502D02*
X0182798Y0106502D01*
X0182798Y0108100D02*
X0184398Y0108100D01*
X0184398Y0109699D02*
X0182798Y0109699D01*
X0183598Y0111000D02*
X0183500Y0111098D01*
X0182798Y0112896D02*
X0184398Y0112896D01*
X0184398Y0114494D02*
X0182798Y0114494D01*
X0182798Y0116093D02*
X0184398Y0116093D01*
X0184398Y0117691D02*
X0182798Y0117691D01*
X0190123Y0109699D02*
X0198500Y0109699D01*
X0198500Y0108100D02*
X0190123Y0108100D01*
X0190123Y0106502D02*
X0198500Y0106502D01*
X0198500Y0104903D02*
X0190030Y0104903D01*
X0188133Y0100108D02*
X0187174Y0100108D01*
X0187174Y0098509D02*
X0188133Y0098509D01*
X0188133Y0096911D02*
X0187174Y0096911D01*
X0187174Y0095312D02*
X0188133Y0095312D01*
X0188133Y0093714D02*
X0187174Y0093714D01*
X0187174Y0092115D02*
X0188133Y0092115D01*
X0187877Y0089926D02*
X0187877Y0085751D01*
X0194808Y0085751D01*
X0194808Y0088363D01*
X0194685Y0088821D01*
X0194448Y0089231D01*
X0194113Y0089566D01*
X0193703Y0089803D01*
X0193245Y0089926D01*
X0187877Y0089926D01*
X0187877Y0088918D02*
X0186328Y0088918D01*
X0186328Y0087320D02*
X0187877Y0087320D01*
X0187877Y0084123D02*
X0186328Y0084123D01*
X0186328Y0082524D02*
X0187877Y0082524D01*
X0187877Y0080926D02*
X0186328Y0080926D01*
X0182054Y0077729D02*
X0198500Y0077729D01*
X0198500Y0076130D02*
X0183653Y0076130D01*
X0185251Y0074532D02*
X0198500Y0074532D01*
X0198500Y0072933D02*
X0186850Y0072933D01*
X0194675Y0071334D02*
X0198500Y0071334D01*
X0198500Y0069736D02*
X0195008Y0069736D01*
X0195008Y0068137D02*
X0198500Y0068137D01*
X0198500Y0066539D02*
X0195008Y0066539D01*
X0195008Y0064940D02*
X0198500Y0064940D01*
X0198500Y0063342D02*
X0195008Y0063342D01*
X0194808Y0087320D02*
X0198500Y0087320D01*
X0198500Y0088918D02*
X0194629Y0088918D01*
X0208402Y0108500D02*
X0208402Y0111000D01*
X0219839Y0138717D02*
X0221000Y0139878D01*
X0221000Y0153500D01*
X0227713Y0150213D02*
X0233500Y0156000D01*
X0227713Y0150213D02*
X0227713Y0138717D01*
X0235587Y0138717D02*
X0235587Y0126413D01*
X0243461Y0126039D02*
X0243500Y0126000D01*
X0243461Y0126039D02*
X0243461Y0138717D01*
X0278500Y0138500D02*
X0278500Y0133500D01*
X0271000Y0183500D02*
X0263500Y0191000D01*
X0248500Y0191000D01*
X0243461Y0196039D01*
X0243461Y0203283D01*
X0236804Y0212003D02*
X0286000Y0212003D01*
X0286000Y0210405D02*
X0221300Y0210405D01*
X0222210Y0212003D02*
X0235196Y0212003D01*
X0236000Y0216000D02*
X0228500Y0216000D01*
X0219760Y0224740D01*
X0221000Y0225980D01*
X0221000Y0246000D01*
X0213800Y0253200D01*
X0213800Y0254900D01*
X0188200Y0254900D01*
X0182500Y0255163D02*
X0144099Y0255163D01*
X0144099Y0256480D02*
X0144099Y0259387D01*
X0143977Y0259844D01*
X0143740Y0260255D01*
X0143404Y0260590D01*
X0142994Y0260827D01*
X0142536Y0260950D01*
X0140220Y0260950D01*
X0140220Y0256480D01*
X0144099Y0256480D01*
X0144099Y0256762D02*
X0182802Y0256762D01*
X0183599Y0258360D02*
X0144099Y0258360D01*
X0143910Y0259959D02*
X0185518Y0259959D01*
X0190882Y0259959D02*
X0211118Y0259959D01*
X0209199Y0258360D02*
X0192801Y0258360D01*
X0193154Y0251966D02*
X0208846Y0251966D01*
X0210271Y0250368D02*
X0191729Y0250368D01*
X0184671Y0250368D02*
X0143909Y0250368D01*
X0143867Y0251966D02*
X0183246Y0251966D01*
X0182583Y0253565D02*
X0144099Y0253565D01*
X0144299Y0248769D02*
X0214271Y0248769D01*
X0215869Y0247171D02*
X0144299Y0247171D01*
X0145388Y0245572D02*
X0217468Y0245572D01*
X0220592Y0250368D02*
X0225591Y0250368D01*
X0225201Y0249978D02*
X0225201Y0242022D01*
X0225700Y0241523D01*
X0225700Y0228857D01*
X0225109Y0228266D01*
X0224500Y0226796D01*
X0224500Y0225204D01*
X0225109Y0223734D01*
X0226234Y0222609D01*
X0227704Y0222000D01*
X0229296Y0222000D01*
X0230766Y0222609D01*
X0231891Y0223734D01*
X0232500Y0225204D01*
X0232500Y0226796D01*
X0231891Y0228266D01*
X0231300Y0228857D01*
X0231300Y0240850D01*
X0233147Y0240850D01*
X0233500Y0241203D01*
X0233853Y0240850D01*
X0240628Y0240850D01*
X0241799Y0242022D01*
X0241799Y0243200D01*
X0247295Y0243200D01*
X0249095Y0241400D01*
X0252905Y0241400D01*
X0255600Y0244095D01*
X0255600Y0247905D01*
X0252905Y0250600D01*
X0249095Y0250600D01*
X0247295Y0248800D01*
X0241799Y0248800D01*
X0241799Y0249978D01*
X0240628Y0251150D01*
X0233853Y0251150D01*
X0233500Y0250797D01*
X0233147Y0251150D01*
X0226372Y0251150D01*
X0225201Y0249978D01*
X0225201Y0248769D02*
X0222191Y0248769D01*
X0222586Y0248374D02*
X0222586Y0248374D01*
X0223546Y0247171D02*
X0225201Y0247171D01*
X0225201Y0245572D02*
X0223800Y0245572D01*
X0223800Y0243974D02*
X0225201Y0243974D01*
X0225201Y0242375D02*
X0223800Y0242375D01*
X0223800Y0240777D02*
X0225700Y0240777D01*
X0225700Y0239178D02*
X0223800Y0239178D01*
X0223800Y0237580D02*
X0225700Y0237580D01*
X0225700Y0235981D02*
X0223800Y0235981D01*
X0223800Y0234383D02*
X0225700Y0234383D01*
X0225700Y0232784D02*
X0223800Y0232784D01*
X0223800Y0231186D02*
X0225700Y0231186D01*
X0225700Y0229587D02*
X0223800Y0229587D01*
X0223800Y0227989D02*
X0224994Y0227989D01*
X0224500Y0226390D02*
X0223800Y0226390D01*
X0223668Y0224792D02*
X0224671Y0224792D01*
X0225267Y0223193D02*
X0225650Y0223193D01*
X0226865Y0221595D02*
X0286000Y0221595D01*
X0286000Y0223193D02*
X0231350Y0223193D01*
X0232329Y0224792D02*
X0286000Y0224792D01*
X0286000Y0226390D02*
X0232500Y0226390D01*
X0232006Y0227989D02*
X0286000Y0227989D01*
X0286000Y0229587D02*
X0231300Y0229587D01*
X0231300Y0231186D02*
X0286000Y0231186D01*
X0286000Y0232784D02*
X0231300Y0232784D01*
X0231300Y0234383D02*
X0286000Y0234383D01*
X0286000Y0235981D02*
X0231300Y0235981D01*
X0231300Y0237580D02*
X0286000Y0237580D01*
X0286000Y0239178D02*
X0231300Y0239178D01*
X0231300Y0240777D02*
X0286000Y0240777D01*
X0286000Y0242375D02*
X0253881Y0242375D01*
X0255479Y0243974D02*
X0286000Y0243974D01*
X0286000Y0245572D02*
X0255600Y0245572D01*
X0255600Y0247171D02*
X0286000Y0247171D01*
X0286000Y0248769D02*
X0254736Y0248769D01*
X0253138Y0250368D02*
X0286000Y0250368D01*
X0286000Y0251966D02*
X0253189Y0251966D01*
X0252823Y0251600D02*
X0255400Y0254177D01*
X0255400Y0256000D01*
X0255400Y0257823D01*
X0252823Y0260400D01*
X0251000Y0260400D01*
X0251000Y0256000D01*
X0253500Y0256000D01*
X0261000Y0263500D01*
X0254862Y0258360D02*
X0286000Y0258360D01*
X0286000Y0256762D02*
X0255400Y0256762D01*
X0255400Y0256000D02*
X0251000Y0256000D01*
X0251000Y0256000D01*
X0251000Y0256000D01*
X0251000Y0256000D01*
X0246600Y0256000D01*
X0246600Y0257823D01*
X0249177Y0260400D01*
X0251000Y0260400D01*
X0251000Y0256000D01*
X0255400Y0256000D01*
X0255400Y0255163D02*
X0286000Y0255163D01*
X0286000Y0253565D02*
X0254787Y0253565D01*
X0252823Y0251600D02*
X0251000Y0251600D01*
X0251000Y0256000D01*
X0251000Y0256000D01*
X0246600Y0256000D01*
X0246600Y0254177D01*
X0249177Y0251600D01*
X0251000Y0251600D01*
X0251000Y0256000D01*
X0251000Y0256762D02*
X0251000Y0256762D01*
X0251000Y0258360D02*
X0251000Y0258360D01*
X0251000Y0259959D02*
X0251000Y0259959D01*
X0253264Y0259959D02*
X0286000Y0259959D01*
X0286000Y0261557D02*
X0116000Y0261557D01*
X0116000Y0259959D02*
X0127701Y0259959D01*
X0116836Y0258360D02*
X0116000Y0258360D01*
X0116000Y0263156D02*
X0286000Y0263156D01*
X0286000Y0264754D02*
X0116000Y0264754D01*
X0116000Y0266353D02*
X0140511Y0266353D01*
X0138352Y0267951D02*
X0116000Y0267951D01*
X0116000Y0269550D02*
X0136908Y0269550D01*
X0135985Y0271148D02*
X0116000Y0271148D01*
X0116000Y0272747D02*
X0135381Y0272747D01*
X0134953Y0274345D02*
X0116000Y0274345D01*
X0116000Y0275944D02*
X0134901Y0275944D01*
X0134923Y0277542D02*
X0116000Y0277542D01*
X0116000Y0279141D02*
X0135351Y0279141D01*
X0135920Y0280739D02*
X0116000Y0280739D01*
X0116000Y0282338D02*
X0136843Y0282338D01*
X0138240Y0283937D02*
X0116000Y0283937D01*
X0116000Y0285535D02*
X0140317Y0285535D01*
X0151683Y0285535D02*
X0270317Y0285535D01*
X0268240Y0283937D02*
X0153760Y0283937D01*
X0155157Y0282338D02*
X0266843Y0282338D01*
X0265920Y0280739D02*
X0156080Y0280739D01*
X0156649Y0279141D02*
X0265351Y0279141D01*
X0264923Y0277542D02*
X0157077Y0277542D01*
X0157099Y0275944D02*
X0264901Y0275944D01*
X0264953Y0274345D02*
X0157047Y0274345D01*
X0156619Y0272747D02*
X0265381Y0272747D01*
X0265985Y0271148D02*
X0156015Y0271148D01*
X0155092Y0269550D02*
X0266908Y0269550D01*
X0268352Y0267951D02*
X0153648Y0267951D01*
X0151489Y0266353D02*
X0270511Y0266353D01*
X0281489Y0266353D02*
X0286000Y0266353D01*
X0286000Y0267951D02*
X0283648Y0267951D01*
X0285092Y0269550D02*
X0286000Y0269550D01*
X0251000Y0255163D02*
X0251000Y0255163D01*
X0251000Y0253565D02*
X0251000Y0253565D01*
X0251000Y0251966D02*
X0251000Y0251966D01*
X0248811Y0251966D02*
X0218993Y0251966D01*
X0219417Y0253565D02*
X0247213Y0253565D01*
X0246600Y0255163D02*
X0219500Y0255163D01*
X0219198Y0256762D02*
X0246600Y0256762D01*
X0247138Y0258360D02*
X0218401Y0258360D01*
X0216482Y0259959D02*
X0248736Y0259959D01*
X0248862Y0250368D02*
X0241409Y0250368D01*
X0237240Y0246000D02*
X0251000Y0246000D01*
X0248119Y0242375D02*
X0241799Y0242375D01*
X0229760Y0246000D02*
X0228500Y0244740D01*
X0228500Y0226000D01*
X0228464Y0219996D02*
X0235195Y0219996D01*
X0236805Y0219996D02*
X0286000Y0219996D01*
X0286000Y0218398D02*
X0239259Y0218398D01*
X0239999Y0216799D02*
X0286000Y0216799D01*
X0286000Y0215201D02*
X0239998Y0215201D01*
X0239259Y0213602D02*
X0286000Y0213602D01*
X0226972Y0213602D02*
X0222500Y0213602D01*
X0222125Y0215201D02*
X0225340Y0215201D01*
X0223741Y0216799D02*
X0220858Y0216799D01*
X0222143Y0218398D02*
X0201150Y0218398D01*
X0201150Y0219996D02*
X0220544Y0219996D01*
X0218946Y0221595D02*
X0201150Y0221595D01*
X0201150Y0216799D02*
X0216142Y0216799D01*
X0214875Y0215201D02*
X0201150Y0215201D01*
X0200879Y0213602D02*
X0214500Y0213602D01*
X0214790Y0212003D02*
X0199391Y0212003D01*
X0199391Y0210405D02*
X0215700Y0210405D01*
X0218500Y0213500D02*
X0218500Y0204622D01*
X0219839Y0203283D01*
X0214138Y0196018D02*
X0225700Y0196018D01*
X0225700Y0194420D02*
X0214949Y0194420D01*
X0215000Y0192821D02*
X0225700Y0192821D01*
X0225700Y0191223D02*
X0214380Y0191223D01*
X0211000Y0193500D02*
X0211000Y0202319D01*
X0211965Y0203283D01*
X0204091Y0203283D02*
X0203500Y0202693D01*
X0203500Y0186000D01*
X0192622Y0197617D02*
X0181577Y0197617D01*
X0183175Y0199215D02*
X0192622Y0199215D01*
X0196591Y0203283D02*
X0183283Y0203283D01*
X0192622Y0207208D02*
X0149794Y0207208D01*
X0150000Y0208806D02*
X0192622Y0208806D01*
X0193791Y0210405D02*
X0149540Y0210405D01*
X0147994Y0212003D02*
X0193791Y0212003D01*
X0191121Y0213602D02*
X0144858Y0213602D01*
X0144299Y0215201D02*
X0190850Y0215201D01*
X0190850Y0216799D02*
X0144299Y0216799D01*
X0144299Y0218398D02*
X0190850Y0218398D01*
X0190850Y0219996D02*
X0144281Y0219996D01*
X0143589Y0221595D02*
X0190850Y0221595D01*
X0190850Y0223193D02*
X0144099Y0223193D01*
X0144099Y0224792D02*
X0190850Y0224792D01*
X0190850Y0226390D02*
X0140220Y0226390D01*
X0140220Y0226480D02*
X0144099Y0226480D01*
X0144099Y0229387D01*
X0143977Y0229844D01*
X0143740Y0230255D01*
X0143404Y0230590D01*
X0142994Y0230827D01*
X0142536Y0230950D01*
X0140220Y0230950D01*
X0140220Y0226480D01*
X0140220Y0227989D02*
X0139261Y0227989D01*
X0139261Y0229587D02*
X0140220Y0229587D01*
X0144045Y0229587D02*
X0218200Y0229587D01*
X0218200Y0227989D02*
X0201150Y0227989D01*
X0196000Y0224740D02*
X0219760Y0224740D01*
X0210383Y0232784D02*
X0191617Y0232784D01*
X0192988Y0234383D02*
X0209012Y0234383D01*
X0208409Y0235981D02*
X0193591Y0235981D01*
X0193693Y0237580D02*
X0208307Y0237580D01*
X0208692Y0239178D02*
X0193308Y0239178D01*
X0192301Y0240777D02*
X0209699Y0240777D01*
X0213600Y0240777D02*
X0214000Y0240777D01*
X0214000Y0239178D02*
X0213600Y0239178D01*
X0213600Y0237580D02*
X0214000Y0237580D01*
X0217901Y0240777D02*
X0218200Y0240777D01*
X0196000Y0217260D02*
X0196591Y0216669D01*
X0196591Y0203283D01*
X0190850Y0227989D02*
X0144099Y0227989D01*
X0148500Y0238500D02*
X0141000Y0246000D01*
X0139740Y0246000D01*
X0139261Y0256762D02*
X0140220Y0256762D01*
X0140220Y0258360D02*
X0139261Y0258360D01*
X0139261Y0259959D02*
X0140220Y0259959D01*
X0116064Y0243974D02*
X0116000Y0243974D01*
X0116000Y0213602D02*
X0116436Y0213602D01*
X0139740Y0214760D02*
X0146000Y0208500D01*
X0139740Y0214760D02*
X0139740Y0216000D01*
X0265800Y0064940D02*
X0266200Y0064940D01*
X0266200Y0063342D02*
X0265800Y0063342D01*
X0265800Y0061743D02*
X0266200Y0061743D01*
X0266000Y0061000D02*
X0261000Y0061000D01*
X0261200Y0060145D02*
X0238500Y0060145D01*
X0238500Y0058546D02*
X0261665Y0058546D01*
X0263264Y0056948D02*
X0238500Y0056948D01*
X0265800Y0056948D02*
X0266200Y0056948D01*
X0266200Y0058546D02*
X0265800Y0058546D01*
X0265800Y0060145D02*
X0266200Y0060145D01*
X0279019Y0056948D02*
X0286000Y0056948D01*
X0286000Y0058546D02*
X0280617Y0058546D01*
X0281000Y0060145D02*
X0286000Y0060145D01*
X0286000Y0061743D02*
X0281000Y0061743D01*
X0282302Y0063342D02*
X0286000Y0063342D01*
X0286000Y0064940D02*
X0283900Y0064940D01*
X0285499Y0066539D02*
X0286000Y0066539D01*
D30*
X0241000Y0071000D03*
X0263500Y0118500D03*
X0278500Y0133500D03*
X0251000Y0151000D03*
X0228500Y0171000D03*
X0223500Y0178500D03*
X0211000Y0193500D03*
X0203500Y0186000D03*
X0218500Y0213500D03*
X0228500Y0226000D03*
X0236000Y0216000D03*
X0268500Y0248500D03*
X0268500Y0256000D03*
X0268500Y0263500D03*
X0261000Y0263500D03*
X0276000Y0256000D03*
X0276000Y0248500D03*
X0276000Y0241000D03*
X0276000Y0233500D03*
X0276000Y0226000D03*
X0221000Y0263500D03*
X0213500Y0263500D03*
X0176000Y0263500D03*
X0166000Y0263500D03*
X0158500Y0263500D03*
X0151000Y0263500D03*
X0126000Y0263500D03*
X0118500Y0263500D03*
X0126000Y0273500D03*
X0121000Y0241000D03*
X0121000Y0231000D03*
X0121000Y0211000D03*
X0121000Y0201000D03*
X0121000Y0181000D03*
X0121000Y0171000D03*
X0141000Y0178500D03*
X0146000Y0208500D03*
X0148500Y0238500D03*
X0166000Y0241000D03*
X0221000Y0153500D03*
X0231000Y0128500D03*
X0243500Y0126000D03*
X0281000Y0168500D03*
X0183500Y0126000D03*
X0171000Y0106000D03*
X0171000Y0098500D03*
X0148500Y0111000D03*
X0148500Y0118500D03*
X0141000Y0118500D03*
X0141000Y0111000D03*
X0141000Y0103500D03*
X0141000Y0126000D03*
X0141000Y0146000D03*
X0118500Y0143500D03*
X0118500Y0136000D03*
X0118500Y0128500D03*
X0123500Y0061000D03*
X0131000Y0061000D03*
X0136000Y0061000D03*
X0166000Y0058500D03*
X0173500Y0058500D03*
D31*
X0201000Y0058914D02*
X0236000Y0058914D01*
X0236000Y0059912D02*
X0201000Y0059912D01*
X0201000Y0060911D02*
X0236000Y0060911D01*
X0236000Y0061909D02*
X0201000Y0061909D01*
X0201000Y0062908D02*
X0236000Y0062908D01*
X0236000Y0063906D02*
X0201000Y0063906D01*
X0201000Y0064905D02*
X0236000Y0064905D01*
X0236000Y0065903D02*
X0201000Y0065903D01*
X0201000Y0066902D02*
X0236000Y0066902D01*
X0236000Y0067900D02*
X0201000Y0067900D01*
X0201000Y0068899D02*
X0236000Y0068899D01*
X0236000Y0069897D02*
X0201000Y0069897D01*
X0201000Y0070896D02*
X0236000Y0070896D01*
X0236000Y0071894D02*
X0201000Y0071894D01*
X0201000Y0072893D02*
X0236000Y0072893D01*
X0236000Y0073891D02*
X0201000Y0073891D01*
X0201000Y0074890D02*
X0236000Y0074890D01*
X0236000Y0075888D02*
X0201000Y0075888D01*
X0201000Y0076887D02*
X0236000Y0076887D01*
X0236000Y0077885D02*
X0201000Y0077885D01*
X0201000Y0078884D02*
X0236000Y0078884D01*
X0236000Y0079882D02*
X0201000Y0079882D01*
X0201000Y0080881D02*
X0236000Y0080881D01*
X0236000Y0081879D02*
X0201000Y0081879D01*
X0201000Y0082878D02*
X0236000Y0082878D01*
X0236000Y0083876D02*
X0201000Y0083876D01*
X0201000Y0084875D02*
X0236000Y0084875D01*
X0236000Y0085873D02*
X0201000Y0085873D01*
X0201000Y0086872D02*
X0236000Y0086872D01*
X0236000Y0087870D02*
X0201000Y0087870D01*
X0201000Y0088869D02*
X0236000Y0088869D01*
X0236000Y0089868D02*
X0201000Y0089868D01*
X0201000Y0090866D02*
X0236000Y0090866D01*
X0236000Y0091865D02*
X0201000Y0091865D01*
X0201000Y0092863D02*
X0236000Y0092863D01*
X0236000Y0093862D02*
X0201000Y0093862D01*
X0201000Y0094860D02*
X0236000Y0094860D01*
X0236000Y0095859D02*
X0201000Y0095859D01*
X0201000Y0096857D02*
X0236000Y0096857D01*
X0236000Y0097856D02*
X0201000Y0097856D01*
X0201000Y0098854D02*
X0236000Y0098854D01*
X0236000Y0099853D02*
X0201000Y0099853D01*
X0201000Y0100851D02*
X0236000Y0100851D01*
X0236000Y0101850D02*
X0201000Y0101850D01*
X0201000Y0102848D02*
X0236000Y0102848D01*
X0236000Y0103847D02*
X0201000Y0103847D01*
X0201000Y0104845D02*
X0236000Y0104845D01*
X0236000Y0105844D02*
X0201000Y0105844D01*
X0201000Y0106842D02*
X0236000Y0106842D01*
X0236000Y0107841D02*
X0201000Y0107841D01*
X0201000Y0108839D02*
X0236000Y0108839D01*
X0236000Y0109838D02*
X0201000Y0109838D01*
X0201000Y0110836D02*
X0236000Y0110836D01*
X0236000Y0111835D02*
X0201000Y0111835D01*
X0201000Y0112833D02*
X0236000Y0112833D01*
X0236000Y0113832D02*
X0201000Y0113832D01*
X0201000Y0114830D02*
X0236000Y0114830D01*
X0236000Y0115829D02*
X0201000Y0115829D01*
X0201000Y0116827D02*
X0236000Y0116827D01*
X0236000Y0117826D02*
X0201000Y0117826D01*
X0201000Y0118500D02*
X0236000Y0118500D01*
X0236000Y0056000D01*
X0201000Y0056000D01*
X0201000Y0118500D01*
X0201000Y0057915D02*
X0236000Y0057915D01*
X0236000Y0056917D02*
X0201000Y0056917D01*
D32*
X0206000Y0041000D02*
X0091000Y0041000D01*
X0076000Y0056000D01*
X0076000Y0166000D01*
X0051000Y0191000D01*
X0021000Y0191000D02*
X0021000Y0161000D01*
X0021000Y0131000D01*
X0041000Y0131000D01*
X0051000Y0121000D01*
X0051000Y0056000D01*
X0041000Y0046000D01*
X0021000Y0046000D01*
X0066000Y0051000D02*
X0066000Y0146000D01*
X0051000Y0161000D01*
X0021000Y0191000D02*
X0021000Y0221000D01*
X0021000Y0251000D01*
X0066000Y0051000D02*
X0086000Y0031000D01*
X0181000Y0031000D01*
X0186000Y0026000D01*
X0186000Y0016000D01*
X0206000Y0041000D02*
X0216000Y0031000D01*
X0216000Y0016000D01*
M02*
